<svg width="21" height="20" viewBox="0 0 21 20" fill="none" xmlns="http://www.w3.org/2000/svg">
<path d="M21 0L17.7947 5.07176H6.41073C5.17713 5.07176 4.0601 5.56558 3.25196 6.36174C2.98387 6.62587 2.74881 6.92444 2.55647 7.24981C2.16605 7.90244 1.9426 8.66227 1.9426 9.47372C1.9426 9.59045 1.94652 9.70718 1.95811 9.82014C1.44528 9.23828 1.0451 8.55696 0.792518 7.80864C0.594343 7.21914 0.485535 6.58945 0.485535 5.93304C0.485535 4.29476 1.15966 2.81152 2.24949 1.73783C3.33932 0.664141 4.84486 8.65033e-05 6.50776 8.65033e-05H21V0Z" fill="#0A97B0"/>
<path d="M3.35197 9.30817C3.32477 10.7272 4.48496 11.8919 5.92554 11.8919H14.6864C15.92 11.8919 17.037 12.3857 17.8451 13.1819C18.1132 13.446 18.3483 13.7446 18.5406 14.0699C18.931 14.7226 19.1545 15.4824 19.1545 16.2939C19.1545 16.4106 19.1506 16.5273 19.139 16.6403C19.6518 16.0584 20.052 15.3771 20.3046 14.6288C20.5028 14.0393 20.6116 13.4096 20.6116 12.7532C20.6116 11.1149 19.9374 9.63166 18.8476 8.55797C17.7578 7.48428 16.2522 6.82013 14.5893 6.82013H5.92562C4.52288 6.82005 3.37847 7.92646 3.35197 9.30817Z" fill="#FDCB02"/>
<path d="M14.3756 19.7647H0L3.49679 13.6403H14.3756C16.0922 13.6403 17.4838 15.0112 17.4838 16.7024C17.4838 18.3936 16.0922 19.7647 14.3756 19.7647Z" fill="#0A97B0"/>
</svg>
