<svg width="32" height="32" viewBox="0 0 32 32" fill="none" xmlns="http://www.w3.org/2000/svg">
<path d="M12 17.3334C11.12 17.7734 10.3867 18.4267 9.83999 19.24C9.53332 19.7067 9.53332 20.2934 9.83999 20.76C10.3867 21.5734 11.12 22.2267 12 22.6667M20.28 17.3334C21.16 17.7734 21.8933 18.4267 22.44 19.24C22.7467 19.7067 22.7467 20.2934 22.44 20.76C21.8933 21.5734 21.16 22.2267 20.28 22.6667" stroke="#0A97B0" stroke-width="2" stroke-linecap="round" stroke-linejoin="round"/>
<path d="M2.97335 10.68L28.6 10.6666M12 29.3333H20C26.6667 29.3333 29.3334 26.6666 29.3334 20V12C29.3334 5.33329 26.6667 2.66663 20 2.66663H12C5.33335 2.66663 2.66669 5.33329 2.66669 12V20C2.66669 26.6666 5.33335 29.3333 12 29.3333Z" stroke="#0A97B0" stroke-width="2" stroke-linecap="round" stroke-linejoin="round"/>
</svg>
