<svg width="32" height="32" viewBox="0 0 32 32" fill="none" xmlns="http://www.w3.org/2000/svg">
<path d="M12 29.3333H20C26.6667 29.3333 29.3334 26.6666 29.3334 20V12C29.3334 5.33329 26.6667 2.66663 20 2.66663H12C5.33335 2.66663 2.66669 5.33329 2.66669 12V20C2.66669 26.6666 5.33335 29.3333 12 29.3333Z" stroke="#0A97B0" stroke-width="2" stroke-linecap="round" stroke-linejoin="round"/>
<path d="M20.76 24.6667V19.4667M20.76 9.93337V7.33337M20.76 9.93337C21.2152 9.93337 21.666 10.023 22.0866 10.1973C22.5072 10.3715 22.8894 10.6268 23.2113 10.9487C23.5332 11.2706 23.7885 11.6528 23.9628 12.0734C24.137 12.494 24.2267 12.9448 24.2267 13.4C24.2267 13.8553 24.137 14.3061 23.9628 14.7267C23.7885 15.1473 23.5332 15.5294 23.2113 15.8513C22.8894 16.1733 22.5072 16.4286 22.0866 16.6028C21.666 16.777 21.2152 16.8667 20.76 16.8667C19.8406 16.8667 18.9588 16.5015 18.3087 15.8513C17.6586 15.2012 17.2933 14.3195 17.2933 13.4C17.2933 12.4806 17.6586 11.5989 18.3087 10.9487C18.9588 10.2986 19.8406 9.93337 20.76 9.93337ZM11.24 24.6667V22.0667M11.24 22.0667C11.6952 22.0667 12.146 21.977 12.5666 21.8028C12.9872 21.6286 13.3694 21.3733 13.6913 21.0513C14.0132 20.7294 14.2685 20.3473 14.4428 19.9267C14.617 19.5061 14.7066 19.0553 14.7066 18.6C14.7066 18.1448 14.617 17.694 14.4428 17.2734C14.2685 16.8528 14.0132 16.4706 13.6913 16.1487C13.3694 15.8268 12.9872 15.5715 12.5666 15.3973C12.146 15.223 11.6952 15.1334 11.24 15.1334C10.3206 15.1334 9.4388 15.4986 8.78868 16.1487C8.13855 16.7989 7.77332 17.6806 7.77332 18.6C7.77332 19.5195 8.13855 20.4012 8.78868 21.0513C9.4388 21.7015 10.3206 22.0667 11.24 22.0667ZM11.24 12.5334V7.33337" stroke="#0A97B0" stroke-width="2" stroke-miterlimit="10" stroke-linecap="round" stroke-linejoin="round"/>
</svg>
