<svg width="32" height="32" viewBox="0 0 32 32" fill="none" xmlns="http://www.w3.org/2000/svg">
<path d="M21.9334 19.2V11.3333C21.9334 10.6 21.3334 10 20.6001 10H16.7334" stroke="#0A97B0" stroke-width="2" stroke-linecap="round" stroke-linejoin="round"/>
<path d="M18.7337 8L16.3337 10L18.7337 12M10.067 13.6V19.2M10.067 19.2C10.7035 19.2 11.314 19.4529 11.764 19.9029C12.2141 20.353 12.467 20.9635 12.467 21.6C12.467 22.2365 12.2141 22.847 11.764 23.2971C11.314 23.7471 10.7035 24 10.067 24C9.43047 24 8.82002 23.7471 8.36994 23.2971C7.91985 22.847 7.66699 22.2365 7.66699 21.6C7.66699 20.9635 7.91985 20.353 8.36994 19.9029C8.82002 19.4529 9.43047 19.2 10.067 19.2ZM10.267 13.2C10.9566 13.2 11.6179 12.9261 12.1055 12.4385C12.5931 11.9509 12.867 11.2896 12.867 10.6C12.867 9.91044 12.5931 9.24912 12.1055 8.76152C11.6179 8.27393 10.9566 8 10.267 8C9.57743 8 8.91611 8.27393 8.42851 8.76152C7.94092 9.24912 7.66699 9.91044 7.66699 10.6C7.66699 11.2896 7.94092 11.9509 8.42851 12.4385C8.91611 12.9261 9.57743 13.2 10.267 13.2ZM21.9337 24C22.5702 24 23.1806 23.7471 23.6307 23.2971C24.0808 22.847 24.3337 22.2365 24.3337 21.6C24.3337 20.9635 24.0808 20.353 23.6307 19.9029C23.1806 19.4529 22.5702 19.2 21.9337 19.2C21.2971 19.2 20.6867 19.4529 20.2366 19.9029C19.7865 20.353 19.5337 20.9635 19.5337 21.6C19.5337 22.2365 19.7865 22.847 20.2366 23.2971C20.6867 23.7471 21.2971 24 21.9337 24Z" stroke="#0A97B0" stroke-width="2" stroke-linecap="round" stroke-linejoin="round"/>
<path d="M12.0003 29.3334H20.0003C26.667 29.3334 29.3337 26.6667 29.3337 20V12C29.3337 5.33335 26.667 2.66669 20.0003 2.66669H12.0003C5.33366 2.66669 2.66699 5.33335 2.66699 12V20C2.66699 26.6667 5.33366 29.3334 12.0003 29.3334Z" stroke="#0A97B0" stroke-width="2" stroke-linecap="round" stroke-linejoin="round"/>
</svg>
