<svg width="32" height="32" viewBox="0 0 32 32" fill="none" xmlns="http://www.w3.org/2000/svg">
<path d="M16 20C17.0609 20 18.0783 19.5786 18.8284 18.8284C19.5786 18.0783 20 17.0609 20 16C20 14.9391 19.5786 13.9217 18.8284 13.1716C18.0783 12.4214 17.0609 12 16 12C14.9391 12 13.9217 12.4214 13.1716 13.1716C12.4214 13.9217 12 14.9391 12 16C12 17.0609 12.4214 18.0783 13.1716 18.8284C13.9217 19.5786 14.9391 20 16 20Z" stroke="#0A97B0" stroke-width="2" stroke-miterlimit="10" stroke-linecap="round" stroke-linejoin="round"/>
<path d="M2.66663 17.1733V14.8267C2.66663 13.44 3.79996 12.2933 5.19996 12.2933C7.61329 12.2933 8.59996 10.5867 7.38663 8.49333C6.69329 7.29333 7.10663 5.73333 8.31996 5.04L10.6266 3.72C11.68 3.09333 13.04 3.46666 13.6666 4.52L13.8133 4.77333C15.0133 6.86666 16.9866 6.86666 18.2 4.77333L18.3466 4.52C18.9733 3.46666 20.3333 3.09333 21.3866 3.72L23.6933 5.04C24.9066 5.73333 25.32 7.29333 24.6266 8.49333C23.4133 10.5867 24.4 12.2933 26.8133 12.2933C28.2 12.2933 29.3466 13.4267 29.3466 14.8267V17.1733C29.3466 18.56 28.2133 19.7067 26.8133 19.7067C24.4 19.7067 23.4133 21.4133 24.6266 23.5067C25.32 24.72 24.9066 26.2667 23.6933 26.96L21.3866 28.28C20.3333 28.9067 18.9733 28.5333 18.3466 27.48L18.2 27.2267C17 25.1333 15.0266 25.1333 13.8133 27.2267L13.6666 27.48C13.04 28.5333 11.68 28.9067 10.6266 28.28L8.31996 26.96C7.73876 26.6253 7.31407 26.0738 7.13909 25.4264C6.96411 24.7789 7.05313 24.0885 7.38663 23.5067C8.59996 21.4133 7.61329 19.7067 5.19996 19.7067C3.79996 19.7067 2.66663 18.56 2.66663 17.1733Z" stroke="#0A97B0" stroke-width="2" stroke-miterlimit="10" stroke-linecap="round" stroke-linejoin="round"/>
</svg>
