<svg width="32" height="32" viewBox="0 0 32 32" fill="none" xmlns="http://www.w3.org/2000/svg">
<path d="M16 20C17.0609 20 18.0783 19.5786 18.8284 18.8284C19.5786 18.0783 20 17.0609 20 16C20 14.9391 19.5786 13.9217 18.8284 13.1716C18.0783 12.4214 17.0609 12 16 12C14.9391 12 13.9217 12.4214 13.1716 13.1716C12.4214 13.9217 12 14.9391 12 16C12 17.0609 12.4214 18.0783 13.1716 18.8284C13.9217 19.5786 14.9391 20 16 20Z" stroke="#0A97B0" stroke-width="2" stroke-miterlimit="10" stroke-linecap="round" stroke-linejoin="round"/>
<path d="M2.66699 17.1733V14.8267C2.66699 13.44 3.80033 12.2933 5.20033 12.2933C7.61366 12.2933 8.60033 10.5867 7.38699 8.49333C6.69366 7.29333 7.10699 5.73333 8.32033 5.04L10.627 3.72C11.6803 3.09333 13.0403 3.46666 13.667 4.52L13.8137 4.77333C15.0137 6.86666 16.987 6.86666 18.2003 4.77333L18.347 4.52C18.9737 3.46666 20.3337 3.09333 21.387 3.72L23.6937 5.04C24.907 5.73333 25.3203 7.29333 24.627 8.49333C23.4137 10.5867 24.4003 12.2933 26.8137 12.2933C28.2003 12.2933 29.347 13.4267 29.347 14.8267V17.1733C29.347 18.56 28.2137 19.7067 26.8137 19.7067C24.4003 19.7067 23.4137 21.4133 24.627 23.5067C25.3203 24.72 24.907 26.2667 23.6937 26.96L21.387 28.28C20.3337 28.9067 18.9737 28.5333 18.347 27.48L18.2003 27.2267C17.0003 25.1333 15.027 25.1333 13.8137 27.2267L13.667 27.48C13.0403 28.5333 11.6803 28.9067 10.627 28.28L8.32033 26.96C7.73913 26.6253 7.31443 26.0738 7.13945 25.4264C6.96447 24.7789 7.0535 24.0885 7.38699 23.5067C8.60033 21.4133 7.61366 19.7067 5.20033 19.7067C3.80033 19.7067 2.66699 18.56 2.66699 17.1733Z" stroke="#0A97B0" stroke-width="2" stroke-miterlimit="10" stroke-linecap="round" stroke-linejoin="round"/>
</svg>
