<svg width="32" height="32" viewBox="0 0 32 32" fill="none" xmlns="http://www.w3.org/2000/svg">
<path d="M24 25.1467H22.9867C21.92 25.1467 20.9067 25.5601 20.16 26.3067L17.88 28.5601C16.84 29.5867 15.1467 29.5867 14.1067 28.5601L11.8267 26.3067C11.08 25.5601 10.0533 25.1467 9 25.1467H8C5.78667 25.1467 4 23.3734 4 21.1867V6.64005C4 4.45339 5.78667 2.68005 8 2.68005H24C26.2133 2.68005 28 4.45339 28 6.64005V21.1867C28 23.3601 26.2133 25.1467 24 25.1467Z" stroke="#0A97B0" stroke-width="2" stroke-miterlimit="10" stroke-linecap="round" stroke-linejoin="round"/>
<path d="M9.33337 12.2133C9.33337 10.9733 10.3467 9.96001 11.5867 9.96001C12.8267 9.96001 13.84 10.9733 13.84 12.2133C13.84 14.72 10.28 14.9867 9.49337 17.3733C9.33337 17.8667 9.74671 18.36 10.2667 18.36H13.84M21.3867 18.3467V10.7333C21.3874 10.5649 21.3331 10.4008 21.232 10.266C21.131 10.1312 20.9886 10.0331 20.8267 9.98668C20.6637 9.94063 20.4902 9.94816 20.3317 10.0082C20.1733 10.0682 20.0383 10.1775 19.9467 10.32C18.9867 11.8667 17.9467 13.6267 17.04 15.1733C16.8934 15.4267 16.8934 15.76 17.04 16.0133C17.1867 16.2667 17.4667 16.4267 17.7734 16.4267H22.6667" stroke="#0A97B0" stroke-width="2" stroke-linecap="round" stroke-linejoin="round"/>
</svg>
