<svg width="20" height="20" viewBox="0 0 20 20" fill="none" xmlns="http://www.w3.org/2000/svg">
<path d="M9.99999 11.1912C10.3414 11.1912 10.6795 11.124 10.995 10.9933C11.3104 10.8626 11.597 10.6711 11.8385 10.4297C12.0799 10.1883 12.2714 9.90163 12.4021 9.58619C12.5327 9.27074 12.6 8.93265 12.6 8.59121C12.6 8.24977 12.5327 7.91168 12.4021 7.59623C12.2714 7.28079 12.0799 6.99417 11.8385 6.75273C11.597 6.5113 11.3104 6.31979 10.995 6.18912C10.6795 6.05846 10.3414 5.99121 9.99999 5.99121C9.31043 5.99121 8.64911 6.26514 8.16152 6.75273C7.67392 7.24033 7.39999 7.90165 7.39999 8.59121C7.39999 9.28077 7.67392 9.94209 8.16152 10.4297C8.64911 10.9173 9.31043 11.1912 9.99999 11.1912Z" stroke="white" stroke-width="1.2"/>
<path d="M3.01667 7.07484C4.65834 -0.141827 15.35 -0.133494 16.9833 7.08317C17.9417 11.3165 15.3083 14.8998 13 17.1165C12.1934 17.8945 11.1165 18.3292 9.99584 18.3292C8.87521 18.3292 7.79828 17.8945 6.99167 17.1165C4.69167 14.8998 2.05834 11.3082 3.01667 7.07484Z" stroke="white" stroke-width="1.2"/>
</svg>
