<svg width="32" height="32" viewBox="0 0 32 32" fill="none" xmlns="http://www.w3.org/2000/svg">
<path d="M24 25.1467H22.9867C21.92 25.1467 20.9067 25.56 20.16 26.3067L17.88 28.56C16.84 29.5867 15.1467 29.5867 14.1067 28.56L11.8267 26.3067C11.08 25.56 10.0533 25.1467 9 25.1467H8C5.78667 25.1467 4 23.3733 4 21.1867V6.63999C4 4.45333 5.78667 2.67999 8 2.67999H24C26.2133 2.67999 28 4.45333 28 6.63999V21.1867C28 23.36 26.2133 25.1467 24 25.1467Z" stroke="#0A97B0" stroke-width="2" stroke-miterlimit="10" stroke-linecap="round" stroke-linejoin="round"/>
<path d="M9.33301 12.2133C9.33301 10.9733 10.3463 9.96001 11.5863 9.96001C12.8263 9.96001 13.8397 10.9733 13.8397 12.2133C13.8397 14.72 10.2797 14.9867 9.49301 17.3733C9.33301 17.8667 9.74634 18.36 10.2663 18.36H13.8397M21.3863 18.3467V10.7333C21.3871 10.5649 21.3328 10.4008 21.2317 10.266C21.1306 10.1312 20.9883 10.0331 20.8263 9.98668C20.6633 9.94063 20.4898 9.94816 20.3314 10.0082C20.1729 10.0682 20.038 10.1775 19.9463 10.32C18.9863 11.8667 17.9463 13.6267 17.0397 15.1733C16.893 15.4267 16.893 15.76 17.0397 16.0133C17.1863 16.2667 17.4663 16.4267 17.773 16.4267H22.6663" stroke="#0A97B0" stroke-width="2" stroke-linecap="round" stroke-linejoin="round"/>
</svg>
