<svg width="24" height="24" viewBox="0 0 24 24" fill="none" xmlns="http://www.w3.org/2000/svg">
<path d="M23.7638 20.2989L18.9876 15.5226L22.3951 13.5544C22.6613 13.4006 22.8162 13.1084 22.7941 12.8017C22.7719 12.4949 22.5765 12.2279 22.291 12.114L7.09655 6.05292C6.79869 5.93397 6.45857 6.00403 6.23174 6.23078C6.00491 6.45769 5.93485 6.79773 6.05372 7.09559L12.1138 22.2918C12.2278 22.5774 12.4948 22.7728 12.8016 22.795C13.1083 22.8173 13.4007 22.6623 13.5544 22.396L15.5224 18.9885L20.2982 23.7648C20.4487 23.9154 20.653 24 20.8658 24C21.0787 24 21.2828 23.9154 21.4333 23.7648L23.7639 21.4339C24.0772 21.1205 24.0772 20.6124 23.7638 20.2989Z" fill="white"/>
<path d="M3.52395 2.38802C3.2105 2.0748 2.70246 2.07472 2.38884 2.38802C2.07547 2.70147 2.07547 3.20967 2.38884 3.52313L4.17219 5.30648C4.32888 5.46317 4.53421 5.54155 4.73971 5.54155C4.94504 5.54155 5.15046 5.46317 5.30714 5.30648C5.6206 4.99303 5.6206 4.4849 5.30714 4.17145L3.52395 2.38802Z" fill="white"/>
<path d="M4.12833 7.93656C4.12833 7.49341 3.76898 7.13397 3.32566 7.13397H0.803643C0.360411 7.13397 0.000976562 7.49333 0.000976562 7.93656C0.000976562 8.37979 0.36033 8.73923 0.803643 8.73923H3.32566C3.76898 8.73914 4.12833 8.37979 4.12833 7.93656Z" fill="white"/>
<path d="M3.80305 10.4137L2.01945 12.1972C1.70608 12.5106 1.70608 13.0188 2.01945 13.3322C2.17622 13.4889 2.38164 13.5673 2.58697 13.5673C2.7923 13.5673 2.9978 13.4889 3.15448 13.3322L4.938 11.5488C5.25145 11.2353 5.25145 10.7271 4.938 10.4137C4.62463 10.1004 4.11667 10.1004 3.80305 10.4137Z" fill="white"/>
<path d="M7.93711 4.12752C8.38034 4.12752 8.73977 3.76816 8.73977 3.32485V0.802586C8.73977 0.359354 8.38042 0 7.93711 0C7.49396 0 7.13452 0.359273 7.13452 0.802586V3.32493C7.13452 3.76816 7.49387 4.12752 7.93711 4.12752Z" fill="white"/>
<path d="M10.9813 5.1722C11.1868 5.1722 11.3921 5.09381 11.5488 4.93713L13.3321 3.15377C13.6456 2.84032 13.6456 2.33212 13.3321 2.01866C13.0187 1.70537 12.5104 1.70537 12.1971 2.01866L10.4138 3.8021C10.1003 4.11555 10.1003 4.62375 10.4138 4.93713C10.5706 5.09381 10.7759 5.1722 10.9813 5.1722Z" fill="white"/>
</svg>
