<svg width="16" height="16" viewBox="0 0 16 16" fill="none" xmlns="http://www.w3.org/2000/svg">
<path d="M11.057 16H4.94328C2.22893 16 0.0246544 13.7921 0.0246544 11.0814V5.6964C0.0246544 2.98204 2.23257 0.777771 4.94328 0.777771H11.057C13.7677 0.777771 15.9756 2.98569 15.9756 5.6964V11.0814C15.9756 13.7957 13.7677 16 11.057 16ZM4.94692 1.86717C2.83738 1.86717 1.12133 3.58323 1.12133 5.69277V11.0777C1.12133 13.1873 2.83738 14.9033 4.94692 14.9033H11.0606C13.1701 14.9033 14.8862 13.1873 14.8862 11.0777V5.69277C14.8862 3.58323 13.1701 1.86717 11.0606 1.86717H4.94692Z" fill="#FDCB02"/>
<path d="M8.00069 12.7647C5.58509 12.7647 3.62129 10.8009 3.62129 8.3853C3.62129 5.96971 5.58509 4.00592 8.00069 4.00592C10.4163 4.00592 12.3801 5.96971 12.3801 8.3853C12.3801 10.8009 10.4163 12.7647 8.00069 12.7647ZM8.00069 5.10257C6.1899 5.10257 4.71432 6.57817 4.71432 8.38895C4.71432 10.1997 6.1899 11.6753 8.00069 11.6753C9.81147 11.6753 11.2871 10.1997 11.2871 8.38895C11.2871 6.57817 9.81147 5.10257 8.00069 5.10257Z" fill="#FDCB02"/>
<path d="M13.2213 4.14438C13.2213 4.64718 12.8132 5.05159 12.314 5.05159C11.8149 5.05159 11.4068 4.64353 11.4068 4.14438C11.4068 3.64523 11.8149 3.23715 12.314 3.23715C12.8132 3.23715 13.2213 3.64523 13.2213 4.14438Z" fill="#FDCB02"/>
</svg>
