<svg width="43" height="43" viewBox="0 0 43 43" fill="none" xmlns="http://www.w3.org/2000/svg">
<path fill-rule="evenodd" clip-rule="evenodd" d="M21.9415 0.398193C20.6831 1.30704 19.4421 2.23333 18.2187 3.21208C17.3623 3.87624 16.5059 4.55789 15.667 5.257C13.4823 7.07469 11.4024 9.01471 9.42745 11.0421C7.43498 13.0695 5.56481 15.2018 3.79956 17.4215C4.06173 17.5788 4.32391 17.7361 4.58608 17.8934C6.33385 18.942 8.01174 20.0781 9.63717 21.3016C11.0703 20.2354 12.4511 19.0994 13.7969 17.9109C15.3 16.5651 16.7506 15.1319 18.1138 13.6288C19.4946 12.1257 20.788 10.5702 21.9939 8.94478C23.1999 7.31935 24.3535 5.64151 25.4021 3.89374C25.5419 3.64905 25.6817 3.42184 25.8216 3.17715C24.5632 2.21587 23.2698 1.307 21.9415 0.415635V0.398193Z" fill="#6F46B9"/>
<path fill-rule="evenodd" clip-rule="evenodd" d="M3.80071 17.4219C2.82195 18.6977 1.89566 20.0086 0.986816 21.3369C1.91314 22.6127 2.85696 23.8711 3.85319 25.0946C4.51734 25.951 5.21644 26.7899 5.91555 27.6289C7.75071 29.7961 9.70827 31.8585 11.7532 33.8334C13.7981 35.8084 15.9303 37.6786 18.1675 39.4263C18.3073 39.1817 18.4471 38.9544 18.6044 38.7097C19.6531 36.962 20.7891 35.2841 22.0126 33.6587C20.9464 32.2255 19.8104 30.8448 18.6219 29.499C17.2586 27.9959 15.8429 26.5453 14.3398 25.182C12.8542 23.8187 11.2812 22.5079 9.65581 21.3019C8.04786 20.0785 6.35249 18.9424 4.60472 17.8938C4.34255 17.7365 4.08037 17.5792 3.8182 17.4219H3.80071Z" fill="#FABF03"/>
<path fill-rule="evenodd" clip-rule="evenodd" d="M25.8219 3.15979C25.6821 3.40448 25.5423 3.6317 25.4024 3.87638C24.3538 5.62416 23.2177 7.30199 21.9943 8.92742C23.0604 10.3606 24.1965 11.7413 25.4024 13.0871C26.7482 14.5902 28.1814 16.0409 29.667 17.4041C31.1701 18.7674 32.7256 20.0782 34.351 21.2842C35.9765 22.5076 37.6542 23.6437 39.402 24.6924C39.6642 24.8497 39.9264 25.007 40.1885 25.1643C41.1673 23.8884 42.0937 22.5776 43.0025 21.2493C42.0762 19.9734 41.1149 18.715 40.1362 17.4916C39.472 16.6351 38.7729 15.7962 38.0738 14.9573C36.2212 12.79 34.2986 10.7277 32.2362 8.75269C30.1913 6.7777 28.0415 4.90756 25.8044 3.15979H25.8219Z" fill="#FABF03"/>
<path fill-rule="evenodd" clip-rule="evenodd" d="M34.3695 21.2844C32.9363 22.3506 31.5555 23.4866 30.2272 24.6926C28.7241 26.0384 27.2735 27.4715 25.8927 28.9746C24.5295 30.4777 23.2362 32.0333 22.0127 33.6587C20.7893 35.2841 19.6707 36.962 18.6045 38.7097C18.4647 38.9544 18.3249 39.1816 18.1676 39.4263C19.4435 40.3876 20.7368 41.2964 22.0476 42.1878C23.306 41.2789 24.5469 40.3526 25.7704 39.3739C26.6443 38.7097 27.4832 38.0281 28.3222 37.329C30.5069 35.5113 32.5867 33.5713 34.5617 31.5438C36.5542 29.5164 38.4243 27.3842 40.1895 25.1645C39.9273 25.0072 39.6652 24.8499 39.403 24.6926C37.6552 23.6439 35.9774 22.5079 34.352 21.2844H34.3695Z" fill="#6F46B9"/>
</svg>
