<svg width="43" height="43" viewBox="0 0 43 43" fill="none" xmlns="http://www.w3.org/2000/svg">
<path fill-rule="evenodd" clip-rule="evenodd" d="M37.1036 24.6645C37.1036 24.6645 37.191 24.8217 37.2259 24.9091C37.3832 25.1888 37.5231 25.4685 37.6455 25.7481C37.7678 26.0452 37.8726 26.3423 37.9774 26.6394C38.0648 26.9365 38.1522 27.2511 38.2222 27.5483C38.2921 27.8454 38.327 28.1775 38.362 28.4921C38.3795 28.8067 38.4144 29.1213 38.4144 29.4359C38.4144 29.6456 38.4145 29.8728 38.3795 30.1001C38.362 30.4147 38.3271 30.7292 38.2746 31.0438C38.2222 31.3584 38.1523 31.6556 38.0649 31.9702C37.9775 32.2848 37.8726 32.5818 37.7677 32.879C37.6454 33.1761 37.5231 33.4558 37.3833 33.7355C37.2434 34.0151 37.0861 34.2947 36.9113 34.5569C36.7365 34.819 36.5618 35.0812 36.352 35.3259C36.1598 35.5706 35.9501 35.8152 35.7228 36.0424C35.5131 36.2696 35.2684 36.4794 35.0412 36.6891C34.7965 36.8988 34.5518 37.0911 34.2897 37.2659C34.0275 37.4407 33.7654 37.6155 33.4858 37.7728C33.2061 37.9301 32.9264 38.0524 32.6293 38.1923C32.3496 38.3146 32.0351 38.4195 31.738 38.5243C31.4409 38.6117 31.1262 38.6991 30.8116 38.7516C30.497 38.804 30.1999 38.8563 29.8853 38.8913C29.5707 38.9263 29.2561 38.9438 28.9415 38.9438C28.8541 38.9438 28.7842 38.9438 28.6968 38.9438C28.3822 38.9438 28.0676 38.9088 27.753 38.8738C27.4384 38.8389 27.1238 38.769 26.8092 38.7166C26.4946 38.6467 26.1975 38.5592 25.9004 38.4544C25.6032 38.3495 25.3061 38.2447 25.0265 38.1049C24.7294 37.9651 24.4497 37.8252 24.1701 37.6679C23.9254 37.9825 23.6457 38.2971 23.3661 38.5942C23.069 38.9088 22.7544 39.2234 22.4048 39.5031C22.0727 39.7827 21.7232 40.0623 21.3562 40.307C21.3912 40.3245 21.4261 40.342 21.4436 40.3595C21.8106 40.6216 22.1777 40.8488 22.5622 41.0585C22.9467 41.2683 23.3487 41.4605 23.7506 41.6353C24.1526 41.8101 24.572 41.9674 24.9915 42.0898C25.411 42.2296 25.848 42.3344 26.2849 42.4218C26.7219 42.5092 27.1588 42.5791 27.5958 42.6316C28.0327 42.6665 28.4696 42.7014 28.924 42.7014C29.2386 42.7014 29.5358 42.7015 29.8504 42.6666C30.2873 42.6316 30.7242 42.5791 31.1612 42.5092C31.5981 42.4393 32.0351 42.3345 32.4545 42.2296C32.874 42.1073 33.2935 41.9675 33.713 41.8102C34.115 41.6529 34.5343 41.4606 34.9188 41.2684C35.3208 41.0761 35.7054 40.8489 36.0724 40.6042C36.4395 40.3595 36.8065 40.1148 37.156 39.8352C37.5056 39.5555 37.8377 39.2759 38.1523 38.9613C38.4669 38.6467 38.7815 38.332 39.0612 37.9999C39.3408 37.6678 39.6204 37.3183 39.8651 36.9513C40.1098 36.5843 40.337 36.2172 40.5467 35.8327C40.7565 35.4482 40.9487 35.0462 41.1235 34.6442C41.2983 34.2422 41.4381 33.8228 41.578 33.4034C41.7003 32.9839 41.8225 32.5644 41.9099 32.1274C41.9973 31.6905 42.0673 31.2535 42.1023 30.8166C42.1372 30.3797 42.1721 29.9427 42.1721 29.5058V29.3485C42.1721 28.9116 42.1372 28.4571 42.0848 28.0202C42.0323 27.5833 41.9624 27.1463 41.875 26.7094C41.7702 26.2724 41.6653 25.853 41.5255 25.4335C41.3856 25.0141 41.2283 24.5946 41.0535 24.1926C40.8788 23.7906 40.6866 23.3886 40.4594 23.0041C40.2496 22.6196 40.0049 22.2525 39.7602 21.8855C39.5155 22.2176 39.2533 22.5671 38.9912 22.8817C38.7115 23.2138 38.397 23.5459 38.0824 23.843C37.7678 24.1576 37.4182 24.4372 37.0862 24.7169L37.1036 24.6645Z" fill="#00C680"/>
<path fill-rule="evenodd" clip-rule="evenodd" d="M5.57303 24.6819C5.24096 24.4197 4.9264 24.1576 4.62928 23.878C4.31468 23.5634 4.00004 23.2488 3.7204 22.9167C3.44076 22.5847 3.16107 22.2351 2.91638 21.8855C2.89891 21.9205 2.86397 21.9554 2.82902 22.0079C2.58433 22.3749 2.35718 22.7419 2.12997 23.1265C1.92024 23.511 1.72795 23.9129 1.55318 24.3149C1.3784 24.7169 1.22107 25.1363 1.08124 25.5558C0.9589 25.9752 0.836551 26.4123 0.749163 26.8492C0.661774 27.2862 0.591889 27.7231 0.556933 28.1601C0.5045 28.597 0.487061 29.0338 0.487061 29.4883C0.487061 29.8029 0.486988 30.1001 0.521943 30.4321C0.556899 30.8691 0.609379 31.306 0.67929 31.743C0.749201 32.1799 0.85402 32.6168 0.958887 33.0363C1.08123 33.4558 1.22114 33.8752 1.37844 34.2946C1.53574 34.6966 1.71051 35.0986 1.92025 35.5006C2.1125 35.9026 2.33962 36.2872 2.5843 36.6542C2.82899 37.0212 3.07368 37.3883 3.35333 37.7378C3.63297 38.0874 3.91262 38.4195 4.22721 38.7341C4.54181 39.0487 4.85641 39.3632 5.20596 39.6428C5.53804 39.9225 5.88768 40.2022 6.27219 40.4468C6.63922 40.6915 7.00617 40.9363 7.39068 41.146C7.77519 41.3557 8.17727 41.5479 8.57926 41.7227C8.99873 41.8975 9.40065 42.0373 9.82011 42.1771C10.2396 42.2995 10.6765 42.4218 11.1134 42.5092C11.5504 42.5966 11.9873 42.6665 12.4243 42.7014C12.8612 42.7539 13.2982 42.7714 13.7526 42.7714H13.8925C14.3294 42.7714 14.7664 42.7365 15.2208 42.684C15.6577 42.6316 16.0947 42.5617 16.5316 42.4743C16.9686 42.3869 17.388 42.2646 17.8074 42.1247C18.2269 42.0024 18.6464 41.8451 19.0484 41.6528C19.4504 41.478 19.8524 41.2857 20.2369 41.0585C20.6214 40.8488 21.0058 40.6042 21.3729 40.3595C21.0233 40.1148 20.6913 39.8701 20.3767 39.6079C20.0272 39.3283 19.7125 39.0137 19.4154 38.7166C19.1008 38.402 18.8211 38.0524 18.5415 37.7203C18.4716 37.7553 18.3842 37.8077 18.3143 37.8427C18.0346 38 17.755 38.1398 17.4754 38.2621C17.1782 38.3845 16.8811 38.4893 16.584 38.5942C16.2869 38.6816 15.9723 38.769 15.6752 38.8214C15.3606 38.8913 15.0459 38.9438 14.7314 38.9613C14.4168 38.9962 14.1022 39.0137 13.7876 39.0137C13.5604 39.0137 13.3506 39.0137 13.1234 38.9788C12.8088 38.9613 12.4943 38.9088 12.1797 38.8738C11.8651 38.8214 11.5504 38.7515 11.2533 38.6641C10.9387 38.5767 10.6415 38.4719 10.3444 38.367C10.0473 38.2621 9.76766 38.1224 9.47054 37.9825C9.19089 37.8427 8.9113 37.6854 8.64913 37.5106C8.38697 37.3358 8.1248 37.161 7.88011 36.9513C7.63542 36.759 7.39078 36.5493 7.16357 36.3221C6.93636 36.0949 6.72653 35.8677 6.51679 35.6405C6.32454 35.3958 6.13236 35.1511 5.94011 34.8889C5.76533 34.6268 5.60798 34.3646 5.45068 34.0849C5.29338 33.8053 5.17107 33.5257 5.04872 33.2285C4.92638 32.9489 4.82151 32.6343 4.71664 32.3372C4.61178 32.04 4.54186 31.7255 4.48942 31.4109C4.41951 31.0963 4.38453 30.7816 4.34957 30.4845C4.31462 30.1699 4.29719 29.8554 4.29719 29.5408C4.29719 29.4534 4.29719 29.3659 4.29719 29.2785C4.29719 28.9639 4.33211 28.6494 4.36707 28.3348C4.40202 28.0202 4.47198 27.7056 4.52441 27.391C4.59432 27.0764 4.68165 26.7793 4.78652 26.4822C4.89138 26.185 4.99627 25.8879 5.13609 25.6083C5.25844 25.3111 5.41573 25.049 5.57303 24.7694V24.6819Z" fill="#00C680"/>
<path fill-rule="evenodd" clip-rule="evenodd" d="M21.322 3.4294C21.6716 3.65661 22.0037 3.91877 22.3183 4.18093C22.6678 4.46058 22.9824 4.77521 23.2795 5.08981C23.5941 5.40441 23.8738 5.7365 24.1534 6.08605C24.2233 6.0511 24.3107 5.99865 24.3806 5.9637C24.6603 5.8064 24.9399 5.66659 25.2195 5.54425C25.5166 5.4219 25.8138 5.31703 26.1109 5.21216C26.408 5.12478 26.7227 5.03736 27.0198 4.96745C27.3344 4.89754 27.6489 4.86255 27.9635 4.8276C28.2781 4.79264 28.5928 4.77522 28.9074 4.77522C29.1171 4.77522 29.3443 4.77515 29.5715 4.8101C29.8861 4.82758 30.2007 4.86253 30.5153 4.91497C30.8299 4.9674 31.127 5.0373 31.4416 5.12469C31.7562 5.21208 32.0533 5.31702 32.3505 5.42189C32.6476 5.54423 32.9272 5.66653 33.2069 5.80635C33.4865 5.94617 33.7662 6.1035 34.0284 6.27828C34.2905 6.45306 34.5527 6.62785 34.7974 6.83758C35.0421 7.02984 35.2867 7.23954 35.5139 7.46675C35.7411 7.69397 35.9509 7.92122 36.1606 8.16591C36.3703 8.41059 36.5626 8.65527 36.7374 8.91744C36.9122 9.1796 37.0869 9.4417 37.2267 9.72134C37.384 10.001 37.5064 10.2807 37.6288 10.5778C37.7511 10.8575 37.856 11.172 37.9609 11.4691C38.0483 11.7662 38.1356 12.0809 38.1881 12.378C38.258 12.6926 38.2929 13.0072 38.3278 13.3218C38.3628 13.6364 38.3803 13.951 38.3803 14.2656C38.3803 14.353 38.3803 14.4403 38.3803 14.5277C38.3803 14.8423 38.3453 15.157 38.3103 15.4716C38.2754 15.7862 38.2055 16.1007 38.1531 16.3979C38.0832 16.7125 37.9957 17.0096 37.8909 17.3067C37.786 17.6038 37.6811 17.901 37.5413 18.1806C37.4015 18.4603 37.2617 18.7399 37.1044 19.0195C37.4364 19.2817 37.7511 19.5439 38.0482 19.8235C38.3628 20.1381 38.6775 20.4527 38.9571 20.7848C39.2542 21.1169 39.5163 21.4664 39.7785 21.8334C39.8135 21.7984 39.8309 21.7636 39.8659 21.7112C40.1106 21.3441 40.3378 20.977 40.5475 20.5751C40.7747 20.1905 40.967 19.806 41.1243 19.3866C41.2991 18.9846 41.4564 18.5651 41.5788 18.1456C41.7186 17.7262 41.8234 17.3067 41.9107 16.8698C41.9981 16.4328 42.0681 15.9959 42.1031 15.559C42.1555 15.122 42.1729 14.6851 42.1729 14.2306C42.1729 13.916 42.1729 13.6015 42.138 13.2869C42.103 12.8499 42.0506 12.413 41.9807 11.976C41.9108 11.5391 41.8059 11.1022 41.701 10.6827C41.5787 10.2632 41.4389 9.82624 41.2816 9.42425C41.1243 9.00479 40.9495 8.60279 40.7398 8.21828C40.5475 7.8163 40.3203 7.44931 40.0756 7.0648C39.8309 6.69777 39.5862 6.33074 39.3066 5.98119C39.0269 5.63164 38.7473 5.29955 38.4327 4.98495C38.1181 4.67035 37.8035 4.35571 37.4714 4.07607C37.1219 3.79643 36.7723 3.51674 36.4053 3.27206C36.0383 3.02737 35.6537 2.80024 35.2692 2.5905C34.8847 2.38077 34.4827 2.18849 34.0807 2.01371C33.6788 1.83893 33.2594 1.69909 32.8399 1.55927C32.4204 1.41945 31.9834 1.31458 31.5639 1.22719C31.127 1.1398 30.6901 1.06992 30.2531 1.03496C29.8162 0.982527 29.3617 0.965088 28.9248 0.965088H28.8024C28.3655 0.965088 27.9286 1.00002 27.4742 1.05246C27.0373 1.10489 26.6003 1.17479 26.1634 1.26218C25.7264 1.34957 25.3069 1.47193 24.8874 1.61176C24.468 1.7341 24.0486 1.89133 23.6466 2.08358C23.2446 2.25836 22.8426 2.45066 22.4581 2.67787C22.0736 2.8876 21.6891 3.13223 21.3395 3.37692L21.322 3.4294Z" fill="#00C680"/>
<path fill-rule="evenodd" clip-rule="evenodd" d="M13.7538 1.05212C13.4392 1.05212 13.1246 1.05205 12.8275 1.08701C12.3906 1.12196 11.9536 1.17444 11.5167 1.24435C11.0797 1.31426 10.6428 1.4191 10.2234 1.54145C9.80389 1.66379 9.38437 1.80359 8.9649 1.96089C8.54544 2.11819 8.14344 2.31044 7.75893 2.5027C7.35695 2.69495 6.98996 2.92217 6.60545 3.16686C6.23842 3.41155 5.87139 3.65624 5.52184 3.93589C5.17228 4.21553 4.84019 4.49517 4.5256 4.80977C4.211 5.12437 3.91386 5.43906 3.63421 5.77113C3.35457 6.12069 3.07489 6.4702 2.8302 6.81976C2.56803 7.18679 2.35836 7.55386 2.13115 7.95585C1.92142 8.34036 1.72914 8.74234 1.55436 9.14432C1.37958 9.54631 1.22226 9.96571 1.09992 10.3852C0.977576 10.8046 0.855228 11.2242 0.767839 11.6611C0.680451 12.0981 0.610565 12.535 0.57561 12.972C0.540654 13.4089 0.505737 13.8458 0.505737 14.2828C0.505737 14.3352 0.505737 14.3876 0.505737 14.44C0.505737 14.877 0.540671 15.3139 0.593105 15.7509C0.645538 16.1878 0.71544 16.6247 0.802829 17.0617C0.890218 17.4986 1.01258 17.9181 1.15241 18.3375C1.29223 18.757 1.44945 19.159 1.62423 19.5785C1.79901 19.9805 2.00879 20.3824 2.21852 20.767C2.42825 21.1515 2.6729 21.5185 2.93506 21.8856C3.17975 21.536 3.44192 21.2039 3.70409 20.8893C3.98373 20.5572 4.29836 20.2252 4.61296 19.9281C4.92756 19.6309 5.27715 19.3338 5.6267 19.0542C5.57427 18.9843 5.53928 18.8969 5.48685 18.827C5.32955 18.5473 5.18974 18.2677 5.0674 17.9881C4.94506 17.6909 4.84019 17.3938 4.73532 17.0967C4.64793 16.7996 4.56052 16.4849 4.49061 16.1878C4.42069 15.8732 4.38571 15.5586 4.35075 15.244C4.3158 14.9294 4.29838 14.6148 4.29838 14.3002C4.29838 14.073 4.29839 13.8633 4.31587 13.6361C4.33335 13.3215 4.3683 13.0068 4.42073 12.6922C4.47317 12.3776 4.54307 12.0806 4.63046 11.766C4.71785 11.4514 4.82268 11.1542 4.92755 10.8571C5.04989 10.56 5.17229 10.2803 5.31211 9.98322C5.45194 9.70358 5.60916 9.42388 5.78394 9.16171C5.95872 8.89955 6.13351 8.63748 6.34324 8.39279C6.5355 8.14811 6.7452 7.90336 6.97241 7.67615C7.19963 7.44894 7.42688 7.23921 7.67157 7.02948C7.91625 6.83722 8.16093 6.64494 8.4231 6.45268C8.68526 6.27791 8.94747 6.10319 9.22711 5.96336C9.50675 5.80606 9.78638 5.68365 10.0835 5.5613C10.3631 5.43896 10.6778 5.33409 10.9749 5.22922C11.272 5.14183 11.5865 5.05454 11.8837 5.00211C12.1983 4.9322 12.5129 4.89721 12.8275 4.86226C13.1421 4.8273 13.4567 4.80977 13.7713 4.80977C13.8587 4.80977 13.9286 4.80977 14.016 4.80977C14.3306 4.80977 14.6452 4.8448 14.9598 4.87975C15.2744 4.91471 15.589 4.98458 15.8861 5.05449C16.2007 5.1244 16.4978 5.21183 16.7949 5.3167C17.092 5.42156 17.3891 5.52634 17.6688 5.66616C17.9659 5.78851 18.2456 5.94581 18.5078 6.10311C18.77 5.78851 19.032 5.47397 19.3117 5.17684C19.6088 4.86224 19.941 4.54761 20.2731 4.26797C20.6051 3.98832 20.9546 3.70875 21.3217 3.46406C21.3042 3.44658 21.2693 3.42904 21.2343 3.39408C20.8673 3.13191 20.4827 2.90477 20.1157 2.69504C19.7312 2.4853 19.3292 2.29302 18.9272 2.11824C18.5252 1.94346 18.1057 1.78615 17.6863 1.6638C17.2668 1.54146 16.8474 1.41911 16.3929 1.33172C15.956 1.24433 15.5191 1.17443 15.0821 1.122C14.6452 1.08704 14.2082 1.05212 13.7538 1.05212Z" fill="#00C680"/>
<path fill-rule="evenodd" clip-rule="evenodd" d="M37.1041 24.6643C37.4536 24.4021 37.7857 24.105 38.1003 23.7904C38.4149 23.4933 38.7121 23.1786 39.0092 22.8291C39.2889 22.5145 39.5336 22.1649 39.7782 21.8328C39.5336 21.4658 39.254 21.1163 38.9568 20.7842C38.6772 20.4521 38.3626 20.1375 38.048 19.8229C37.7508 19.5433 37.4362 19.2636 37.1041 19.0189C36.9468 19.2986 36.772 19.5608 36.5798 19.8054C36.3875 20.0676 36.1953 20.3123 35.9856 20.5395C35.7759 20.7842 35.5486 20.9939 35.3214 21.2211C35.0942 21.4309 34.8496 21.6406 34.5874 21.8328C34.8321 22.0251 35.0942 22.2349 35.3214 22.4446C35.5486 22.6543 35.7759 22.8816 35.9856 23.1263C36.1953 23.3535 36.3875 23.5981 36.5798 23.8603C36.7546 24.1225 36.9293 24.3846 37.1041 24.6468V24.6643Z" fill="#038B8B"/>
<path fill-rule="evenodd" clip-rule="evenodd" d="M18.5245 37.6151C18.8042 37.9647 19.0838 38.2967 19.3984 38.6113C19.713 38.9259 20.0276 39.2231 20.3597 39.5027C20.6743 39.7649 21.0064 40.027 21.3559 40.2543C21.723 40.0096 22.0725 39.7299 22.4045 39.4502C22.7541 39.1706 23.0687 38.8561 23.3658 38.5415C23.6629 38.2444 23.9251 37.9297 24.1698 37.6151C23.8902 37.4578 23.628 37.283 23.3833 37.0908C23.1211 36.916 22.8765 36.7062 22.6493 36.4965C22.4046 36.2868 22.1948 36.0596 21.9676 35.8323C21.7579 35.6051 21.5482 35.3605 21.3559 35.1158V35.0808C21.1462 35.3255 20.9539 35.5702 20.7266 35.8148C20.5169 36.0421 20.2898 36.2693 20.0451 36.479C19.8179 36.6887 19.5731 36.881 19.3109 37.0733C19.0663 37.2481 18.7867 37.4228 18.5245 37.5976V37.6151Z" fill="#038B8B"/>
<path fill-rule="evenodd" clip-rule="evenodd" d="M5.57325 24.6817C5.73055 24.4021 5.9053 24.14 6.09756 23.8778C6.28981 23.6331 6.48211 23.3884 6.69185 23.1437C6.90158 22.9165 7.1288 22.6893 7.35601 22.4621C7.58322 22.2524 7.82788 22.0601 8.09004 21.8678C7.84536 21.6756 7.6007 21.4659 7.35601 21.2562C7.1288 21.0464 6.90158 20.8192 6.69185 20.5745C6.48211 20.3473 6.28981 20.1026 6.09756 19.8405C5.9053 19.5958 5.74802 19.3161 5.57325 19.054C5.22369 19.3161 4.89159 19.6132 4.55951 19.9103C4.24491 20.2249 3.94786 20.5395 3.65074 20.8716C3.37109 21.1862 3.10892 21.5183 2.88171 21.8678C3.1264 22.2349 3.40598 22.5845 3.68562 22.8991C3.98274 23.2312 4.2799 23.5632 4.5945 23.8603C4.89162 24.14 5.20618 24.4197 5.53826 24.6643L5.57325 24.6817Z" fill="#038B8B"/>
<path fill-rule="evenodd" clip-rule="evenodd" d="M21.3215 3.42896C20.9544 3.67364 20.6049 3.95333 20.2728 4.23297C19.9408 4.51261 19.6086 4.82714 19.3115 5.14174C19.0318 5.43886 18.7523 5.75353 18.5076 6.08561C18.7872 6.2429 19.0494 6.41766 19.2941 6.60992C19.5388 6.80217 19.8009 6.99437 20.0281 7.2041C20.2728 7.41383 20.5 7.64105 20.7098 7.86826C20.9195 8.09547 21.1292 8.34022 21.3215 8.58491V8.61979C21.5312 8.35763 21.7234 8.11297 21.9506 7.88576C22.1604 7.65855 22.3876 7.43133 22.6323 7.22159C22.8595 7.01186 23.1042 6.81967 23.3663 6.62741C23.611 6.45263 23.8907 6.27777 24.1528 6.10299C23.8732 5.75344 23.5936 5.42146 23.279 5.10686C22.9644 4.79226 22.6498 4.4951 22.3177 4.19798C22.0031 3.93581 21.671 3.67366 21.3215 3.44645V3.42896Z" fill="#038B8B"/>
<path fill-rule="evenodd" clip-rule="evenodd" d="M13.7536 19.9628C13.439 19.9628 13.1244 19.9802 12.8098 20.0151C12.4952 20.0501 12.1807 20.0851 11.8661 20.155C11.5515 20.2249 11.2543 20.2948 10.9572 20.3822C10.6601 20.4871 10.3629 20.592 10.0658 20.7143C9.76869 20.8366 9.48906 20.9764 9.20942 21.1337C8.92978 21.291 8.66757 21.4483 8.40541 21.6231C8.30054 21.693 8.19569 21.7804 8.09082 21.8503C8.35299 22.0425 8.5977 22.2173 8.87734 22.3921C9.15698 22.5494 9.41912 22.7067 9.71624 22.829C9.99588 22.9689 10.293 23.0912 10.5901 23.1961C10.8872 23.301 11.1844 23.3883 11.499 23.4757C11.8136 23.5456 12.1281 23.6156 12.4253 23.6505C12.7399 23.703 13.0545 23.7204 13.3691 23.7379C13.4915 23.7379 13.6138 23.7379 13.7536 23.7379C14.0682 23.7379 14.3829 23.738 14.6975 23.6855C15.0121 23.6506 15.3266 23.5981 15.6412 23.5457C15.9383 23.4758 16.253 23.4059 16.5501 23.3185C16.8123 23.2311 17.0743 23.1436 17.3365 23.0388C17.4588 22.9863 17.5637 22.9514 17.6861 22.899C17.9657 22.7592 18.2454 22.6194 18.5251 22.4621C18.8047 22.3048 19.0668 22.1299 19.3115 21.9551C19.3465 21.9202 19.3814 21.9027 19.4164 21.8678C19.1542 21.6755 18.8921 21.5008 18.6299 21.3435C18.595 21.3085 18.5425 21.2911 18.5076 21.2736C18.3852 21.2212 18.2804 21.1512 18.1755 21.0988C17.8959 20.9415 17.6162 20.8191 17.3191 20.6968C17.022 20.5745 16.7249 20.4696 16.4277 20.3822C16.1306 20.2948 15.816 20.2249 15.5014 20.155C15.2042 20.0851 14.8897 20.0501 14.5576 20.0326C14.278 20.0152 14.0158 19.9977 13.7536 19.9977V19.9628Z" fill="#038B8B"/>
<path fill-rule="evenodd" clip-rule="evenodd" d="M21.339 8.6027C21.1468 8.84739 20.972 9.10947 20.8147 9.38911C20.6574 9.66876 20.5001 9.931 20.3603 10.2281C20.2379 10.5078 20.1156 10.8049 19.9932 11.102C19.8884 11.3991 19.801 11.6962 19.7136 12.0108C19.6437 12.3254 19.5737 12.64 19.5388 12.9371C19.4864 13.2517 19.4689 13.5663 19.4514 13.8809C19.4514 14.0032 19.4514 14.1431 19.4514 14.2655C19.4514 14.5801 19.4515 14.8946 19.5039 15.2092C19.5389 15.5238 19.5737 15.8384 19.6436 16.153C19.7136 16.4676 19.7835 16.7647 19.8709 17.0619C19.9583 17.3415 20.0632 17.6212 20.1681 17.8834C20.203 17.9882 20.2554 18.0931 20.3078 18.198C20.4476 18.4776 20.5875 18.7572 20.7448 19.0369C20.9021 19.3165 21.0768 19.5787 21.2691 19.8409C21.304 19.8583 21.3216 19.9108 21.339 19.9282C21.5313 19.6836 21.7061 19.4039 21.8634 19.1417C21.8808 19.1068 21.8983 19.0718 21.9332 19.0194C21.9857 18.9145 22.0556 18.8096 22.1081 18.7048C22.2654 18.4251 22.3877 18.1455 22.51 17.8484C22.6324 17.5513 22.7372 17.2541 22.8246 16.957C22.912 16.6599 22.9994 16.3453 23.0518 16.0307C23.1217 15.7161 23.1567 15.4015 23.1917 15.0869C23.2092 14.8072 23.2267 14.5276 23.2267 14.248C23.2267 13.9334 23.2266 13.6188 23.1742 13.3042C23.1392 12.9896 23.1042 12.6749 23.0343 12.3603C22.9644 12.0457 22.8945 11.7487 22.8071 11.4516C22.7022 11.1545 22.5974 10.8573 22.475 10.5602C22.3527 10.2631 22.2129 9.98345 22.0556 9.70381C21.8983 9.42416 21.741 9.16196 21.5663 8.89979C21.4963 8.79493 21.409 8.69007 21.339 8.58521V8.6027Z" fill="#038B8B"/>
<path fill-rule="evenodd" clip-rule="evenodd" d="M21.339 23.7732C21.1468 24.0179 20.972 24.2975 20.8147 24.5597C20.7973 24.5947 20.7797 24.6295 20.7448 24.682C20.6923 24.7868 20.6224 24.8918 20.57 24.9967C20.4302 25.2763 20.2904 25.5559 20.1681 25.853C20.0457 26.1502 19.9408 26.4473 19.8534 26.7444C19.766 27.0416 19.6786 27.3561 19.6262 27.6707C19.5562 27.9853 19.5214 28.2999 19.4864 28.6145C19.4515 28.8941 19.4514 29.1738 19.4514 29.4535C19.4514 29.7681 19.4515 30.0826 19.5039 30.3972C19.5389 30.7118 19.5737 31.0265 19.6436 31.3236C19.7136 31.6382 19.7835 31.9353 19.8709 32.2499C19.9757 32.547 20.0806 32.8441 20.2029 33.1412C20.3253 33.4384 20.4651 33.718 20.6224 33.9976C20.7797 34.2773 20.937 34.5395 21.1118 34.8016C21.1817 34.9065 21.2691 35.0114 21.339 35.1162C21.5313 34.8541 21.7061 34.6094 21.8634 34.3297C22.0207 34.0501 22.178 33.7879 22.3003 33.4908C22.4401 33.2112 22.5625 32.914 22.6674 32.6169C22.7722 32.3198 22.8596 32.0226 22.947 31.708C23.0169 31.3934 23.0867 31.0789 23.1217 30.7818C23.1741 30.4672 23.1917 30.1525 23.2092 29.8379C23.2092 29.7156 23.2092 29.5758 23.2092 29.4535C23.2092 29.1389 23.2091 28.8242 23.1567 28.5096C23.1217 28.195 23.0693 27.8804 23.0168 27.5658C22.9469 27.2512 22.8771 26.9541 22.7897 26.657C22.7023 26.3773 22.5974 26.0977 22.4925 25.8356C22.4576 25.7307 22.4052 25.6258 22.3528 25.521C22.213 25.2413 22.0731 24.9616 21.9158 24.682C21.7585 24.4023 21.5837 24.1577 21.3914 23.8956C21.3565 23.8781 21.339 23.843 21.3215 23.8081L21.339 23.7732Z" fill="#038B8B"/>
<path fill-rule="evenodd" clip-rule="evenodd" d="M28.9238 19.9632C28.6092 19.9632 28.2946 19.9806 27.98 20.0156C27.6654 20.0505 27.3508 20.0855 27.0362 20.1554C26.7216 20.2253 26.4245 20.2952 26.1274 20.3826C25.8652 20.47 25.603 20.5574 25.3408 20.6622C25.2185 20.7147 25.1136 20.7671 24.9913 20.8196C24.7116 20.9594 24.432 21.0992 24.1524 21.2565C23.8727 21.4138 23.6105 21.5886 23.3658 21.7808C23.3309 21.8158 23.2959 21.8332 23.261 21.8507C23.5057 22.0429 23.7853 22.2177 24.0475 22.3925C24.0825 22.41 24.1349 22.445 24.1699 22.4625C24.2747 22.5324 24.3971 22.5848 24.5019 22.6372C24.7816 22.777 25.0612 22.9168 25.3583 23.0392C25.6555 23.1615 25.9526 23.249 26.2497 23.3539C26.5468 23.4412 26.8614 23.5111 27.176 23.581C27.4906 23.6509 27.7878 23.6859 28.1024 23.7033C28.382 23.7208 28.6441 23.7383 28.9238 23.7383C29.2384 23.7383 29.553 23.7384 29.8676 23.6859C30.1822 23.651 30.4968 23.5985 30.7939 23.5461C31.1085 23.4762 31.4231 23.4063 31.7203 23.3189C32.0174 23.2315 32.3145 23.1091 32.6116 22.9868C32.9088 22.8644 33.1884 22.7246 33.468 22.5673C33.7477 22.41 34.0098 22.2527 34.2719 22.0779C34.3768 22.008 34.4818 21.9206 34.5866 21.8507C34.3419 21.6584 34.0798 21.4837 33.8001 21.3089C33.5205 21.1516 33.2582 20.9943 32.9611 20.8544C32.6815 20.7321 32.3843 20.6098 32.0872 20.4875C31.7901 20.3826 31.4931 20.2952 31.1785 20.2078C30.8639 20.1379 30.5492 20.068 30.2521 20.033C29.9375 19.9806 29.6229 19.9632 29.3083 19.9457C29.186 19.9457 29.0636 19.9457 28.9238 19.9457V19.9632Z" fill="#038B8B"/>
</svg>
