<svg width="47" height="41" viewBox="0 0 47 41" fill="none" xmlns="http://www.w3.org/2000/svg">
<path fill-rule="evenodd" clip-rule="evenodd" d="M23.596 0.120964C22.9143 0.15592 22.3026 0.522965 21.953 1.11721L19.0867 6.08088L30.7268 17.7211C36.879 23.8732 37.683 33.3636 33.1562 40.4071H44.6391C46.1946 40.4071 47.1734 38.7293 46.3869 37.3835L25.4486 1.11721C25.0641 0.453054 24.365 0.0685311 23.596 0.120964Z" fill="#6F7AE9"/>
<path fill-rule="evenodd" clip-rule="evenodd" d="M18.0042 9.78613C13.3901 15.5887 13.7047 23.9955 19.0878 29.3787L29.4171 39.708C34.0312 33.9054 33.7166 25.4811 28.351 20.1155L18.0217 9.78613H18.0042Z" fill="#3B4AE2"/>
<path fill-rule="evenodd" clip-rule="evenodd" d="M11.3806 19.4518L1.01617 37.384C0.229669 38.7297 1.20842 40.4076 2.76394 40.4076H25.3278L16.6938 31.7736C13.2856 28.3654 11.5204 23.9261 11.3806 19.4518Z" fill="#1A2DC7"/>
</svg>
