<svg width="42" height="42" viewBox="0 0 42 42" fill="none" xmlns="http://www.w3.org/2000/svg">
<path fill-rule="evenodd" clip-rule="evenodd" d="M9.29689 4.47107C8.7376 4.85558 8.1958 5.27505 7.67147 5.72947C7.14714 6.16641 6.65781 6.63831 6.18591 7.14516C5.74896 7.59958 5.31196 8.08892 4.92745 8.57829C5.34692 8.84046 5.76641 9.10266 6.15092 9.38231C6.55291 9.66195 6.93737 9.97655 7.3044 10.3086C7.67143 10.6407 8.02105 10.9728 8.35313 11.3398C8.68521 11.7068 8.99977 12.0738 9.29689 12.4584V12.4933C9.45419 12.6506 9.55911 12.8079 9.68145 12.9827C9.9611 13.3847 10.2058 13.8042 10.4505 14.2411C10.6952 14.6781 10.9049 15.115 11.0971 15.5694C11.2894 16.0238 11.4641 16.4782 11.604 16.9501C11.7438 17.422 11.8662 17.894 11.971 18.3833C12.0759 18.8552 12.1458 19.3446 12.1983 19.834C12.2507 20.3233 12.2681 20.8127 12.2681 21.3021C12.2681 21.739 12.2506 22.176 12.2156 22.6129C12.1807 23.1023 12.1108 23.5917 12.0059 24.0811C11.9185 24.553 11.7963 25.0423 11.6564 25.5142C11.5166 25.9861 11.3418 26.458 11.167 26.895C11.1321 26.9125 11.0971 26.9299 11.0622 26.9474C10.4679 27.2795 9.87367 27.6465 9.31438 28.031C8.99978 28.2408 8.70263 28.4855 8.40551 28.7127C8.19577 28.87 8.00356 29.0448 7.79383 29.2021C7.2695 29.639 6.76267 30.1109 6.29077 30.6003C5.81887 31.0896 5.34692 31.5965 4.92745 32.1383C4.68277 32.4529 4.45553 32.7675 4.2458 33.0821C4.2458 33.0996 4.2109 33.1345 4.19342 33.1695C3.80891 33.7288 3.44189 34.3055 3.10981 34.9173C2.77773 35.5115 2.4631 36.1407 2.20093 36.7524C1.92129 37.3816 1.69412 38.0283 1.48439 38.675C1.27466 39.3391 1.0998 39.9858 0.959974 40.6674C0.890063 40.9646 0.83769 41.2617 0.802734 41.5588C1.48437 41.454 2.14846 41.3141 2.81261 41.1393C3.47676 40.9645 4.14102 40.7548 4.77021 40.5276C5.41689 40.2829 6.04601 40.0208 6.65773 39.7236C6.93738 39.5838 7.23448 39.444 7.51413 39.2867C7.54908 39.2692 7.58403 39.2517 7.61899 39.2343C8.21323 38.9022 8.80747 38.5352 9.36676 38.1506C9.68136 37.9409 9.97852 37.7137 10.2756 37.469C10.4854 37.3117 10.6777 37.137 10.8874 36.9622C11.4118 36.5252 11.9186 36.0533 12.3905 35.5639C12.8624 35.0745 13.3342 34.5502 13.7537 34.0259C13.9984 33.7113 14.2256 33.3967 14.4353 33.0821C14.4528 33.0472 14.4704 33.0297 14.4878 33.0122C14.8898 32.4529 15.2394 31.8587 15.5714 31.2644C15.9734 31.1071 16.3754 30.9498 16.7774 30.8275C17.2493 30.6876 17.7212 30.5653 18.2106 30.4605C18.6825 30.3556 19.1718 30.2857 19.6612 30.2332C20.1506 30.1808 20.64 30.1633 21.1294 30.1633C21.3216 30.1633 21.5313 30.1633 21.7235 30.1633C22.2129 30.1808 22.7023 30.2332 23.1917 30.3032C23.6811 30.3731 24.153 30.4605 24.6249 30.5828C25.0968 30.7052 25.5687 30.845 26.0406 31.0023C26.495 31.177 26.9494 31.3518 27.4038 31.5616C27.8407 31.7713 28.2778 31.9985 28.6972 32.2607C29.1167 32.5228 29.5186 32.785 29.9031 33.0821C30.3051 33.3792 30.6722 33.6938 31.0392 34.0259C31.4062 34.358 31.7558 34.7075 32.0704 35.0745C32.4025 35.4416 32.6996 35.8261 32.9967 36.2281C33.2763 36.6301 33.556 37.0321 33.8007 37.4515C34.3425 37.0321 34.8669 36.5776 35.3563 36.1057C35.8456 35.6338 36.3175 35.127 36.7545 34.6202C37.1739 34.1308 37.5759 33.6064 37.9604 33.0821C37.5584 32.5228 37.1389 31.981 36.6845 31.4567C36.2475 30.9324 35.7582 30.443 35.2688 29.9711C34.7969 29.5341 34.3076 29.0972 33.8007 28.7127C33.4512 28.433 33.1016 28.1883 32.7346 27.9437C32.1753 27.5591 31.5811 27.1921 30.9868 26.86C30.3926 26.528 29.7634 26.2308 29.1342 25.9687C28.505 25.7065 27.8582 25.4618 27.1941 25.2696C26.5299 25.0598 25.8658 24.9025 25.2017 24.7627C24.5201 24.6229 23.8558 24.518 23.1567 24.4481C22.4751 24.3782 21.7935 24.3432 21.0944 24.3432C20.6924 24.3432 20.3079 24.3607 19.9059 24.3957C19.2243 24.4306 18.5427 24.518 17.861 24.6229C17.9309 24.2034 17.9833 23.784 18.0183 23.3645C18.0882 22.6829 18.1231 22.0012 18.1231 21.3196C18.1231 20.8652 18.1232 20.3932 18.0707 19.9388C18.0183 19.2572 17.9484 18.5756 17.826 17.894C17.7037 17.2123 17.5639 16.5482 17.3891 15.884C17.1968 15.2199 16.9871 14.5732 16.7424 13.9265C16.4977 13.2798 16.2181 12.6681 15.9035 12.0564C15.5889 11.4447 15.2568 10.8504 14.8723 10.2736C14.5053 9.69687 14.1033 9.1376 13.6838 8.59579C13.2644 8.05398 12.8099 7.54712 12.338 7.05774C11.8661 6.56836 11.3593 6.09649 10.8349 5.65954C10.3456 5.24008 9.8387 4.85558 9.29689 4.47107Z" fill="#A9EC33"/>
<path fill-rule="evenodd" clip-rule="evenodd" d="M21.0933 0.747559C21.0933 0.747559 20.971 0.747559 20.901 0.747559C20.2194 0.747559 19.5378 0.800005 18.8562 0.869916C18.1745 0.939826 17.4928 1.06212 16.8112 1.20194C16.1471 1.34177 15.483 1.51657 14.8188 1.72631C14.1721 1.93604 13.5254 2.18074 12.8962 2.4429C12.267 2.72254 11.6553 3.01965 11.0611 3.35172C10.4668 3.6838 9.87258 4.05083 9.3133 4.43534C9.83763 4.80237 10.362 5.20434 10.8513 5.62381C11.3757 6.06075 11.8825 6.53268 12.3544 7.02206C12.8263 7.51144 13.2808 8.0183 13.7002 8.56011C13.8226 8.4902 13.9275 8.43774 14.0498 8.36783C14.4867 8.14062 14.9236 7.91341 15.378 7.72116C15.8324 7.5289 16.2869 7.35411 16.7588 7.21429C17.2307 7.05699 17.7026 6.95214 18.192 6.84727C18.6639 6.7424 19.1532 6.67249 19.6426 6.62005C20.132 6.56762 20.6214 6.55018 21.1108 6.55018C21.4603 6.55018 21.8098 6.55016 22.1594 6.58512C22.6488 6.62007 23.1382 6.67252 23.6276 6.7599C24.0995 6.84729 24.5889 6.95216 25.0608 7.09199C25.5327 7.21433 25.9871 7.37161 26.459 7.56387C26.9134 7.73864 27.3678 7.94837 27.8048 8.1581C28.2417 8.36783 28.6786 8.61255 29.0806 8.89219C29.5001 9.15436 29.9021 9.45146 30.2691 9.74858C30.6536 10.0632 31.0206 10.3778 31.3702 10.7273C31.7197 11.0769 32.0518 11.4265 32.3664 11.7935C32.681 12.1605 32.9782 12.5625 33.2578 12.9645C33.5375 13.3665 33.7822 13.7859 34.0268 14.2054C34.2715 14.6423 34.4813 15.0793 34.6735 15.5337C34.8658 15.9881 35.0405 16.4426 35.1803 16.9145C35.3201 17.3864 35.4425 17.8583 35.5474 18.3477C35.6348 18.8196 35.7222 19.3089 35.7571 19.7983C35.8096 20.2877 35.827 20.777 35.827 21.2664C35.827 21.4062 35.827 21.5286 35.827 21.6684C35.827 22.1578 35.7745 22.6472 35.7046 23.1365C35.6347 23.6259 35.5474 24.1153 35.4425 24.5872C35.3377 25.0591 35.1978 25.531 35.0405 26.0029C34.8832 26.4573 34.7084 26.9292 34.4987 27.3661C34.2889 27.8031 34.0618 28.24 33.8171 28.6769C34.324 29.0789 34.8133 29.4984 35.2852 29.9353C35.792 30.4072 36.2639 30.8966 36.7009 31.421C37.1553 31.9453 37.5748 32.4871 37.9768 33.0464C38.0118 32.9939 38.0641 32.9241 38.0991 32.8716C38.4836 32.3124 38.8507 31.7181 39.1828 31.1239C39.5149 30.5296 39.8119 29.9004 40.0741 29.2712C40.3537 28.642 40.581 27.9954 40.7907 27.3487C41.0004 26.6845 41.1577 26.0378 41.315 25.3562C41.4548 24.692 41.5597 24.0104 41.6296 23.3288C41.6995 22.6471 41.7345 21.948 41.7345 21.2664C41.7345 20.777 41.7345 20.2877 41.6821 19.8158C41.6297 19.1341 41.5422 18.4525 41.4374 17.7884C41.315 17.1067 41.1752 16.4426 40.9829 15.7784C40.7907 15.1143 40.581 14.4676 40.3363 13.8384C40.0916 13.1917 39.7945 12.58 39.4974 11.9682C39.1828 11.3565 38.8332 10.7623 38.4661 10.1855C38.0991 9.60876 37.6971 9.04949 37.2777 8.50768C36.8407 7.96587 36.4037 7.45901 35.9144 6.96963C35.4425 6.48025 34.9356 6.00832 34.4113 5.57138C33.887 5.13443 33.3451 4.71498 32.7684 4.33047C32.2091 3.94596 31.6148 3.57896 31.0031 3.26436C30.4089 2.93228 29.7797 2.63514 29.1505 2.37298C28.5213 2.11081 27.8746 1.86613 27.2105 1.67388C26.5463 1.46414 25.8996 1.30683 25.218 1.16701C24.5364 1.02719 23.8722 0.922332 23.1731 0.852421C22.4915 0.78251 21.8099 0.747559 21.1108 0.747559H21.0933ZM4.92637 8.57755C4.64672 8.94458 4.36713 9.31164 4.10496 9.69615C3.72045 10.2554 3.35343 10.8497 3.02135 11.4439C2.68928 12.0382 2.39214 12.6499 2.12997 13.2966C1.85033 13.9258 1.62306 14.5724 1.41333 15.2191C1.20359 15.8833 1.04633 16.5299 0.906509 17.2116C0.766687 17.8757 0.661834 18.5573 0.591923 19.239C0.522012 19.9206 0.487061 20.6023 0.487061 21.2839C0.487061 21.7034 0.504483 22.1228 0.539438 22.5423C0.591871 23.2239 0.661808 23.9055 0.784152 24.5872C0.889019 25.2688 1.02882 25.9329 1.2036 26.5971C1.37838 27.2612 1.58809 27.908 1.83277 28.5546C2.07746 29.2013 2.33968 29.8305 2.65428 30.4422C2.77663 30.7219 2.91643 30.984 3.07373 31.2462C3.09121 31.2811 3.10865 31.3336 3.1436 31.3685C3.47568 31.9628 3.84272 32.5395 4.24471 33.0988C4.47192 32.7842 4.68168 32.4697 4.92637 32.1551C5.34583 31.6132 5.8003 31.1064 6.28968 30.617C6.76158 30.1276 7.26841 29.6557 7.79274 29.2188C8.00247 29.044 8.19469 28.8867 8.40442 28.7294C8.15973 28.3099 7.9326 27.873 7.72287 27.4185C7.65296 27.2612 7.56556 27.0865 7.49565 26.9292C7.32087 26.5097 7.16356 26.0903 7.04121 25.6533C6.88391 25.1814 6.76153 24.7095 6.67414 24.2201C6.56927 23.7482 6.49935 23.2589 6.44692 22.7695C6.39449 22.2801 6.37705 21.7907 6.37705 21.3013C6.37705 21.1091 6.37705 20.8994 6.37705 20.7071C6.39453 20.2177 6.44699 19.7284 6.5169 19.239C6.58681 18.7496 6.67415 18.2777 6.7965 17.8058C6.91884 17.3339 7.05865 16.862 7.21595 16.3901C7.39072 15.9357 7.56551 15.4813 7.77525 15.0268C7.98498 14.5899 8.21223 14.153 8.4744 13.7335C8.71909 13.314 8.99868 12.912 9.2958 12.51V12.4751C8.9812 12.0906 8.66662 11.7061 8.33455 11.3566C8.00247 10.9895 7.65296 10.6574 7.28593 10.3253C6.91889 9.99325 6.53432 9.69613 6.13233 9.39901C5.73035 9.11936 5.32834 8.83973 4.90887 8.59505L4.92637 8.57755ZM29.8846 33.0814C29.7273 33.2037 29.57 33.326 29.3952 33.4309C28.9932 33.7105 28.5737 33.9727 28.1542 34.1999C27.7173 34.4446 27.2804 34.6543 26.826 34.8466C26.3716 35.0388 25.9171 35.2136 25.4452 35.3535C24.9733 35.4933 24.5014 35.6156 24.012 35.7205C23.5401 35.8079 23.0508 35.8953 22.5614 35.9303C22.0721 35.9827 21.5826 36.0001 21.0933 36.0001C20.6738 36.0001 20.2544 35.9826 19.8349 35.9477C19.3456 35.9127 18.8561 35.8428 18.3667 35.7555C17.8949 35.6681 17.4055 35.5457 16.9336 35.4059C16.4617 35.2661 16.0073 35.1088 15.5529 34.9165C15.0984 34.7243 14.644 34.5145 14.2245 34.2873C14.0498 34.2 13.875 34.1126 13.7002 34.0077C13.2808 34.5495 12.8263 35.0564 12.3369 35.5457C11.865 36.0351 11.3582 36.507 10.8338 36.9439C10.6241 37.1012 10.4319 37.276 10.2222 37.4333C9.92505 37.678 9.62789 37.8878 9.3133 38.115C9.3133 38.115 9.3482 38.1324 9.36567 38.1499C9.92496 38.5344 10.5192 38.9014 11.1134 39.2335C11.7077 39.5656 12.337 39.8627 12.9662 40.1423C13.5954 40.422 14.242 40.6492 14.9062 40.8589C15.5703 41.0687 16.217 41.2435 16.8987 41.3833C17.2133 41.4532 17.5278 41.5056 17.8424 41.5581C18.2269 41.628 18.6289 41.6804 19.0309 41.7154C19.7125 41.7853 20.3942 41.8202 21.0933 41.8202C21.5302 41.8202 21.9672 41.8202 22.4041 41.7678C23.0857 41.7329 23.7848 41.6455 24.449 41.5406C25.1306 41.4182 25.7948 41.2784 26.459 41.1036C27.1231 40.9289 27.7698 40.7191 28.4164 40.4744C29.0631 40.2297 29.6924 39.9501 30.3041 39.6355C30.9158 39.3209 31.51 38.9888 32.0867 38.6218C32.6635 38.2548 33.2403 37.8528 33.7646 37.4333C33.5199 36.9964 33.2403 36.5944 32.9606 36.1924C32.681 35.7904 32.3664 35.4059 32.0344 35.0389C31.7198 34.6718 31.3701 34.3223 31.0031 33.9902C30.6361 33.6581 30.2691 33.3435 29.8671 33.0464L29.8846 33.0814Z" fill="#038B8C"/>
</svg>
