<svg width="41" height="76" viewBox="0 0 41 76" fill="none" xmlns="http://www.w3.org/2000/svg">
<g opacity="0.2">
<path d="M1.33556 2.63954C2.07317 2.63954 2.67113 2.04866 2.67113 1.31977C2.67113 0.590881 2.07317 0 1.33556 0C0.597952 0 0 0.590881 0 1.31977C0 2.04866 0.597952 2.63954 1.33556 2.63954Z" fill="white"/>
<path d="M13.9 2.63954C14.6376 2.63954 15.2356 2.04866 15.2356 1.31977C15.2356 0.590881 14.6376 0 13.9 0C13.1624 0 12.5645 0.590881 12.5645 1.31977C12.5645 2.04866 13.1624 2.63954 13.9 2.63954Z" fill="white"/>
<path d="M27.7981 1.31977C27.7981 2.0493 27.1996 2.63954 26.4625 2.63954C25.7254 2.63954 25.127 2.0493 25.127 1.31977C25.127 0.590237 25.7254 0 26.4625 0C27.1996 0 27.7981 0.590237 27.7981 1.31977Z" fill="white"/>
<path d="M39.025 2.63954C39.7626 2.63954 40.3606 2.04866 40.3606 1.31977C40.3606 0.590881 39.7626 0 39.025 0C38.2874 0 37.6895 0.590881 37.6895 1.31977C37.6895 2.04866 38.2874 2.63954 39.025 2.63954Z" fill="white"/>
<path d="M1.33556 13.1215C2.07317 13.1215 2.67113 12.5306 2.67113 11.8018C2.67113 11.0729 2.07317 10.482 1.33556 10.482C0.597952 10.482 0 11.0729 0 11.8018C0 12.5306 0.597952 13.1215 1.33556 13.1215Z" fill="white"/>
<path d="M13.9 13.1215C14.6376 13.1215 15.2356 12.5306 15.2356 11.8018C15.2356 11.0729 14.6376 10.482 13.9 10.482C13.1624 10.482 12.5645 11.0729 12.5645 11.8018C12.5645 12.5306 13.1624 13.1215 13.9 13.1215Z" fill="white"/>
<path d="M27.7981 11.8018C27.7981 12.5313 27.1996 13.1215 26.4625 13.1215C25.7254 13.1215 25.127 12.5313 25.127 11.8018C25.127 11.0722 25.7254 10.482 26.4625 10.482C27.1996 10.4808 27.7981 11.0722 27.7981 11.8018Z" fill="white"/>
<path d="M39.025 13.1215C39.7626 13.1215 40.3606 12.5306 40.3606 11.8018C40.3606 11.0729 39.7626 10.482 39.025 10.482C38.2874 10.482 37.6895 11.0729 37.6895 11.8018C37.6895 12.5306 38.2874 13.1215 39.025 13.1215Z" fill="white"/>
<path d="M2.67113 22.2799C2.67113 23.0094 2.07263 23.5997 1.33556 23.5997C0.598495 23.5997 0 23.0082 0 22.2799C0 21.5504 0.5973 20.9601 1.33556 20.9601C2.07263 20.9601 2.67113 21.5515 2.67113 22.2799Z" fill="white"/>
<path d="M15.2356 22.2799C15.2356 23.0082 14.6383 23.5997 13.9 23.5997C13.1629 23.5997 12.5645 23.0082 12.5645 22.2799C12.5645 21.5504 13.1629 20.9601 13.9 20.9601C14.6371 20.9601 15.2356 21.5515 15.2356 22.2799Z" fill="white"/>
<path d="M27.7981 22.2799C27.7981 23.0082 27.1996 23.5997 26.4625 23.5997C25.7254 23.5997 25.127 23.0082 25.127 22.2799C25.127 21.5504 25.7254 20.9601 26.4625 20.9601C27.1996 20.9601 27.7981 21.5515 27.7981 22.2799Z" fill="white"/>
<path d="M40.3606 22.2799C40.3606 23.0082 39.7633 23.5997 39.025 23.5997C38.2868 23.5997 37.6895 23.0082 37.6895 22.2799C37.6895 21.5504 38.2868 20.9601 39.025 20.9601C39.7633 20.9601 40.3606 21.5515 40.3606 22.2799Z" fill="white"/>
<path d="M2.67113 32.758C2.67113 33.4864 2.07263 34.0778 1.33556 34.0778C0.598495 34.0778 0 33.4875 0 32.758C0 32.0285 0.5973 31.4382 1.33556 31.4382C2.07263 31.4382 2.67113 32.0297 2.67113 32.758Z" fill="white"/>
<path d="M15.2356 32.758C15.2356 33.4864 14.6383 34.0778 13.9 34.0778C13.1629 34.0778 12.5645 33.4875 12.5645 32.758C12.5645 32.0285 13.1629 31.4382 13.9 31.4382C14.6371 31.4382 15.2356 32.0297 15.2356 32.758Z" fill="white"/>
<path d="M27.7981 32.758C27.7981 33.4864 27.1996 34.0778 26.4625 34.0778C25.7254 34.0778 25.127 33.4875 25.127 32.758C25.127 32.0285 25.7254 31.4382 26.4625 31.4382C27.1996 31.4382 27.7981 32.0297 27.7981 32.758Z" fill="white"/>
<path d="M40.3606 32.758C40.3606 33.4864 39.7633 34.0778 39.025 34.0778C38.2868 34.0778 37.6895 33.4875 37.6895 32.758C37.6895 32.0285 38.2868 31.4382 39.025 31.4382C39.7633 31.4382 40.3606 32.0297 40.3606 32.758Z" fill="white"/>
<path d="M2.67113 43.24C2.67113 43.9695 2.07263 44.5598 1.33556 44.5598C0.598495 44.5598 0 43.9684 0 43.24C0 42.5116 0.5973 41.9202 1.33556 41.9202C2.07263 41.9202 2.67113 42.5105 2.67113 43.24Z" fill="white"/>
<path d="M15.2356 43.24C15.2356 43.9695 14.6383 44.5598 13.9 44.5598C13.1629 44.5598 12.5645 43.9684 12.5645 43.24C12.5645 42.5116 13.1629 41.9202 13.9 41.9202C14.6371 41.9202 15.2356 42.5105 15.2356 43.24Z" fill="white"/>
<path d="M27.7981 43.24C27.7981 43.9695 27.1996 44.5598 26.4625 44.5598C25.7254 44.5598 25.127 43.9684 25.127 43.24C25.127 42.5116 25.7254 41.9202 26.4625 41.9202C27.1996 41.9202 27.7981 42.5105 27.7981 43.24Z" fill="white"/>
<path d="M40.3606 43.24C40.3606 43.9695 39.7633 44.5598 39.025 44.5598C38.2868 44.5598 37.6895 43.9684 37.6895 43.24C37.6895 42.5116 38.2868 41.9202 39.025 41.9202C39.7633 41.9202 40.3606 42.5105 40.3606 43.24Z" fill="white"/>
<path d="M1.33556 55.0398C2.07317 55.0398 2.67113 54.4489 2.67113 53.72C2.67113 52.9911 2.07317 52.4003 1.33556 52.4003C0.597952 52.4003 0 52.9911 0 53.72C0 54.4489 0.597952 55.0398 1.33556 55.0398Z" fill="white"/>
<path d="M13.9 55.0398C14.6376 55.0398 15.2356 54.4489 15.2356 53.72C15.2356 52.9911 14.6376 52.4003 13.9 52.4003C13.1624 52.4003 12.5645 52.9911 12.5645 53.72C12.5645 54.4489 13.1624 55.0398 13.9 55.0398Z" fill="white"/>
<path d="M27.7981 53.72C27.7981 54.4484 27.1996 55.0398 26.4625 55.0398C25.7254 55.0398 25.127 54.4484 25.127 53.72C25.127 52.9905 25.7254 52.4003 26.4625 52.4003C27.1996 52.4003 27.7981 52.9905 27.7981 53.72Z" fill="white"/>
<path d="M39.025 55.0398C39.7626 55.0398 40.3606 54.4489 40.3606 53.72C40.3606 52.9911 39.7626 52.4003 39.025 52.4003C38.2874 52.4003 37.6895 52.9911 37.6895 53.72C37.6895 54.4489 38.2874 55.0398 39.025 55.0398Z" fill="white"/>
<path d="M1.33556 65.518C2.07317 65.518 2.67113 64.9271 2.67113 64.1982C2.67113 63.4693 2.07317 62.8784 1.33556 62.8784C0.597952 62.8784 0 63.4693 0 64.1982C0 64.9271 0.597952 65.518 1.33556 65.518Z" fill="white"/>
<path d="M13.9 65.518C14.6376 65.518 15.2356 64.9271 15.2356 64.1982C15.2356 63.4693 14.6376 62.8784 13.9 62.8784C13.1624 62.8784 12.5645 63.4693 12.5645 64.1982C12.5645 64.9271 13.1624 65.518 13.9 65.518Z" fill="white"/>
<path d="M27.7981 64.1982C27.7981 64.9277 27.1996 65.518 26.4625 65.518C25.7254 65.518 25.127 64.9277 25.127 64.1982C25.127 63.4687 25.7254 62.8784 26.4625 62.8784C27.1996 62.8784 27.7981 63.4698 27.7981 64.1982Z" fill="white"/>
<path d="M39.025 65.518C39.7626 65.518 40.3606 64.9271 40.3606 64.1982C40.3606 63.4693 39.7626 62.8784 39.025 62.8784C38.2874 62.8784 37.6895 63.4693 37.6895 64.1982C37.6895 64.9271 38.2874 65.518 39.025 65.518Z" fill="white"/>
<path d="M2.67113 74.6802C2.67113 75.4097 2.07263 76 1.33556 76C0.598495 76 0 75.4085 0 74.6802C0 73.9518 0.5973 73.3604 1.33556 73.3604C2.07263 73.3604 2.67113 73.9518 2.67113 74.6802Z" fill="white"/>
<path d="M15.2356 74.6802C15.2356 75.4097 14.6383 76 13.9 76C13.1629 76 12.5645 75.4085 12.5645 74.6802C12.5645 73.9518 13.1629 73.3604 13.9 73.3604C14.6371 73.3604 15.2356 73.9518 15.2356 74.6802Z" fill="white"/>
<path d="M27.7981 74.6802C27.7981 75.4097 27.1996 76 26.4625 76C25.7254 76 25.127 75.4085 25.127 74.6802C25.127 73.9518 25.7254 73.3604 26.4625 73.3604C27.1996 73.3604 27.7981 73.9518 27.7981 74.6802Z" fill="white"/>
<path d="M40.3606 74.6802C40.3606 75.4097 39.7633 76 39.025 76C38.2868 76 37.6895 75.4085 37.6895 74.6802C37.6895 73.9518 38.2868 73.3604 39.025 73.3604C39.7633 73.3604 40.3606 73.9518 40.3606 74.6802Z" fill="white"/>
</g>
</svg>
