<svg width="43" height="42" viewBox="0 0 43 42" fill="none" xmlns="http://www.w3.org/2000/svg">
<path fill-rule="evenodd" clip-rule="evenodd" d="M14.3048 15.1274L0.986816 28.4455L14.3048 41.7635L19.1987 36.8697L11.9454 29.6165C11.2987 28.9698 11.2987 27.9212 11.9454 27.2745L19.1987 20.0037L14.3048 15.11V15.1274ZM21.5407 22.3632L15.4584 28.4629L21.5407 34.5452L27.6229 28.4629L21.5407 22.3807V22.3632Z" fill="#D91060"/>
<path fill-rule="evenodd" clip-rule="evenodd" d="M19.844 6.28333C19.844 9.34194 17.3621 11.8238 14.3035 11.8238C11.2449 11.8238 8.76306 9.34194 8.76306 6.28333C8.76306 3.22473 11.2449 0.74292 14.3035 0.74292C17.3621 0.74292 19.844 3.22473 19.844 6.28333Z" fill="#D91060"/>
<path fill-rule="evenodd" clip-rule="evenodd" d="M28.7752 15.1271L15.4572 28.4451L28.7752 41.7632L42.0932 28.4451L28.7752 15.1271Z" fill="#FB1A60"/>
<path fill-rule="evenodd" clip-rule="evenodd" d="M34.3159 6.28333C34.3159 9.34194 31.8341 11.8238 28.7755 11.8238C25.7169 11.8238 23.2351 9.34194 23.2351 6.28333C23.2351 3.22473 25.7169 0.74292 28.7755 0.74292C31.8341 0.74292 34.3159 3.22473 34.3159 6.28333Z" fill="#FB1A60"/>
</svg>
