<svg width="44" height="43" viewBox="0 0 44 43" fill="none" xmlns="http://www.w3.org/2000/svg">
<path fill-rule="evenodd" clip-rule="evenodd" d="M22.0114 0.244873C12.7482 0.244873 4.56856 6.3271 1.89447 15.1883C2.97809 15.031 4.07921 14.9437 5.19779 14.9437C11.8218 14.9437 17.7992 17.7575 22.0114 22.2318C26.2235 17.7575 32.2184 14.9437 38.8249 14.9437C39.9435 14.9437 41.0446 15.031 42.1108 15.1883C39.4367 6.3271 31.2746 0.244873 22.0114 0.244873Z" fill="#038B8C"/>
<path fill-rule="evenodd" clip-rule="evenodd" d="M5.19854 19.1555C3.78284 19.1555 2.40213 19.3128 1.07382 19.6099C1.02138 20.1517 1.00393 20.711 0.98645 21.2703C0.98645 30.5335 7.0687 38.7131 15.9474 41.3872C15.7901 40.3036 15.7027 39.2025 15.7027 38.0839C15.7027 33.4698 17.0659 29.1877 19.3905 25.5698C15.9299 21.6373 10.8613 19.1555 5.18104 19.1555H5.19854Z" fill="#00C690"/>
<path fill-rule="evenodd" clip-rule="evenodd" d="M38.8245 19.1555C33.1617 19.1555 28.0932 21.6373 24.6326 25.5698C26.9571 29.1702 28.3203 33.4698 28.3203 38.0839C28.3203 39.2025 28.233 40.2861 28.0757 41.3697C36.937 38.6956 43.0192 30.5335 43.0367 21.2703C43.0367 20.711 43.0017 20.1692 42.9667 19.6099C41.6384 19.3128 40.2577 19.1555 38.842 19.1555H38.8245Z" fill="#00C690"/>
<path fill-rule="evenodd" clip-rule="evenodd" d="M22.0123 29.3972C20.6665 31.9839 19.915 34.9551 19.915 38.0837C19.915 39.4994 20.0723 40.8801 20.3694 42.2084C20.9112 42.2608 21.4705 42.2783 22.0123 42.2958C22.5541 42.2958 23.1134 42.2608 23.6552 42.2259C23.9524 40.8976 24.1097 39.5168 24.1097 38.1011C24.1097 34.9726 23.3581 32.0014 22.0123 29.4147V29.3972Z" fill="#A9EC33"/>
</svg>
