<svg width="41" height="41" viewBox="0 0 41 41" fill="none" xmlns="http://www.w3.org/2000/svg">
<path fill-rule="evenodd" clip-rule="evenodd" d="M1.00293 0.632568C1.22979 1.92391 1.47413 3.19781 1.80569 4.45425C2.22451 6.0597 2.74802 7.63029 3.32389 9.18339C3.89975 10.7365 4.56288 12.2547 5.29581 13.738C5.60992 14.3836 5.95885 15.0118 6.30786 15.6575C6.36022 15.7622 6.41261 15.8495 6.46497 15.9542C7.11064 17.0885 7.84349 18.1878 8.57642 19.2698C8.92543 18.7811 9.25707 18.2751 9.64098 17.804C9.64098 17.804 9.64098 17.804 9.64098 17.7865C10.7055 16.4603 11.8223 15.1864 13.0264 13.9648C14.213 12.7433 15.4694 11.5916 16.7782 10.4922C17.2843 10.0734 17.7903 9.67198 18.2964 9.27062C18.7501 8.90416 19.2214 8.57264 19.6925 8.22363C18.5582 7.47325 17.4065 6.72281 16.2024 6.07714C14.754 5.27441 13.2706 4.54149 11.735 3.89582C10.2168 3.23269 8.6637 2.65684 7.07569 2.16823C5.48769 1.66216 3.89969 1.2434 2.27679 0.911837C1.85797 0.824584 1.42176 0.754756 1.0204 0.667504L1.00293 0.632568Z" fill="#667CED"/>
<path fill-rule="evenodd" clip-rule="evenodd" d="M40.9996 0.667236C39.7083 0.894094 38.4169 1.13844 37.1604 1.47C35.555 1.88881 33.9845 2.37739 32.4139 2.95326C30.8608 3.52913 29.3427 4.17479 27.8419 4.90771C27.1613 5.23927 26.4808 5.60571 25.8002 5.97217C25.713 6.00707 25.6431 6.05944 25.5559 6.09434C24.4216 6.74001 23.3222 7.45549 22.2402 8.17096C22.7114 8.51997 23.2 8.83413 23.6712 9.20059C25.0149 10.2651 26.2888 11.3819 27.5278 12.5685C28.7493 13.7552 29.9185 14.9942 31.0179 16.2855C31.4367 16.7916 31.8555 17.2802 32.2568 17.8037C32.6233 18.2749 32.9898 18.7461 33.3388 19.2347C34.124 18.0829 34.8745 16.8962 35.555 15.6747C36.3578 14.2263 37.0907 12.743 37.7538 11.2248C38.4169 9.70661 38.9928 8.15356 39.4989 6.583C40.0049 5.01245 40.4237 3.407 40.7727 1.7841C40.86 1.41764 40.9123 1.0337 40.9821 0.667236H40.9996Z" fill="#667CED"/>
<path fill-rule="evenodd" clip-rule="evenodd" d="M20.9657 14.3136C20.4072 15.0291 19.8314 15.762 19.2031 16.4425C18.383 17.35 17.5104 18.2051 16.5855 19.0253C16.0097 19.5488 15.3989 20.0199 14.7881 20.4911C15.5036 21.0669 16.2365 21.6254 16.9171 22.2536C17.8245 23.0912 18.6796 23.9463 19.4998 24.8712C20.0233 25.4645 20.4945 26.0752 20.9657 26.686C21.5415 25.9705 22.1 25.2377 22.7282 24.5571C23.5658 23.6497 24.4209 22.7946 25.3458 21.9744C25.9216 21.4509 26.5498 20.9797 27.1606 20.4911C26.4451 19.9327 25.7122 19.3568 25.0317 18.7285C24.1242 17.9084 23.2691 17.0358 22.4489 16.111C21.9254 15.5351 21.4543 14.9244 20.9657 14.2961V14.3136Z" fill="#162AB5"/>
<path fill-rule="evenodd" clip-rule="evenodd" d="M33.3916 21.7649C33.0426 22.2535 32.6936 22.7422 32.3446 23.2308C31.2801 24.557 30.1458 25.8309 28.9592 27.0525C27.7726 28.274 26.5161 29.4257 25.2073 30.5251C24.7012 30.9439 24.1952 31.3628 23.6891 31.7467C23.2354 32.1131 22.7817 32.4621 22.3105 32.7937C23.4448 33.544 24.5966 34.2945 25.8007 34.9402C27.2491 35.7429 28.7323 36.4758 30.2505 37.1389C31.7862 37.8021 33.3393 38.3605 34.9098 38.8665C36.4978 39.3726 38.1033 39.7914 39.7262 40.1229C40.145 40.2102 40.5638 40.28 40.9826 40.3673C40.8604 39.7216 40.7383 39.0934 40.6162 38.4477C40.4766 37.8021 40.337 37.1738 40.1799 36.5456C39.7436 34.9576 39.2376 33.3695 38.6617 31.8164C38.0859 30.2808 37.4227 28.7626 36.6898 27.2793C36.3757 26.6337 36.0267 26.0055 35.6951 25.3598C35.6428 25.2726 35.5729 25.1678 35.5205 25.0631C34.8749 23.9288 34.142 22.8468 33.4266 21.7649H33.3916Z" fill="#667CED"/>
<path fill-rule="evenodd" clip-rule="evenodd" d="M8.59355 21.7999C8.20964 22.3758 7.82577 22.9517 7.44186 23.545C7.0754 24.1383 6.70896 24.7317 6.3774 25.3425C5.57468 26.7909 4.84174 28.2741 4.17861 29.7923C3.51549 31.3105 2.93962 32.8636 2.43356 34.4341C1.92749 36.0047 1.50861 37.6101 1.15959 39.2156C1.07234 39.5995 1.02 39.966 0.950195 40.3324C1.59587 40.2103 2.24162 40.1056 2.88729 39.966C3.53296 39.8439 4.17859 39.6868 4.80681 39.5298C6.41226 39.111 7.98276 38.6223 9.55331 38.0464C11.1064 37.4705 12.6247 36.8249 14.1255 36.092C14.806 35.7604 15.4866 35.4114 16.1671 35.045C16.2369 34.9926 16.3242 34.9577 16.4115 34.9053C17.5458 34.2771 18.6451 33.5442 19.727 32.8287C19.2559 32.4797 18.7672 32.1481 18.2961 31.7991C16.9524 30.7346 15.6785 29.6178 14.4396 28.4311C13.2006 27.2445 12.0314 26.0055 10.932 24.7142C10.5132 24.2255 10.0943 23.7195 9.69295 23.2134C9.32649 22.7597 8.97748 22.2711 8.61102 21.7825L8.59355 21.7999Z" fill="#667CED"/>
</svg>
