<svg width="17" height="16" viewBox="0 0 17 16" fill="none" xmlns="http://www.w3.org/2000/svg">
<path d="M11.557 15.7999H5.44328C2.72893 15.7999 0.524658 13.592 0.524658 10.8813V5.49626C0.524658 2.78191 2.73257 0.577637 5.44328 0.577637H11.557C14.2677 0.577637 16.4756 2.78555 16.4756 5.49626V10.8813C16.4756 13.5956 14.2677 15.7999 11.557 15.7999ZM5.44693 1.66704C3.33738 1.66704 1.62133 3.38309 1.62133 5.49264V10.8776C1.62133 12.9872 3.33738 14.7032 5.44693 14.7032H11.5606C13.6701 14.7032 15.3862 12.9872 15.3862 10.8776V5.49264C15.3862 3.38309 13.6701 1.66704 11.5606 1.66704H5.44693Z" fill="#FDCB02"/>
<path d="M8.50067 12.5645C6.08508 12.5645 4.12128 10.6006 4.12128 8.18505C4.12128 5.76946 6.08508 3.80566 8.50067 3.80566C10.9163 3.80566 12.8801 5.76946 12.8801 8.18505C12.8801 10.6006 10.9163 12.5645 8.50067 12.5645ZM8.50067 4.90232C6.68989 4.90232 5.2143 6.37791 5.2143 8.1887C5.2143 9.99948 6.68989 11.4751 8.50067 11.4751C10.3115 11.4751 11.787 9.99948 11.787 8.1887C11.787 6.37791 10.3115 4.90232 8.50067 4.90232Z" fill="#FDCB02"/>
<path d="M13.7212 3.94434C13.7212 4.44713 13.3132 4.85155 12.814 4.85155C12.3149 4.85155 11.9068 4.44349 11.9068 3.94434C11.9068 3.44519 12.3149 3.03711 12.814 3.03711C13.3132 3.03711 13.7212 3.44519 13.7212 3.94434Z" fill="#FDCB02"/>
</svg>
