<svg width="48" height="38" viewBox="0 0 48 38" fill="none" xmlns="http://www.w3.org/2000/svg">
<path fill-rule="evenodd" clip-rule="evenodd" d="M39.9304 22.3253H8.19092C8.34822 22.4651 8.48806 22.6049 8.64536 22.7448C9.2396 23.2516 9.83382 23.741 10.4805 24.178C11.1097 24.6324 11.7564 25.0518 12.438 25.4364C13.1196 25.8383 13.8013 26.1879 14.5178 26.5025C15.2344 26.8171 15.951 27.1142 16.6851 27.3589C16.9997 27.4638 17.3317 27.5686 17.6463 27.656C17.6988 27.6735 17.7512 27.691 17.8037 27.7084C18.5552 27.9182 19.3068 28.093 20.0933 28.2153C20.0933 28.2503 20.0933 28.2852 20.1107 28.3202C20.2506 29.0892 20.4253 29.8408 20.6351 30.5923C20.8448 31.3438 21.1069 32.0779 21.3866 32.7945C21.6662 33.5111 21.9983 34.2276 22.3478 34.9267C22.6974 35.6084 23.0995 36.29 23.5189 36.9367C23.7112 37.2338 23.9034 37.5135 24.0956 37.7931C24.5675 37.1639 24.9871 36.4998 25.3716 35.8356C25.7736 35.1715 26.1231 34.4723 26.4552 33.7732C26.7873 33.0566 27.0669 32.3401 27.3291 31.606C27.4514 31.2564 27.5563 30.9244 27.6611 30.5748C27.6611 30.5399 27.696 30.4874 27.696 30.4525C27.9058 29.7009 28.0806 28.9494 28.2204 28.1804C28.2379 28.1804 28.2553 28.1804 28.2728 28.1804C29.0418 28.0405 29.7934 27.8658 30.5449 27.6386C31.2964 27.4114 32.0305 27.1666 32.7646 26.887C33.4812 26.6073 34.1977 26.2753 34.8968 25.9257C35.5785 25.5587 36.2602 25.1742 36.9243 24.7373C37.2214 24.545 37.5361 24.3353 37.8332 24.1255C38.2002 23.8634 38.5673 23.5837 38.9168 23.3041C39.3013 23.0069 39.6334 22.6749 39.9829 22.3428L39.9304 22.3253Z" fill="#6F7AE9"/>
<path fill-rule="evenodd" clip-rule="evenodd" d="M2.23083 13.3236C2.31822 13.5683 2.38818 13.813 2.49304 14.0576C2.77269 14.7742 3.10476 15.4909 3.47179 16.1725C3.83883 16.8541 4.22332 17.5357 4.66027 18.1824C5.09721 18.8291 5.5517 19.4583 6.04108 20.0525C6.53045 20.6468 7.0547 21.241 7.59651 21.7828C7.78877 21.9751 7.99855 22.1499 8.1908 22.3421H39.9303C40.1575 22.1324 40.4022 21.9401 40.612 21.7304C40.9615 21.3808 41.3111 21.0138 41.6432 20.6293C42.1501 20.035 42.6394 19.4408 43.0938 18.7941C43.5482 18.1649 43.9677 17.5008 44.3522 16.8366C44.7368 16.155 45.1038 15.4559 45.4184 14.7568C45.6281 14.3024 45.7854 13.813 45.9777 13.3236H38.7419C38.5321 13.7081 38.3049 14.0926 38.0602 14.4771C37.7456 14.949 37.431 15.386 37.0814 15.8229C36.7319 16.2599 36.3475 16.6618 35.963 17.0638C35.6134 17.3959 35.2638 17.728 34.9142 18.0251C34.4773 18.3922 34.0403 18.7242 33.5859 19.0388C33.1315 19.3534 32.6422 19.6331 32.1528 19.9127C31.6634 20.1749 31.1565 20.4196 30.6497 20.6293C30.1428 20.839 29.6185 21.0313 29.0767 21.1886C28.867 21.2585 28.6398 21.3109 28.4301 21.3634C28.3601 21.3809 28.2727 21.3983 28.1853 21.4333C27.6435 21.5731 27.1017 21.678 26.5424 21.7479C26.5424 21.678 26.5599 21.5906 26.5774 21.5207C26.6648 20.9614 26.7872 20.437 26.9095 19.8952C27.0493 19.3534 27.2241 18.8291 27.4163 18.3048C27.4862 18.095 27.5736 17.8853 27.661 17.693C27.8533 17.2561 28.063 16.8017 28.2902 16.3822C28.5524 15.8928 28.832 15.4034 29.1466 14.949C29.4612 14.4771 29.7758 14.0402 30.1253 13.6033C30.1953 13.5159 30.2827 13.4284 30.3701 13.341H17.9434C17.9434 13.341 18.0133 13.4285 18.0483 13.4634C18.3978 13.8829 18.7299 14.3373 19.0445 14.7917C19.3591 15.2462 19.6388 15.7181 19.9184 16.2249C20.1806 16.7143 20.4252 17.2211 20.6349 17.728C20.8447 18.2348 21.0369 18.7592 21.1942 19.301C21.2642 19.5107 21.3165 19.703 21.369 19.9127C21.3865 19.9826 21.404 20.0525 21.4215 20.1224C21.5613 20.6642 21.6661 21.206 21.736 21.7653C21.736 21.7653 21.5962 21.7479 21.5263 21.7304C20.967 21.643 20.4427 21.5381 19.9009 21.3808C19.3591 21.241 18.8347 21.0663 18.3104 20.874C18.1181 20.8041 17.9259 20.7167 17.7337 20.6468C17.2618 20.4545 16.8073 20.2448 16.3529 20.0001C15.8635 19.738 15.3916 19.4583 14.9197 19.1612C14.4478 18.8466 14.0109 18.532 13.574 18.1649C13.137 17.8154 12.735 17.4484 12.333 17.0464C12.1757 16.8891 12.0184 16.7143 11.8611 16.5395C11.4766 16.1375 11.127 15.7006 10.795 15.2636C10.4629 14.8267 10.1483 14.3548 9.85121 13.8829C9.74634 13.7081 9.65888 13.5159 9.55401 13.3236H2.23083Z" fill="#2A3BDF"/>
<path fill-rule="evenodd" clip-rule="evenodd" d="M43.6008 0.810083C43.2163 0.810083 42.8142 0.810083 42.4297 0.810083C41.6956 0.82756 40.9616 0.879987 40.245 0.967376C39.7381 1.03729 39.2488 1.10721 38.7594 1.1946C37.9904 1.33442 37.2389 1.52667 36.4873 1.7364C35.7358 1.96361 35.0017 2.2083 34.2851 2.50543C33.5685 2.80255 32.8519 3.13464 32.1703 3.50167C31.4886 3.8687 30.8071 4.2532 30.1604 4.69014C29.5137 5.12709 28.8845 5.58149 28.2728 6.08834C27.6785 6.57772 27.0843 7.10207 26.5425 7.64388C26.2279 7.95848 25.9132 8.29056 25.6336 8.62263C25.1267 9.21688 24.6374 9.82858 24.183 10.4578C23.9034 10.0733 23.6063 9.68875 23.3091 9.30424C22.8198 8.70999 22.2954 8.11577 21.7536 7.57396C21.3691 7.20693 21.002 6.83992 20.6 6.50784C20.0232 6.00099 19.4115 5.5116 18.7649 5.07465C18.1357 4.63771 17.4715 4.21826 16.7899 3.83375C16.1082 3.44924 15.4091 3.09967 14.71 2.78508C13.9934 2.47048 13.2768 2.19083 12.5253 1.96362C11.7912 1.71893 11.0397 1.50919 10.2707 1.35189C9.51917 1.19459 8.73266 1.05476 7.96364 0.967376C7.19462 0.879987 6.40809 0.82756 5.63907 0.810083C4.85257 0.810083 4.08361 0.810061 3.29711 0.89745C2.56305 0.967361 1.84646 1.05476 1.11239 1.1771C0.972572 1.94612 0.867629 2.71515 0.815195 3.48417C0.745285 4.27067 0.727845 5.03969 0.745323 5.82618C0.762801 6.54277 0.815281 7.27682 0.90267 7.99341C0.97258 8.51774 1.04241 9.0421 1.14728 9.54895C1.2871 10.3005 1.46187 11.0695 1.68908 11.821C1.8289 12.3279 2.02123 12.7998 2.196 13.2892H9.51918C9.3444 12.992 9.16957 12.6949 9.02975 12.3803C8.78506 11.8735 8.57534 11.3666 8.38308 10.8423C8.19083 10.318 8.0335 9.79362 7.91115 9.25181C7.77133 8.71 7.66648 8.16818 7.59657 7.60889C7.82378 7.62637 8.03352 7.6788 8.26073 7.71376C8.80254 7.81862 9.34433 7.94097 9.88614 8.09827C10.4105 8.25557 10.9523 8.44787 11.4592 8.64013C11.966 8.84986 12.4729 9.07706 12.9797 9.33923C13.4691 9.60139 13.941 9.881 14.4129 10.1781C14.8848 10.4927 15.3218 10.8248 15.7587 11.1744C16.1957 11.5239 16.5976 11.891 16.9996 12.293C17.3142 12.6076 17.6113 12.9396 17.891 13.2717H30.3176C30.5973 12.9396 30.8944 12.6076 31.1915 12.293C31.3488 12.1357 31.5236 11.9783 31.6809 11.821C32.0829 11.4365 32.5199 11.087 32.9743 10.7549C33.4112 10.4228 33.8831 10.1082 34.355 9.8286C34.8269 9.53148 35.3163 9.26929 35.8232 9.04208C36.33 8.79739 36.8369 8.58767 37.3612 8.39541C37.8855 8.20316 38.4273 8.04588 38.9516 7.92353C39.4934 7.78371 40.0352 7.67881 40.577 7.60889C40.5421 7.8361 40.5071 8.06334 40.4722 8.29055C40.3673 8.83236 40.245 9.37416 40.0877 9.91597C39.9304 10.4578 39.7556 10.9821 39.5459 11.489C39.3362 11.9958 39.1089 12.5202 38.8468 13.0096C38.7943 13.097 38.7245 13.1843 38.672 13.2892H45.9078C46.0127 13.027 46.1175 12.7823 46.2049 12.5376C46.4496 11.7861 46.6593 11.052 46.8341 10.283C47.0089 9.53144 47.1312 8.74499 47.2361 7.97597C47.3409 7.20694 47.3934 6.42042 47.4109 5.6514C47.4109 4.8649 47.4109 4.09588 47.341 3.30939C47.2886 2.57532 47.1837 1.84124 47.0613 1.10717C46.2923 0.98483 45.5233 0.880011 44.7542 0.827578C44.3697 0.792622 43.9853 0.775146 43.5833 0.775146L43.6008 0.810083Z" fill="#1A2DC7"/>
</svg>
