<svg width="40" height="40" viewBox="0 0 40 40" fill="none" xmlns="http://www.w3.org/2000/svg">
<path fill-rule="evenodd" clip-rule="evenodd" d="M15.2119 0.0310059C14.5827 0.53786 13.9535 1.02721 13.3418 1.53407C10.7551 3.7013 8.27324 6.00839 5.91375 8.43779C3.92128 10.4652 2.06866 12.6324 0.250977 14.8521C1.91136 15.8833 3.51924 16.9669 5.09224 18.1204C6.52541 17.0193 7.92364 15.9008 9.25195 14.7123C11.0522 13.1044 12.7475 11.409 14.3729 9.62627C15.7711 8.1057 17.0645 6.49779 18.3404 4.85488C17.2218 3.29936 16.1907 1.69141 15.2119 0.0485007V0.0310059Z" fill="#FE1C63"/>
<path fill-rule="evenodd" clip-rule="evenodd" d="M25.0171 0.0485007C24.0209 1.67393 22.9372 3.26435 21.8011 4.80239C22.9022 6.23557 24.0208 7.63381 25.2093 8.9796C26.8173 10.7623 28.4952 12.4751 30.2779 14.1006C31.7985 15.4988 33.4239 16.7922 35.0668 18.0505C36.6398 16.9145 38.2827 15.8833 39.9257 14.8871C39.4188 14.2579 38.9293 13.6462 38.4225 13.0519C36.2378 10.4827 33.9133 8.01828 31.4839 5.65879C29.4215 3.6838 27.2368 1.83121 24.9996 0.0310059L25.0171 0.0485007Z" fill="#FE1C63"/>
<path fill-rule="evenodd" clip-rule="evenodd" d="M20.0887 7.07462C18.9177 8.57771 17.7293 10.0807 16.4359 11.4964C14.7406 13.3316 12.9753 15.0969 11.1226 16.7747C11.1226 16.7747 11.0877 16.8096 11.0703 16.8096C11.0703 16.8096 11.0702 16.8096 11.0528 16.8096C9.86428 17.8583 8.62339 18.8546 7.36499 19.8159C8.86808 20.9869 10.3711 22.1753 11.7868 23.4686C13.622 25.1465 15.3872 26.9118 17.0301 28.7644L17.0476 28.7819C18.1312 30.0054 19.1275 31.2637 20.1237 32.5396C21.2947 31.0365 22.4832 29.551 23.7765 28.1353C25.4718 26.3001 27.2372 24.5348 29.0898 22.8745C30.3132 21.7908 31.5716 20.7946 32.8475 19.7984C31.3444 18.6274 29.8413 17.4388 28.4256 16.1455C26.5905 14.4501 24.8252 12.6849 23.1648 10.8148C23.1473 10.8148 23.1298 10.7799 23.1123 10.7624C22.0637 9.55644 21.0675 8.31553 20.0887 7.05713V7.07462Z" fill="#633DAD"/>
<path fill-rule="evenodd" clip-rule="evenodd" d="M35.1018 21.5461C33.6686 22.6472 32.2704 23.7658 30.942 24.9543C29.1593 26.5623 27.4465 28.2401 25.8211 30.0228C24.4229 31.5434 23.1295 33.1689 21.8711 34.8118C22.9897 36.3673 24.0208 37.9753 24.9996 39.6182C25.6288 39.1288 26.258 38.6219 26.8697 38.115C29.4564 35.9478 31.9382 33.6407 34.2977 31.2288C36.2902 29.1839 38.1428 27.0167 39.9605 24.8145C38.3001 23.8008 36.6922 22.6997 35.1192 21.5636L35.1018 21.5461Z" fill="#FE1C63"/>
<path fill-rule="evenodd" clip-rule="evenodd" d="M5.11014 21.5812C3.53714 22.7172 1.89427 23.7484 0.233887 24.7446C0.723263 25.3564 1.23009 25.9855 1.73695 26.5798C3.92166 29.149 6.24626 31.6133 8.67566 33.9553C10.738 35.9478 12.9053 37.8005 15.125 39.6007C16.1387 37.9578 17.2047 36.3847 18.3408 34.8292C17.2572 33.396 16.1211 31.9979 14.9326 30.6696C13.3247 28.8694 11.6294 27.174 9.86414 25.5486C8.34357 24.1503 6.73557 22.8571 5.11014 21.5987V21.5812Z" fill="#FE1C63"/>
</svg>
