<svg width="24" height="25" viewBox="0 0 24 25" fill="none" xmlns="http://www.w3.org/2000/svg">
<path d="M15.057 20H8.94328C6.22893 20 4.02465 17.7921 4.02465 15.0814V9.6964C4.02465 6.98204 6.23257 4.77777 8.94328 4.77777H15.057C17.7677 4.77777 19.9756 6.98569 19.9756 9.6964V15.0814C19.9756 17.7957 17.7677 20 15.057 20ZM8.94692 5.86717C6.83738 5.86717 5.12133 7.58323 5.12133 9.69277V15.0777C5.12133 17.1873 6.83738 18.9033 8.94692 18.9033H15.0606C17.1701 18.9033 18.8862 17.1873 18.8862 15.0777V9.69277C18.8862 7.58323 17.1701 5.86717 15.0606 5.86717H8.94692Z" fill="#FDCB02"/>
<path d="M12.0007 16.7647C9.58509 16.7647 7.62129 14.8009 7.62129 12.3853C7.62129 9.96971 9.58509 8.00592 12.0007 8.00592C14.4163 8.00592 16.3801 9.96971 16.3801 12.3853C16.3801 14.8009 14.4163 16.7647 12.0007 16.7647ZM12.0007 9.10257C10.1899 9.10257 8.71432 10.5782 8.71432 12.389C8.71432 14.1997 10.1899 15.6753 12.0007 15.6753C13.8115 15.6753 15.2871 14.1997 15.2871 12.389C15.2871 10.5782 13.8115 9.10257 12.0007 9.10257Z" fill="#FDCB02"/>
<path d="M17.2213 8.14438C17.2213 8.64718 16.8132 9.05159 16.314 9.05159C15.8149 9.05159 15.4068 8.64353 15.4068 8.14438C15.4068 7.64523 15.8149 7.23715 16.314 7.23715C16.8132 7.23715 17.2213 7.64523 17.2213 8.14438Z" fill="#FDCB02"/>
</svg>
