<svg width="104" height="76" viewBox="0 0 104 76" fill="none" xmlns="http://www.w3.org/2000/svg">
<g opacity="0.2">
<path d="M2.15406 2.63954C2.89167 2.63954 3.48962 2.04866 3.48962 1.31977C3.48962 0.590881 2.89167 0 2.15406 0C1.41645 0 0.818497 0.590881 0.818497 1.31977C0.818497 2.04866 1.41645 2.63954 2.15406 2.63954Z" fill="white"/>
<path d="M14.7164 2.63954C15.454 2.63954 16.052 2.04866 16.052 1.31977C16.052 0.590881 15.454 0 14.7164 0C13.9788 0 13.3809 0.590881 13.3809 1.31977C13.3809 2.04866 13.9788 2.63954 14.7164 2.63954Z" fill="white"/>
<path d="M28.6163 1.31977C28.6163 2.0493 28.0178 2.63954 27.2807 2.63954C26.5436 2.63954 25.9451 2.0493 25.9451 1.31977C25.9451 0.590237 26.5436 0 27.2807 0C28.0178 0 28.6163 0.590237 28.6163 1.31977Z" fill="white"/>
<path d="M41.1809 1.31977C41.1809 2.0493 40.5824 2.63954 39.8453 2.63954C39.1083 2.63954 38.5098 2.0493 38.5098 1.31977C38.5098 0.590237 39.1071 0 39.8453 0C40.5836 0 41.1809 0.590237 41.1809 1.31977Z" fill="white"/>
<path d="M53.7453 1.31977C53.7453 2.0493 53.148 2.63954 52.4098 2.63954C51.6715 2.63954 51.0742 2.0493 51.0742 1.31977C51.0742 0.590237 51.6727 0 52.4098 0C53.1469 0 53.7453 0.590237 53.7453 1.31977Z" fill="white"/>
<path d="M64.9744 2.63954C65.712 2.63954 66.31 2.04866 66.31 1.31977C66.31 0.590881 65.712 0 64.9744 0C64.2368 0 63.6389 0.590881 63.6389 1.31977C63.6389 2.04866 64.2368 2.63954 64.9744 2.63954Z" fill="white"/>
<path d="M77.5367 2.63954C78.2743 2.63954 78.8723 2.04866 78.8723 1.31977C78.8723 0.590881 78.2743 0 77.5367 0C76.7991 0 76.2012 0.590881 76.2012 1.31977C76.2012 2.04866 76.7991 2.63954 77.5367 2.63954Z" fill="white"/>
<path d="M91.4347 1.31977C91.4347 2.0493 90.8363 2.63954 90.0992 2.63954C89.3621 2.63954 88.7636 2.0493 88.7636 1.31977C88.7636 0.590237 89.3621 0 90.0992 0C90.8374 0 91.4347 0.590237 91.4347 1.31977Z" fill="white"/>
<path d="M103.999 1.31977C103.999 2.0493 103.401 2.63954 102.664 2.63954C101.925 2.63954 101.328 2.0493 101.328 1.31977C101.328 0.590237 101.927 0 102.664 0C103.402 0 103.999 0.590237 103.999 1.31977Z" fill="white"/>
<path d="M2.15392 13.1215C2.89153 13.1215 3.48948 12.5306 3.48948 11.8018C3.48948 11.0729 2.89153 10.482 2.15392 10.482C1.41631 10.482 0.818359 11.0729 0.818359 11.8018C0.818359 12.5306 1.41631 13.1215 2.15392 13.1215Z" fill="white"/>
<path d="M14.7164 13.1215C15.454 13.1215 16.052 12.5306 16.052 11.8018C16.052 11.0729 15.454 10.482 14.7164 10.482C13.9788 10.482 13.3809 11.0729 13.3809 11.8018C13.3809 12.5306 13.9788 13.1215 14.7164 13.1215Z" fill="white"/>
<path d="M28.6164 11.8018C28.6164 12.5313 28.0179 13.1215 27.2809 13.1215C26.5438 13.1215 25.9453 12.5313 25.9453 11.8018C25.9453 11.0722 26.5438 10.482 27.2809 10.482C28.0179 10.4808 28.6164 11.0722 28.6164 11.8018Z" fill="white"/>
<path d="M41.1809 11.8018C41.1809 12.5313 40.5824 13.1215 39.8453 13.1215C39.1083 13.1215 38.5098 12.5313 38.5098 11.8018C38.5098 11.0722 39.1071 10.482 39.8453 10.482C40.5836 10.482 41.1809 11.0722 41.1809 11.8018Z" fill="white"/>
<path d="M53.7453 11.8018C53.7453 12.5313 53.148 13.1215 52.4098 13.1215C51.6715 13.1215 51.0742 12.5313 51.0742 11.8018C51.0742 11.0722 51.6727 10.482 52.4098 10.482C53.1469 10.482 53.7453 11.0722 53.7453 11.8018Z" fill="white"/>
<path d="M64.9742 13.1215C65.7118 13.1215 66.3098 12.5306 66.3098 11.8018C66.3098 11.0729 65.7118 10.482 64.9742 10.482C64.2366 10.482 63.6387 11.0729 63.6387 11.8018C63.6387 12.5306 64.2366 13.1215 64.9742 13.1215Z" fill="white"/>
<path d="M77.5367 13.1215C78.2743 13.1215 78.8723 12.5306 78.8723 11.8018C78.8723 11.0729 78.2743 10.482 77.5367 10.482C76.7991 10.482 76.2012 11.0729 76.2012 11.8018C76.2012 12.5306 76.7991 13.1215 77.5367 13.1215Z" fill="white"/>
<path d="M91.4348 11.8018C91.4348 12.5313 90.8363 13.1215 90.0992 13.1215C89.3622 13.1215 88.7637 12.5313 88.7637 11.8018C88.7637 11.0722 89.3622 10.482 90.0992 10.482C90.8375 10.4808 91.4348 11.0722 91.4348 11.8018Z" fill="white"/>
<path d="M103.999 11.8018C103.999 12.5313 103.401 13.1215 102.664 13.1215C101.925 13.1215 101.328 12.5313 101.328 11.8018C101.328 11.0722 101.927 10.482 102.664 10.482C103.402 10.4808 103.999 11.0722 103.999 11.8018Z" fill="white"/>
<path d="M3.48948 22.2799C3.48948 23.0082 2.89218 23.5997 2.15392 23.5997C1.41566 23.5997 0.818359 23.0082 0.818359 22.2799C0.818359 21.5504 1.41566 20.9601 2.15392 20.9601C2.89218 20.9601 3.48948 21.5515 3.48948 22.2799Z" fill="white"/>
<path d="M16.052 22.2799C16.052 23.0094 15.4547 23.5997 14.7164 23.5997C13.9793 23.5997 13.3809 23.0082 13.3809 22.2799C13.3809 21.5504 13.9793 20.9601 14.7164 20.9601C15.4547 20.9601 16.052 21.5515 16.052 22.2799Z" fill="white"/>
<path d="M28.6164 22.2799C28.6164 23.0094 28.0179 23.5997 27.2809 23.5997C26.5438 23.5997 25.9453 23.0082 25.9453 22.2799C25.9453 21.5504 26.5438 20.9601 27.2809 20.9601C28.0179 20.9601 28.6164 21.5515 28.6164 22.2799Z" fill="white"/>
<path d="M41.1809 22.2799C41.1809 23.0082 40.5824 23.5997 39.8453 23.5997C39.1083 23.5997 38.5098 23.0082 38.5098 22.2799C38.5098 21.5504 39.1071 20.9601 39.8453 20.9601C40.5836 20.9601 41.1809 21.5515 41.1809 22.2799Z" fill="white"/>
<path d="M53.7453 22.2799C53.7453 23.0082 53.148 23.5997 52.4098 23.5997C51.6715 23.5997 51.0742 23.0082 51.0742 22.2799C51.0742 21.5504 51.6727 20.9601 52.4098 20.9601C53.1469 20.9601 53.7453 21.5515 53.7453 22.2799Z" fill="white"/>
<path d="M66.3098 22.2799C66.3098 23.0082 65.7113 23.5997 64.9742 23.5997C64.2372 23.5997 63.6387 23.0082 63.6387 22.2799C63.6387 21.5504 64.2372 20.9601 64.9742 20.9601C65.7125 20.9601 66.3098 21.5515 66.3098 22.2799Z" fill="white"/>
<path d="M78.8723 22.2799C78.8723 23.0082 78.2738 23.5997 77.5367 23.5997C76.7997 23.5997 76.2012 23.0082 76.2012 22.2799C76.2012 21.5504 76.7997 20.9601 77.5367 20.9601C78.2738 20.9601 78.8723 21.5515 78.8723 22.2799Z" fill="white"/>
<path d="M91.4348 22.2799C91.4348 23.0082 90.8363 23.5997 90.0992 23.5997C89.3622 23.5997 88.7637 23.0082 88.7637 22.2799C88.7637 21.5504 89.3622 20.9601 90.0992 20.9601C90.8375 20.9601 91.4348 21.5515 91.4348 22.2799Z" fill="white"/>
<path d="M103.999 22.2799C103.999 23.0094 103.402 23.5997 102.664 23.5997C101.925 23.5997 101.328 23.0082 101.328 22.2799C101.328 21.5504 101.927 20.9601 102.664 20.9601C103.402 20.9601 103.999 21.5515 103.999 22.2799Z" fill="white"/>
<path d="M3.48948 32.758C3.48948 33.4864 2.89218 34.0778 2.15392 34.0778C1.41566 34.0778 0.818359 33.4875 0.818359 32.758C0.818359 32.0285 1.41566 31.4382 2.15392 31.4382C2.89218 31.4382 3.48948 32.0297 3.48948 32.758Z" fill="white"/>
<path d="M16.052 32.758C16.052 33.4864 15.4535 34.0778 14.7164 34.0778C13.9793 34.0778 13.3809 33.4875 13.3809 32.758C13.3809 32.0285 13.9793 31.4382 14.7164 31.4382C15.4547 31.4382 16.052 32.0297 16.052 32.758Z" fill="white"/>
<path d="M28.6164 32.758C28.6164 33.4864 28.0179 34.0778 27.2809 34.0778C26.5438 34.0778 25.9453 33.4875 25.9453 32.758C25.9453 32.0285 26.5438 31.4382 27.2809 31.4382C28.0179 31.4382 28.6164 32.0297 28.6164 32.758Z" fill="white"/>
<path d="M41.1809 32.758C41.1809 33.4864 40.5824 34.0778 39.8453 34.0778C39.1083 34.0778 38.5098 33.4875 38.5098 32.758C38.5098 32.0285 39.1071 31.4382 39.8453 31.4382C40.5836 31.4382 41.1809 32.0297 41.1809 32.758Z" fill="white"/>
<path d="M53.7453 32.758C53.7453 33.4864 53.148 34.0778 52.4098 34.0778C51.6715 34.0778 51.0742 33.4875 51.0742 32.758C51.0742 32.0285 51.6727 31.4382 52.4098 31.4382C53.1469 31.4382 53.7453 32.0297 53.7453 32.758Z" fill="white"/>
<path d="M66.3098 32.758C66.3098 33.4864 65.7113 34.0778 64.9742 34.0778C64.2372 34.0778 63.6387 33.4875 63.6387 32.758C63.6387 32.0285 64.2372 31.4382 64.9742 31.4382C65.7125 31.4382 66.3098 32.0297 66.3098 32.758Z" fill="white"/>
<path d="M78.8723 32.758C78.8723 33.4864 78.2738 34.0778 77.5367 34.0778C76.7997 34.0778 76.2012 33.4875 76.2012 32.758C76.2012 32.0285 76.7997 31.4382 77.5367 31.4382C78.2738 31.4382 78.8723 32.0297 78.8723 32.758Z" fill="white"/>
<path d="M91.4348 32.758C91.4348 33.4864 90.8363 34.0778 90.0992 34.0778C89.3622 34.0778 88.7637 33.4875 88.7637 32.758C88.7637 32.0285 89.3622 31.4382 90.0992 31.4382C90.8375 31.4382 91.4348 32.0297 91.4348 32.758Z" fill="white"/>
<path d="M103.999 32.758C103.999 33.4864 103.401 34.0778 102.664 34.0778C101.925 34.0778 101.328 33.4875 101.328 32.758C101.328 32.0285 101.927 31.4382 102.664 31.4382C103.402 31.4382 103.999 32.0297 103.999 32.758Z" fill="white"/>
<path d="M3.48948 43.24C3.48948 43.9695 2.89218 44.5598 2.15392 44.5598C1.41566 44.5598 0.818359 43.9684 0.818359 43.24C0.818359 42.5116 1.41566 41.9202 2.15392 41.9202C2.89218 41.9202 3.48948 42.5105 3.48948 43.24Z" fill="white"/>
<path d="M16.052 43.24C16.052 43.9695 15.4535 44.5598 14.7164 44.5598C13.9793 44.5598 13.3809 43.9684 13.3809 43.24C13.3809 42.5116 13.9793 41.9202 14.7164 41.9202C15.4547 41.9202 16.052 42.5105 16.052 43.24Z" fill="white"/>
<path d="M28.6164 43.24C28.6164 43.9695 28.0179 44.5598 27.2809 44.5598C26.5438 44.5598 25.9453 43.9684 25.9453 43.24C25.9453 42.5116 26.5438 41.9202 27.2809 41.9202C28.0179 41.9202 28.6164 42.5105 28.6164 43.24Z" fill="white"/>
<path d="M41.1809 43.24C41.1809 43.9695 40.5824 44.5598 39.8453 44.5598C39.1083 44.5598 38.5098 43.9684 38.5098 43.24C38.5098 42.5116 39.1071 41.9202 39.8453 41.9202C40.5836 41.9202 41.1809 42.5105 41.1809 43.24Z" fill="white"/>
<path d="M53.7453 43.24C53.7453 43.9695 53.148 44.5598 52.4098 44.5598C51.6715 44.5598 51.0742 43.9684 51.0742 43.24C51.0742 42.5116 51.6727 41.9202 52.4098 41.9202C53.1469 41.9202 53.7453 42.5105 53.7453 43.24Z" fill="white"/>
<path d="M66.3098 43.24C66.3098 43.9695 65.7113 44.5598 64.9742 44.5598C64.2372 44.5598 63.6387 43.9684 63.6387 43.24C63.6387 42.5116 64.2372 41.9202 64.9742 41.9202C65.7125 41.9202 66.3098 42.5105 66.3098 43.24Z" fill="white"/>
<path d="M78.8723 43.24C78.8723 43.9695 78.2738 44.5598 77.5367 44.5598C76.7997 44.5598 76.2012 43.9684 76.2012 43.24C76.2012 42.5116 76.7997 41.9202 77.5367 41.9202C78.2738 41.9202 78.8723 42.5105 78.8723 43.24Z" fill="white"/>
<path d="M91.4348 43.24C91.4348 43.9695 90.8363 44.5598 90.0992 44.5598C89.3622 44.5598 88.7637 43.9684 88.7637 43.24C88.7637 42.5116 89.3622 41.9202 90.0992 41.9202C90.8375 41.9202 91.4348 42.5105 91.4348 43.24Z" fill="white"/>
<path d="M103.999 43.24C103.999 43.9695 103.401 44.5598 102.664 44.5598C101.925 44.5598 101.328 43.9684 101.328 43.24C101.328 42.5116 101.927 41.9202 102.664 41.9202C103.402 41.9202 103.999 42.5105 103.999 43.24Z" fill="white"/>
<path d="M2.15392 55.0398C2.89153 55.0398 3.48948 54.449 3.48948 53.7201C3.48948 52.9912 2.89153 52.4003 2.15392 52.4003C1.41631 52.4003 0.818359 52.9912 0.818359 53.7201C0.818359 54.449 1.41631 55.0398 2.15392 55.0398Z" fill="white"/>
<path d="M14.7164 55.0398C15.454 55.0398 16.052 54.449 16.052 53.7201C16.052 52.9912 15.454 52.4003 14.7164 52.4003C13.9788 52.4003 13.3809 52.9912 13.3809 53.7201C13.3809 54.449 13.9788 55.0398 14.7164 55.0398Z" fill="white"/>
<path d="M28.6164 53.7201C28.6164 54.4484 28.0179 55.0398 27.2809 55.0398C26.5438 55.0398 25.9453 54.4484 25.9453 53.7201C25.9453 52.9905 26.5438 52.4003 27.2809 52.4003C28.0179 52.4003 28.6164 52.9905 28.6164 53.7201Z" fill="white"/>
<path d="M41.1809 53.7201C41.1809 54.4484 40.5824 55.0398 39.8453 55.0398C39.1083 55.0398 38.5098 54.4484 38.5098 53.7201C38.5098 52.9905 39.1071 52.4003 39.8453 52.4003C40.5836 52.4003 41.1809 52.9905 41.1809 53.7201Z" fill="white"/>
<path d="M53.7453 53.7201C53.7453 54.4484 53.148 55.0398 52.4098 55.0398C51.6715 55.0398 51.0742 54.4484 51.0742 53.7201C51.0742 52.9905 51.6727 52.4003 52.4098 52.4003C53.1469 52.4003 53.7453 52.9905 53.7453 53.7201Z" fill="white"/>
<path d="M64.9742 55.0398C65.7118 55.0398 66.3098 54.449 66.3098 53.7201C66.3098 52.9912 65.7118 52.4003 64.9742 52.4003C64.2366 52.4003 63.6387 52.9912 63.6387 53.7201C63.6387 54.449 64.2366 55.0398 64.9742 55.0398Z" fill="white"/>
<path d="M77.5367 55.0398C78.2743 55.0398 78.8723 54.449 78.8723 53.7201C78.8723 52.9912 78.2743 52.4003 77.5367 52.4003C76.7991 52.4003 76.2012 52.9912 76.2012 53.7201C76.2012 54.449 76.7991 55.0398 77.5367 55.0398Z" fill="white"/>
<path d="M91.4348 53.7201C91.4348 54.4484 90.8363 55.0398 90.0992 55.0398C89.3622 55.0398 88.7637 54.4484 88.7637 53.7201C88.7637 52.9905 89.3622 52.4003 90.0992 52.4003C90.8375 52.4003 91.4348 52.9905 91.4348 53.7201Z" fill="white"/>
<path d="M103.999 53.7201C103.999 54.4484 103.401 55.0398 102.664 55.0398C101.925 55.0398 101.328 54.4484 101.328 53.7201C101.328 52.9905 101.927 52.4003 102.664 52.4003C103.402 52.4003 103.999 52.9905 103.999 53.7201Z" fill="white"/>
<path d="M2.15392 65.518C2.89153 65.518 3.48948 64.9271 3.48948 64.1982C3.48948 63.4693 2.89153 62.8784 2.15392 62.8784C1.41631 62.8784 0.818359 63.4693 0.818359 64.1982C0.818359 64.9271 1.41631 65.518 2.15392 65.518Z" fill="white"/>
<path d="M14.7164 65.518C15.454 65.518 16.052 64.9271 16.052 64.1982C16.052 63.4693 15.454 62.8784 14.7164 62.8784C13.9788 62.8784 13.3809 63.4693 13.3809 64.1982C13.3809 64.9271 13.9788 65.518 14.7164 65.518Z" fill="white"/>
<path d="M28.6164 64.1982C28.6164 64.9277 28.0179 65.518 27.2809 65.518C26.5438 65.518 25.9453 64.9277 25.9453 64.1982C25.9453 63.4687 26.5438 62.8784 27.2809 62.8784C28.0179 62.8784 28.6164 63.4698 28.6164 64.1982Z" fill="white"/>
<path d="M41.1809 64.1982C41.1809 64.9277 40.5824 65.518 39.8453 65.518C39.1083 65.518 38.5098 64.9277 38.5098 64.1982C38.5098 63.4687 39.1071 62.8784 39.8453 62.8784C40.5836 62.8784 41.1809 63.4698 41.1809 64.1982Z" fill="white"/>
<path d="M53.7453 64.1982C53.7453 64.9277 53.148 65.518 52.4098 65.518C51.6715 65.518 51.0742 64.9277 51.0742 64.1982C51.0742 63.4687 51.6727 62.8784 52.4098 62.8784C53.1469 62.8784 53.7453 63.4698 53.7453 64.1982Z" fill="white"/>
<path d="M64.9742 65.518C65.7118 65.518 66.3098 64.9271 66.3098 64.1982C66.3098 63.4693 65.7118 62.8784 64.9742 62.8784C64.2366 62.8784 63.6387 63.4693 63.6387 64.1982C63.6387 64.9271 64.2366 65.518 64.9742 65.518Z" fill="white"/>
<path d="M77.5367 65.518C78.2743 65.518 78.8723 64.9271 78.8723 64.1982C78.8723 63.4693 78.2743 62.8784 77.5367 62.8784C76.7991 62.8784 76.2012 63.4693 76.2012 64.1982C76.2012 64.9271 76.7991 65.518 77.5367 65.518Z" fill="white"/>
<path d="M91.4348 64.1982C91.4348 64.9277 90.8363 65.518 90.0992 65.518C89.3622 65.518 88.7637 64.9277 88.7637 64.1982C88.7637 63.4687 89.3622 62.8784 90.0992 62.8784C90.8375 62.8784 91.4348 63.4698 91.4348 64.1982Z" fill="white"/>
<path d="M103.999 64.1982C103.999 64.9277 103.401 65.518 102.664 65.518C101.925 65.518 101.328 64.9277 101.328 64.1982C101.328 63.4687 101.927 62.8784 102.664 62.8784C103.402 62.8784 103.999 63.4698 103.999 64.1982Z" fill="white"/>
<path d="M3.48948 74.6802C3.48948 75.4097 2.89218 76 2.15392 76C1.41566 76 0.818359 75.4085 0.818359 74.6802C0.818359 73.9518 1.41566 73.3604 2.15392 73.3604C2.89218 73.3604 3.48948 73.9518 3.48948 74.6802Z" fill="white"/>
<path d="M16.052 74.6802C16.052 75.4097 15.4535 76 14.7164 76C13.9793 76 13.3809 75.4085 13.3809 74.6802C13.3809 73.9518 13.9793 73.3604 14.7164 73.3604C15.4547 73.3604 16.052 73.9518 16.052 74.6802Z" fill="white"/>
<path d="M28.6164 74.6802C28.6164 75.4097 28.0179 76 27.2809 76C26.5438 76 25.9453 75.4085 25.9453 74.6802C25.9453 73.9518 26.5438 73.3604 27.2809 73.3604C28.0179 73.3604 28.6164 73.9518 28.6164 74.6802Z" fill="white"/>
<path d="M41.1809 74.6802C41.1809 75.4097 40.5824 76 39.8453 76C39.1083 76 38.5098 75.4085 38.5098 74.6802C38.5098 73.9518 39.1071 73.3604 39.8453 73.3604C40.5836 73.3604 41.1809 73.9518 41.1809 74.6802Z" fill="white"/>
<path d="M53.7453 74.6802C53.7453 75.4097 53.148 76 52.4098 76C51.6715 76 51.0742 75.4085 51.0742 74.6802C51.0742 73.9518 51.6727 73.3604 52.4098 73.3604C53.1469 73.3604 53.7453 73.9518 53.7453 74.6802Z" fill="white"/>
<path d="M66.3098 74.6802C66.3098 75.4097 65.7113 76 64.9742 76C64.2372 76 63.6387 75.4085 63.6387 74.6802C63.6387 73.9518 64.2372 73.3604 64.9742 73.3604C65.7125 73.3604 66.3098 73.9518 66.3098 74.6802Z" fill="white"/>
<path d="M78.8723 74.6802C78.8723 75.4097 78.2738 76 77.5367 76C76.7997 76 76.2012 75.4085 76.2012 74.6802C76.2012 73.9518 76.7997 73.3604 77.5367 73.3604C78.2738 73.3604 78.8723 73.9518 78.8723 74.6802Z" fill="white"/>
<path d="M91.4348 74.6802C91.4348 75.4097 90.8363 76 90.0992 76C89.3622 76 88.7637 75.4085 88.7637 74.6802C88.7637 73.9518 89.3622 73.3604 90.0992 73.3604C90.8375 73.3604 91.4348 73.9518 91.4348 74.6802Z" fill="white"/>
<path d="M103.999 74.6802C103.999 75.4097 103.401 76 102.664 76C101.925 76 101.328 75.4085 101.328 74.6802C101.328 73.9518 101.927 73.3604 102.664 73.3604C103.402 73.3604 103.999 73.9518 103.999 74.6802Z" fill="white"/>
</g>
</svg>
