<svg width="166" height="76" viewBox="0 0 166 76" fill="none" xmlns="http://www.w3.org/2000/svg">
<g opacity="0.2">
<path d="M1.33556 2.63954C2.07317 2.63954 2.67113 2.04866 2.67113 1.31977C2.67113 0.590881 2.07317 0 1.33556 0C0.597952 0 0 0.590881 0 1.31977C0 2.04866 0.597952 2.63954 1.33556 2.63954Z" fill="white"/>
<path d="M13.9 2.63954C14.6376 2.63954 15.2356 2.04866 15.2356 1.31977C15.2356 0.590881 14.6376 0 13.9 0C13.1624 0 12.5645 0.590881 12.5645 1.31977C12.5645 2.04866 13.1624 2.63954 13.9 2.63954Z" fill="white"/>
<path d="M27.7981 1.31977C27.7981 2.0493 27.1996 2.63954 26.4625 2.63954C25.7254 2.63954 25.127 2.0493 25.127 1.31977C25.127 0.590237 25.7254 0 26.4625 0C27.1996 0 27.7981 0.590237 27.7981 1.31977Z" fill="white"/>
<path d="M39.025 2.63954C39.7626 2.63954 40.3606 2.04866 40.3606 1.31977C40.3606 0.590881 39.7626 0 39.025 0C38.2874 0 37.6895 0.590881 37.6895 1.31977C37.6895 2.04866 38.2874 2.63954 39.025 2.63954Z" fill="white"/>
<path d="M52.927 1.31977C52.927 2.0493 52.3285 2.63954 51.5914 2.63954C50.8532 2.63954 50.2559 2.0493 50.2559 1.31977C50.2559 0.590237 50.8544 0 51.5914 0C52.3297 0 52.927 0.590237 52.927 1.31977Z" fill="white"/>
<path d="M64.1541 2.63954C64.8917 2.63954 65.4896 2.04866 65.4896 1.31977C65.4896 0.590881 64.8917 0 64.1541 0C63.4164 0 62.8185 0.590881 62.8185 1.31977C62.8185 2.04866 63.4164 2.63954 64.1541 2.63954Z" fill="white"/>
<path d="M76.7164 2.63954C77.454 2.63954 78.052 2.04866 78.052 1.31977C78.052 0.590881 77.454 0 76.7164 0C75.9788 0 75.3809 0.590881 75.3809 1.31977C75.3809 2.04866 75.9788 2.63954 76.7164 2.63954Z" fill="white"/>
<path d="M90.6163 1.31977C90.6163 2.0493 90.0178 2.63954 89.2807 2.63954C88.5436 2.63954 87.9451 2.0493 87.9451 1.31977C87.9451 0.590237 88.5436 0 89.2807 0C90.0178 0 90.6163 0.590237 90.6163 1.31977Z" fill="white"/>
<path d="M103.181 1.31977C103.181 2.0493 102.582 2.63954 101.845 2.63954C101.108 2.63954 100.51 2.0493 100.51 1.31977C100.51 0.590237 101.107 0 101.845 0C102.584 0 103.181 0.590237 103.181 1.31977Z" fill="white"/>
<path d="M115.745 1.31977C115.745 2.0493 115.148 2.63954 114.41 2.63954C113.672 2.63954 113.074 2.0493 113.074 1.31977C113.074 0.590237 113.673 0 114.41 0C115.147 0 115.745 0.590237 115.745 1.31977Z" fill="white"/>
<path d="M126.974 2.63954C127.712 2.63954 128.31 2.04866 128.31 1.31977C128.31 0.590881 127.712 0 126.974 0C126.237 0 125.639 0.590881 125.639 1.31977C125.639 2.04866 126.237 2.63954 126.974 2.63954Z" fill="white"/>
<path d="M139.537 2.63954C140.274 2.63954 140.872 2.04866 140.872 1.31977C140.872 0.590881 140.274 0 139.537 0C138.799 0 138.201 0.590881 138.201 1.31977C138.201 2.04866 138.799 2.63954 139.537 2.63954Z" fill="white"/>
<path d="M153.435 1.31977C153.435 2.0493 152.836 2.63954 152.099 2.63954C151.362 2.63954 150.764 2.0493 150.764 1.31977C150.764 0.590237 151.362 0 152.099 0C152.837 0 153.435 0.590237 153.435 1.31977Z" fill="white"/>
<path d="M165.999 1.31977C165.999 2.0493 165.401 2.63954 164.664 2.63954C163.925 2.63954 163.328 2.0493 163.328 1.31977C163.328 0.590237 163.927 0 164.664 0C165.402 0 165.999 0.590237 165.999 1.31977Z" fill="white"/>
<path d="M1.33556 13.122C2.07317 13.122 2.67113 12.5311 2.67113 11.8022C2.67113 11.0733 2.07317 10.4824 1.33556 10.4824C0.597952 10.4824 0 11.0733 0 11.8022C0 12.5311 0.597952 13.122 1.33556 13.122Z" fill="white"/>
<path d="M13.9 13.122C14.6376 13.122 15.2356 12.5311 15.2356 11.8022C15.2356 11.0733 14.6376 10.4824 13.9 10.4824C13.1624 10.4824 12.5645 11.0733 12.5645 11.8022C12.5645 12.5311 13.1624 13.122 13.9 13.122Z" fill="white"/>
<path d="M27.7981 11.8022C27.7981 12.5317 27.1996 13.122 26.4625 13.122C25.7254 13.122 25.127 12.5317 25.127 11.8022C25.127 11.0727 25.7254 10.4824 26.4625 10.4824C27.1996 10.4812 27.7981 11.0727 27.7981 11.8022Z" fill="white"/>
<path d="M39.025 13.122C39.7626 13.122 40.3606 12.5311 40.3606 11.8022C40.3606 11.0733 39.7626 10.4824 39.025 10.4824C38.2874 10.4824 37.6895 11.0733 37.6895 11.8022C37.6895 12.5311 38.2874 13.122 39.025 13.122Z" fill="white"/>
<path d="M52.927 11.8022C52.927 12.5317 52.3285 13.122 51.5914 13.122C50.8532 13.122 50.2559 12.5317 50.2559 11.8022C50.2559 11.0727 50.8544 10.4824 51.5914 10.4824C52.3297 10.4812 52.927 11.0727 52.927 11.8022Z" fill="white"/>
<path d="M64.1539 13.122C64.8915 13.122 65.4895 12.5311 65.4895 11.8022C65.4895 11.0733 64.8915 10.4824 64.1539 10.4824C63.4163 10.4824 62.8184 11.0733 62.8184 11.8022C62.8184 12.5311 63.4163 13.122 64.1539 13.122Z" fill="white"/>
<path d="M76.7164 13.122C77.454 13.122 78.052 12.5311 78.052 11.8022C78.052 11.0733 77.454 10.4824 76.7164 10.4824C75.9788 10.4824 75.3809 11.0733 75.3809 11.8022C75.3809 12.5311 75.9788 13.122 76.7164 13.122Z" fill="white"/>
<path d="M90.6164 11.8022C90.6164 12.5317 90.0179 13.122 89.2809 13.122C88.5438 13.122 87.9453 12.5317 87.9453 11.8022C87.9453 11.0727 88.5438 10.4824 89.2809 10.4824C90.0179 10.4812 90.6164 11.0727 90.6164 11.8022Z" fill="white"/>
<path d="M103.181 11.8022C103.181 12.5317 102.582 13.122 101.845 13.122C101.108 13.122 100.51 12.5317 100.51 11.8022C100.51 11.0727 101.107 10.4824 101.845 10.4824C102.584 10.4824 103.181 11.0727 103.181 11.8022Z" fill="white"/>
<path d="M115.745 11.8022C115.745 12.5317 115.148 13.122 114.41 13.122C113.672 13.122 113.074 12.5317 113.074 11.8022C113.074 11.0727 113.673 10.4824 114.41 10.4824C115.147 10.4824 115.745 11.0727 115.745 11.8022Z" fill="white"/>
<path d="M126.974 13.122C127.712 13.122 128.31 12.5311 128.31 11.8022C128.31 11.0733 127.712 10.4824 126.974 10.4824C126.237 10.4824 125.639 11.0733 125.639 11.8022C125.639 12.5311 126.237 13.122 126.974 13.122Z" fill="white"/>
<path d="M139.537 13.122C140.274 13.122 140.872 12.5311 140.872 11.8022C140.872 11.0733 140.274 10.4824 139.537 10.4824C138.799 10.4824 138.201 11.0733 138.201 11.8022C138.201 12.5311 138.799 13.122 139.537 13.122Z" fill="white"/>
<path d="M153.435 11.8022C153.435 12.5317 152.836 13.122 152.099 13.122C151.362 13.122 150.764 12.5317 150.764 11.8022C150.764 11.0727 151.362 10.4824 152.099 10.4824C152.837 10.4812 153.435 11.0727 153.435 11.8022Z" fill="white"/>
<path d="M165.999 11.8022C165.999 12.5317 165.401 13.122 164.664 13.122C163.925 13.122 163.328 12.5317 163.328 11.8022C163.328 11.0727 163.927 10.4824 164.664 10.4824C165.402 10.4812 165.999 11.0727 165.999 11.8022Z" fill="white"/>
<path d="M2.67113 22.28C2.67113 23.0095 2.07263 23.5997 1.33556 23.5997C0.598495 23.5997 0 23.0083 0 22.28C0 21.5504 0.5973 20.9602 1.33556 20.9602C2.07263 20.9602 2.67113 21.5516 2.67113 22.28Z" fill="white"/>
<path d="M15.2356 22.28C15.2356 23.0083 14.6383 23.5997 13.9 23.5997C13.1629 23.5997 12.5645 23.0083 12.5645 22.28C12.5645 21.5504 13.1629 20.9602 13.9 20.9602C14.6371 20.9602 15.2356 21.5516 15.2356 22.28Z" fill="white"/>
<path d="M27.7981 22.28C27.7981 23.0083 27.1996 23.5997 26.4625 23.5997C25.7254 23.5997 25.127 23.0083 25.127 22.28C25.127 21.5504 25.7254 20.9602 26.4625 20.9602C27.1996 20.9602 27.7981 21.5516 27.7981 22.28Z" fill="white"/>
<path d="M40.3606 22.28C40.3606 23.0083 39.7633 23.5997 39.025 23.5997C38.2868 23.5997 37.6895 23.0083 37.6895 22.28C37.6895 21.5504 38.2868 20.9602 39.025 20.9602C39.7633 20.9602 40.3606 21.5516 40.3606 22.28Z" fill="white"/>
<path d="M52.927 22.28C52.927 23.0083 52.3285 23.5997 51.5914 23.5997C50.8532 23.5997 50.2559 23.0083 50.2559 22.28C50.2559 21.5504 50.8544 20.9602 51.5914 20.9602C52.3297 20.9602 52.927 21.5516 52.927 22.28Z" fill="white"/>
<path d="M65.4895 22.28C65.4895 23.0083 64.8922 23.5997 64.1539 23.5997C63.4157 23.5997 62.8184 23.0083 62.8184 22.28C62.8184 21.5504 63.4157 20.9602 64.1539 20.9602C64.8922 20.9602 65.4895 21.5516 65.4895 22.28Z" fill="white"/>
<path d="M78.052 22.28C78.052 23.0095 77.4547 23.5997 76.7164 23.5997C75.9793 23.5997 75.3809 23.0083 75.3809 22.28C75.3809 21.5504 75.9793 20.9602 76.7164 20.9602C77.4547 20.9602 78.052 21.5516 78.052 22.28Z" fill="white"/>
<path d="M90.6164 22.28C90.6164 23.0095 90.0179 23.5997 89.2809 23.5997C88.5438 23.5997 87.9453 23.0083 87.9453 22.28C87.9453 21.5504 88.5438 20.9602 89.2809 20.9602C90.0179 20.9602 90.6164 21.5516 90.6164 22.28Z" fill="white"/>
<path d="M103.181 22.28C103.181 23.0083 102.582 23.5997 101.845 23.5997C101.108 23.5997 100.51 23.0083 100.51 22.28C100.51 21.5504 101.107 20.9602 101.845 20.9602C102.584 20.9602 103.181 21.5516 103.181 22.28Z" fill="white"/>
<path d="M115.745 22.28C115.745 23.0083 115.148 23.5997 114.41 23.5997C113.672 23.5997 113.074 23.0083 113.074 22.28C113.074 21.5504 113.673 20.9602 114.41 20.9602C115.147 20.9602 115.745 21.5516 115.745 22.28Z" fill="white"/>
<path d="M128.31 22.28C128.31 23.0083 127.711 23.5997 126.974 23.5997C126.237 23.5997 125.639 23.0083 125.639 22.28C125.639 21.5504 126.237 20.9602 126.974 20.9602C127.712 20.9602 128.31 21.5516 128.31 22.28Z" fill="white"/>
<path d="M140.872 22.28C140.872 23.0083 140.274 23.5997 139.537 23.5997C138.8 23.5997 138.201 23.0083 138.201 22.28C138.201 21.5504 138.8 20.9602 139.537 20.9602C140.274 20.9602 140.872 21.5516 140.872 22.28Z" fill="white"/>
<path d="M153.435 22.28C153.435 23.0083 152.836 23.5997 152.099 23.5997C151.362 23.5997 150.764 23.0083 150.764 22.28C150.764 21.5504 151.362 20.9602 152.099 20.9602C152.837 20.9602 153.435 21.5516 153.435 22.28Z" fill="white"/>
<path d="M165.999 22.28C165.999 23.0095 165.402 23.5997 164.664 23.5997C163.925 23.5997 163.328 23.0083 163.328 22.28C163.328 21.5504 163.927 20.9602 164.664 20.9602C165.402 20.9602 165.999 21.5516 165.999 22.28Z" fill="white"/>
<path d="M2.67113 32.758C2.67113 33.4864 2.07263 34.0778 1.33556 34.0778C0.598495 34.0778 0 33.4875 0 32.758C0 32.0285 0.5973 31.4382 1.33556 31.4382C2.07263 31.4382 2.67113 32.0297 2.67113 32.758Z" fill="white"/>
<path d="M15.2356 32.758C15.2356 33.4864 14.6383 34.0778 13.9 34.0778C13.1629 34.0778 12.5645 33.4875 12.5645 32.758C12.5645 32.0285 13.1629 31.4382 13.9 31.4382C14.6371 31.4382 15.2356 32.0297 15.2356 32.758Z" fill="white"/>
<path d="M27.7981 32.758C27.7981 33.4864 27.1996 34.0778 26.4625 34.0778C25.7254 34.0778 25.127 33.4875 25.127 32.758C25.127 32.0285 25.7254 31.4382 26.4625 31.4382C27.1996 31.4382 27.7981 32.0297 27.7981 32.758Z" fill="white"/>
<path d="M40.3606 32.758C40.3606 33.4864 39.7633 34.0778 39.025 34.0778C38.2868 34.0778 37.6895 33.4875 37.6895 32.758C37.6895 32.0285 38.2868 31.4382 39.025 31.4382C39.7633 31.4382 40.3606 32.0297 40.3606 32.758Z" fill="white"/>
<path d="M52.927 32.758C52.927 33.4864 52.3285 34.0778 51.5914 34.0778C50.8532 34.0778 50.2559 33.4875 50.2559 32.758C50.2559 32.0285 50.8544 31.4382 51.5914 31.4382C52.3297 31.4382 52.927 32.0297 52.927 32.758Z" fill="white"/>
<path d="M65.4895 32.758C65.4895 33.4864 64.8922 34.0778 64.1539 34.0778C63.4157 34.0778 62.8184 33.4875 62.8184 32.758C62.8184 32.0285 63.4157 31.4382 64.1539 31.4382C64.8922 31.4382 65.4895 32.0297 65.4895 32.758Z" fill="white"/>
<path d="M78.052 32.758C78.052 33.4864 77.4535 34.0778 76.7164 34.0778C75.9793 34.0778 75.3809 33.4875 75.3809 32.758C75.3809 32.0285 75.9793 31.4382 76.7164 31.4382C77.4547 31.4382 78.052 32.0297 78.052 32.758Z" fill="white"/>
<path d="M90.6164 32.758C90.6164 33.4864 90.0179 34.0778 89.2809 34.0778C88.5438 34.0778 87.9453 33.4875 87.9453 32.758C87.9453 32.0285 88.5438 31.4382 89.2809 31.4382C90.0179 31.4382 90.6164 32.0297 90.6164 32.758Z" fill="white"/>
<path d="M103.181 32.758C103.181 33.4864 102.582 34.0778 101.845 34.0778C101.108 34.0778 100.51 33.4875 100.51 32.758C100.51 32.0285 101.107 31.4382 101.845 31.4382C102.584 31.4382 103.181 32.0297 103.181 32.758Z" fill="white"/>
<path d="M115.745 32.758C115.745 33.4864 115.148 34.0778 114.41 34.0778C113.672 34.0778 113.074 33.4875 113.074 32.758C113.074 32.0285 113.673 31.4382 114.41 31.4382C115.147 31.4382 115.745 32.0297 115.745 32.758Z" fill="white"/>
<path d="M128.31 32.758C128.31 33.4864 127.711 34.0778 126.974 34.0778C126.237 34.0778 125.639 33.4875 125.639 32.758C125.639 32.0285 126.237 31.4382 126.974 31.4382C127.712 31.4382 128.31 32.0297 128.31 32.758Z" fill="white"/>
<path d="M140.872 32.758C140.872 33.4864 140.274 34.0778 139.537 34.0778C138.8 34.0778 138.201 33.4875 138.201 32.758C138.201 32.0285 138.8 31.4382 139.537 31.4382C140.274 31.4382 140.872 32.0297 140.872 32.758Z" fill="white"/>
<path d="M153.435 32.758C153.435 33.4864 152.836 34.0778 152.099 34.0778C151.362 34.0778 150.764 33.4875 150.764 32.758C150.764 32.0285 151.362 31.4382 152.099 31.4382C152.837 31.4382 153.435 32.0297 153.435 32.758Z" fill="white"/>
<path d="M165.999 32.758C165.999 33.4864 165.401 34.0778 164.664 34.0778C163.925 34.0778 163.328 33.4875 163.328 32.758C163.328 32.0285 163.927 31.4382 164.664 31.4382C165.402 31.4382 165.999 32.0297 165.999 32.758Z" fill="white"/>
<path d="M2.67113 43.2397C2.67113 43.9692 2.07263 44.5595 1.33556 44.5595C0.598495 44.5595 0 43.968 0 43.2397C0 42.5113 0.5973 41.9199 1.33556 41.9199C2.07263 41.9199 2.67113 42.5102 2.67113 43.2397Z" fill="white"/>
<path d="M15.2356 43.2397C15.2356 43.9692 14.6383 44.5595 13.9 44.5595C13.1629 44.5595 12.5645 43.968 12.5645 43.2397C12.5645 42.5113 13.1629 41.9199 13.9 41.9199C14.6371 41.9199 15.2356 42.5102 15.2356 43.2397Z" fill="white"/>
<path d="M27.7981 43.2397C27.7981 43.9692 27.1996 44.5595 26.4625 44.5595C25.7254 44.5595 25.127 43.968 25.127 43.2397C25.127 42.5113 25.7254 41.9199 26.4625 41.9199C27.1996 41.9199 27.7981 42.5102 27.7981 43.2397Z" fill="white"/>
<path d="M40.3606 43.2397C40.3606 43.9692 39.7633 44.5595 39.025 44.5595C38.2868 44.5595 37.6895 43.968 37.6895 43.2397C37.6895 42.5113 38.2868 41.9199 39.025 41.9199C39.7633 41.9199 40.3606 42.5102 40.3606 43.2397Z" fill="white"/>
<path d="M52.927 43.2397C52.927 43.9692 52.3285 44.5595 51.5914 44.5595C50.8532 44.5595 50.2559 43.968 50.2559 43.2397C50.2559 42.5113 50.8544 41.9199 51.5914 41.9199C52.3297 41.9199 52.927 42.5102 52.927 43.2397Z" fill="white"/>
<path d="M65.4895 43.2397C65.4895 43.9692 64.8922 44.5595 64.1539 44.5595C63.4157 44.5595 62.8184 43.968 62.8184 43.2397C62.8184 42.5113 63.4157 41.9199 64.1539 41.9199C64.8922 41.9199 65.4895 42.5102 65.4895 43.2397Z" fill="white"/>
<path d="M78.052 43.2397C78.052 43.9692 77.4535 44.5595 76.7164 44.5595C75.9793 44.5595 75.3809 43.968 75.3809 43.2397C75.3809 42.5113 75.9793 41.9199 76.7164 41.9199C77.4547 41.9199 78.052 42.5102 78.052 43.2397Z" fill="white"/>
<path d="M90.6164 43.2397C90.6164 43.9692 90.0179 44.5595 89.2809 44.5595C88.5438 44.5595 87.9453 43.968 87.9453 43.2397C87.9453 42.5113 88.5438 41.9199 89.2809 41.9199C90.0179 41.9199 90.6164 42.5102 90.6164 43.2397Z" fill="white"/>
<path d="M103.181 43.2397C103.181 43.9692 102.582 44.5595 101.845 44.5595C101.108 44.5595 100.51 43.968 100.51 43.2397C100.51 42.5113 101.107 41.9199 101.845 41.9199C102.584 41.9199 103.181 42.5102 103.181 43.2397Z" fill="white"/>
<path d="M115.745 43.2397C115.745 43.9692 115.148 44.5595 114.41 44.5595C113.672 44.5595 113.074 43.968 113.074 43.2397C113.074 42.5113 113.673 41.9199 114.41 41.9199C115.147 41.9199 115.745 42.5102 115.745 43.2397Z" fill="white"/>
<path d="M128.31 43.2397C128.31 43.9692 127.711 44.5595 126.974 44.5595C126.237 44.5595 125.639 43.968 125.639 43.2397C125.639 42.5113 126.237 41.9199 126.974 41.9199C127.712 41.9199 128.31 42.5102 128.31 43.2397Z" fill="white"/>
<path d="M140.872 43.2397C140.872 43.9692 140.274 44.5595 139.537 44.5595C138.8 44.5595 138.201 43.968 138.201 43.2397C138.201 42.5113 138.8 41.9199 139.537 41.9199C140.274 41.9199 140.872 42.5102 140.872 43.2397Z" fill="white"/>
<path d="M153.435 43.2397C153.435 43.9692 152.836 44.5595 152.099 44.5595C151.362 44.5595 150.764 43.968 150.764 43.2397C150.764 42.5113 151.362 41.9199 152.099 41.9199C152.837 41.9199 153.435 42.5102 153.435 43.2397Z" fill="white"/>
<path d="M165.999 43.2397C165.999 43.9692 165.401 44.5595 164.664 44.5595C163.925 44.5595 163.328 43.968 163.328 43.2397C163.328 42.5113 163.927 41.9199 164.664 41.9199C165.402 41.9199 165.999 42.5102 165.999 43.2397Z" fill="white"/>
<path d="M1.33556 55.0399C2.07317 55.0399 2.67113 54.449 2.67113 53.7202C2.67113 52.9913 2.07317 52.4004 1.33556 52.4004C0.597952 52.4004 0 52.9913 0 53.7202C0 54.449 0.597952 55.0399 1.33556 55.0399Z" fill="white"/>
<path d="M13.9 55.0399C14.6376 55.0399 15.2356 54.449 15.2356 53.7202C15.2356 52.9913 14.6376 52.4004 13.9 52.4004C13.1624 52.4004 12.5645 52.9913 12.5645 53.7202C12.5645 54.449 13.1624 55.0399 13.9 55.0399Z" fill="white"/>
<path d="M27.7981 53.7202C27.7981 54.4485 27.1996 55.0399 26.4625 55.0399C25.7254 55.0399 25.127 54.4485 25.127 53.7202C25.127 52.9906 25.7254 52.4004 26.4625 52.4004C27.1996 52.4004 27.7981 52.9906 27.7981 53.7202Z" fill="white"/>
<path d="M39.025 55.0399C39.7626 55.0399 40.3606 54.449 40.3606 53.7202C40.3606 52.9913 39.7626 52.4004 39.025 52.4004C38.2874 52.4004 37.6895 52.9913 37.6895 53.7202C37.6895 54.449 38.2874 55.0399 39.025 55.0399Z" fill="white"/>
<path d="M52.927 53.7202C52.927 54.4485 52.3285 55.0399 51.5914 55.0399C50.8532 55.0399 50.2559 54.4485 50.2559 53.7202C50.2559 52.9906 50.8544 52.4004 51.5914 52.4004C52.3297 52.4004 52.927 52.9906 52.927 53.7202Z" fill="white"/>
<path d="M64.1539 55.0399C64.8915 55.0399 65.4895 54.449 65.4895 53.7202C65.4895 52.9913 64.8915 52.4004 64.1539 52.4004C63.4163 52.4004 62.8184 52.9913 62.8184 53.7202C62.8184 54.449 63.4163 55.0399 64.1539 55.0399Z" fill="white"/>
<path d="M76.7164 55.0399C77.454 55.0399 78.052 54.449 78.052 53.7202C78.052 52.9913 77.454 52.4004 76.7164 52.4004C75.9788 52.4004 75.3809 52.9913 75.3809 53.7202C75.3809 54.449 75.9788 55.0399 76.7164 55.0399Z" fill="white"/>
<path d="M90.6164 53.7202C90.6164 54.4485 90.0179 55.0399 89.2809 55.0399C88.5438 55.0399 87.9453 54.4485 87.9453 53.7202C87.9453 52.9906 88.5438 52.4004 89.2809 52.4004C90.0179 52.4004 90.6164 52.9906 90.6164 53.7202Z" fill="white"/>
<path d="M103.181 53.7202C103.181 54.4485 102.582 55.0399 101.845 55.0399C101.108 55.0399 100.51 54.4485 100.51 53.7202C100.51 52.9906 101.107 52.4004 101.845 52.4004C102.584 52.4004 103.181 52.9906 103.181 53.7202Z" fill="white"/>
<path d="M115.745 53.7202C115.745 54.4485 115.148 55.0399 114.41 55.0399C113.672 55.0399 113.074 54.4485 113.074 53.7202C113.074 52.9906 113.673 52.4004 114.41 52.4004C115.147 52.4004 115.745 52.9906 115.745 53.7202Z" fill="white"/>
<path d="M126.974 55.0399C127.712 55.0399 128.31 54.449 128.31 53.7202C128.31 52.9913 127.712 52.4004 126.974 52.4004C126.237 52.4004 125.639 52.9913 125.639 53.7202C125.639 54.449 126.237 55.0399 126.974 55.0399Z" fill="white"/>
<path d="M139.537 55.0399C140.274 55.0399 140.872 54.449 140.872 53.7202C140.872 52.9913 140.274 52.4004 139.537 52.4004C138.799 52.4004 138.201 52.9913 138.201 53.7202C138.201 54.449 138.799 55.0399 139.537 55.0399Z" fill="white"/>
<path d="M153.435 53.7202C153.435 54.4485 152.836 55.0399 152.099 55.0399C151.362 55.0399 150.764 54.4485 150.764 53.7202C150.764 52.9906 151.362 52.4004 152.099 52.4004C152.837 52.4004 153.435 52.9906 153.435 53.7202Z" fill="white"/>
<path d="M165.999 53.7202C165.999 54.4485 165.401 55.0399 164.664 55.0399C163.925 55.0399 163.328 54.4485 163.328 53.7202C163.328 52.9906 163.927 52.4004 164.664 52.4004C165.402 52.4004 165.999 52.9906 165.999 53.7202Z" fill="white"/>
<path d="M1.33556 65.5184C2.07317 65.5184 2.67113 64.9276 2.67113 64.1987C2.67113 63.4698 2.07317 62.8789 1.33556 62.8789C0.597952 62.8789 0 63.4698 0 64.1987C0 64.9276 0.597952 65.5184 1.33556 65.5184Z" fill="white"/>
<path d="M13.9 65.5184C14.6376 65.5184 15.2356 64.9276 15.2356 64.1987C15.2356 63.4698 14.6376 62.8789 13.9 62.8789C13.1624 62.8789 12.5645 63.4698 12.5645 64.1987C12.5645 64.9276 13.1624 65.5184 13.9 65.5184Z" fill="white"/>
<path d="M27.7981 64.1987C27.7981 64.9282 27.1996 65.5184 26.4625 65.5184C25.7254 65.5184 25.127 64.9282 25.127 64.1987C25.127 63.4691 25.7254 62.8789 26.4625 62.8789C27.1996 62.8789 27.7981 63.4703 27.7981 64.1987Z" fill="white"/>
<path d="M39.025 65.5184C39.7626 65.5184 40.3606 64.9276 40.3606 64.1987C40.3606 63.4698 39.7626 62.8789 39.025 62.8789C38.2874 62.8789 37.6895 63.4698 37.6895 64.1987C37.6895 64.9276 38.2874 65.5184 39.025 65.5184Z" fill="white"/>
<path d="M52.927 64.1987C52.927 64.9282 52.3285 65.5184 51.5914 65.5184C50.8532 65.5184 50.2559 64.9282 50.2559 64.1987C50.2559 63.4691 50.8544 62.8789 51.5914 62.8789C52.3297 62.8789 52.927 63.4703 52.927 64.1987Z" fill="white"/>
<path d="M64.1539 65.5184C64.8915 65.5184 65.4895 64.9276 65.4895 64.1987C65.4895 63.4698 64.8915 62.8789 64.1539 62.8789C63.4163 62.8789 62.8184 63.4698 62.8184 64.1987C62.8184 64.9276 63.4163 65.5184 64.1539 65.5184Z" fill="white"/>
<path d="M76.7164 65.5184C77.454 65.5184 78.052 64.9276 78.052 64.1987C78.052 63.4698 77.454 62.8789 76.7164 62.8789C75.9788 62.8789 75.3809 63.4698 75.3809 64.1987C75.3809 64.9276 75.9788 65.5184 76.7164 65.5184Z" fill="white"/>
<path d="M90.6164 64.1987C90.6164 64.9282 90.0179 65.5184 89.2809 65.5184C88.5438 65.5184 87.9453 64.9282 87.9453 64.1987C87.9453 63.4691 88.5438 62.8789 89.2809 62.8789C90.0179 62.8789 90.6164 63.4703 90.6164 64.1987Z" fill="white"/>
<path d="M103.181 64.1987C103.181 64.9282 102.582 65.5184 101.845 65.5184C101.108 65.5184 100.51 64.9282 100.51 64.1987C100.51 63.4691 101.107 62.8789 101.845 62.8789C102.584 62.8789 103.181 63.4703 103.181 64.1987Z" fill="white"/>
<path d="M115.745 64.1987C115.745 64.9282 115.148 65.5184 114.41 65.5184C113.672 65.5184 113.074 64.9282 113.074 64.1987C113.074 63.4691 113.673 62.8789 114.41 62.8789C115.147 62.8789 115.745 63.4703 115.745 64.1987Z" fill="white"/>
<path d="M126.974 65.5184C127.712 65.5184 128.31 64.9276 128.31 64.1987C128.31 63.4698 127.712 62.8789 126.974 62.8789C126.237 62.8789 125.639 63.4698 125.639 64.1987C125.639 64.9276 126.237 65.5184 126.974 65.5184Z" fill="white"/>
<path d="M139.537 65.5184C140.274 65.5184 140.872 64.9276 140.872 64.1987C140.872 63.4698 140.274 62.8789 139.537 62.8789C138.799 62.8789 138.201 63.4698 138.201 64.1987C138.201 64.9276 138.799 65.5184 139.537 65.5184Z" fill="white"/>
<path d="M153.435 64.1987C153.435 64.9282 152.836 65.5184 152.099 65.5184C151.362 65.5184 150.764 64.9282 150.764 64.1987C150.764 63.4691 151.362 62.8789 152.099 62.8789C152.837 62.8789 153.435 63.4703 153.435 64.1987Z" fill="white"/>
<path d="M165.999 64.1987C165.999 64.9282 165.401 65.5184 164.664 65.5184C163.925 65.5184 163.328 64.9282 163.328 64.1987C163.328 63.4691 163.927 62.8789 164.664 62.8789C165.402 62.8789 165.999 63.4703 165.999 64.1987Z" fill="white"/>
<path d="M2.67113 74.6801C2.67113 75.4097 2.07263 75.9999 1.33556 75.9999C0.598495 75.9999 0 75.4085 0 74.6801C0 73.9518 0.5973 73.3604 1.33556 73.3604C2.07263 73.3604 2.67113 73.9518 2.67113 74.6801Z" fill="white"/>
<path d="M15.2356 74.6801C15.2356 75.4097 14.6383 75.9999 13.9 75.9999C13.1629 75.9999 12.5645 75.4085 12.5645 74.6801C12.5645 73.9518 13.1629 73.3604 13.9 73.3604C14.6371 73.3604 15.2356 73.9518 15.2356 74.6801Z" fill="white"/>
<path d="M27.7981 74.6801C27.7981 75.4097 27.1996 75.9999 26.4625 75.9999C25.7254 75.9999 25.127 75.4085 25.127 74.6801C25.127 73.9518 25.7254 73.3604 26.4625 73.3604C27.1996 73.3604 27.7981 73.9518 27.7981 74.6801Z" fill="white"/>
<path d="M40.3606 74.6801C40.3606 75.4097 39.7633 75.9999 39.025 75.9999C38.2868 75.9999 37.6895 75.4085 37.6895 74.6801C37.6895 73.9518 38.2868 73.3604 39.025 73.3604C39.7633 73.3604 40.3606 73.9518 40.3606 74.6801Z" fill="white"/>
<path d="M52.927 74.6801C52.927 75.4097 52.3285 75.9999 51.5914 75.9999C50.8532 75.9999 50.2559 75.4085 50.2559 74.6801C50.2559 73.9518 50.8544 73.3604 51.5914 73.3604C52.3297 73.3604 52.927 73.9518 52.927 74.6801Z" fill="white"/>
<path d="M65.4895 74.6801C65.4895 75.4097 64.8922 75.9999 64.1539 75.9999C63.4157 75.9999 62.8184 75.4085 62.8184 74.6801C62.8184 73.9518 63.4157 73.3604 64.1539 73.3604C64.8922 73.3604 65.4895 73.9518 65.4895 74.6801Z" fill="white"/>
<path d="M78.052 74.6801C78.052 75.4097 77.4535 75.9999 76.7164 75.9999C75.9793 75.9999 75.3809 75.4085 75.3809 74.6801C75.3809 73.9518 75.9793 73.3604 76.7164 73.3604C77.4547 73.3604 78.052 73.9518 78.052 74.6801Z" fill="white"/>
<path d="M90.6164 74.6801C90.6164 75.4097 90.0179 75.9999 89.2809 75.9999C88.5438 75.9999 87.9453 75.4085 87.9453 74.6801C87.9453 73.9518 88.5438 73.3604 89.2809 73.3604C90.0179 73.3604 90.6164 73.9518 90.6164 74.6801Z" fill="white"/>
<path d="M103.181 74.6801C103.181 75.4097 102.582 75.9999 101.845 75.9999C101.108 75.9999 100.51 75.4085 100.51 74.6801C100.51 73.9518 101.107 73.3604 101.845 73.3604C102.584 73.3604 103.181 73.9518 103.181 74.6801Z" fill="white"/>
<path d="M115.745 74.6801C115.745 75.4097 115.148 75.9999 114.41 75.9999C113.672 75.9999 113.074 75.4085 113.074 74.6801C113.074 73.9518 113.673 73.3604 114.41 73.3604C115.147 73.3604 115.745 73.9518 115.745 74.6801Z" fill="white"/>
<path d="M128.31 74.6801C128.31 75.4097 127.711 75.9999 126.974 75.9999C126.237 75.9999 125.639 75.4085 125.639 74.6801C125.639 73.9518 126.237 73.3604 126.974 73.3604C127.712 73.3604 128.31 73.9518 128.31 74.6801Z" fill="white"/>
<path d="M140.872 74.6801C140.872 75.4097 140.274 75.9999 139.537 75.9999C138.8 75.9999 138.201 75.4085 138.201 74.6801C138.201 73.9518 138.8 73.3604 139.537 73.3604C140.274 73.3604 140.872 73.9518 140.872 74.6801Z" fill="white"/>
<path d="M153.435 74.6801C153.435 75.4097 152.836 75.9999 152.099 75.9999C151.362 75.9999 150.764 75.4085 150.764 74.6801C150.764 73.9518 151.362 73.3604 152.099 73.3604C152.837 73.3604 153.435 73.9518 153.435 74.6801Z" fill="white"/>
<path d="M165.999 74.6801C165.999 75.4097 165.401 75.9999 164.664 75.9999C163.925 75.9999 163.328 75.4085 163.328 74.6801C163.328 73.9518 163.927 73.3604 164.664 73.3604C165.402 73.3604 165.999 73.9518 165.999 74.6801Z" fill="white"/>
</g>
</svg>
