<svg width="166" height="76" viewBox="0 0 166 76" fill="none" xmlns="http://www.w3.org/2000/svg">
<path d="M1.33556 2.63954C2.07317 2.63954 2.67113 2.04866 2.67113 1.31977C2.67113 0.590881 2.07317 0 1.33556 0C0.597952 0 0 0.590881 0 1.31977C0 2.04866 0.597952 2.63954 1.33556 2.63954Z" fill="#0DC46E"/>
<path d="M13.9 2.63954C14.6376 2.63954 15.2356 2.04866 15.2356 1.31977C15.2356 0.590881 14.6376 0 13.9 0C13.1624 0 12.5645 0.590881 12.5645 1.31977C12.5645 2.04866 13.1624 2.63954 13.9 2.63954Z" fill="#0DC46E"/>
<path d="M27.7981 1.31977C27.7981 2.0493 27.1996 2.63954 26.4625 2.63954C25.7254 2.63954 25.127 2.0493 25.127 1.31977C25.127 0.590237 25.7254 0 26.4625 0C27.1996 0 27.7981 0.590237 27.7981 1.31977Z" fill="#0DC46E"/>
<path d="M39.025 2.63954C39.7626 2.63954 40.3606 2.04866 40.3606 1.31977C40.3606 0.590881 39.7626 0 39.025 0C38.2874 0 37.6895 0.590881 37.6895 1.31977C37.6895 2.04866 38.2874 2.63954 39.025 2.63954Z" fill="#0DC46E"/>
<path d="M52.927 1.31977C52.927 2.0493 52.3285 2.63954 51.5914 2.63954C50.8532 2.63954 50.2559 2.0493 50.2559 1.31977C50.2559 0.590237 50.8544 0 51.5914 0C52.3297 0 52.927 0.590237 52.927 1.31977Z" fill="#0DC46E"/>
<path d="M64.1541 2.63954C64.8917 2.63954 65.4896 2.04866 65.4896 1.31977C65.4896 0.590881 64.8917 0 64.1541 0C63.4164 0 62.8185 0.590881 62.8185 1.31977C62.8185 2.04866 63.4164 2.63954 64.1541 2.63954Z" fill="#0DC46E"/>
<path d="M76.7164 2.63954C77.454 2.63954 78.052 2.04866 78.052 1.31977C78.052 0.590881 77.454 0 76.7164 0C75.9788 0 75.3809 0.590881 75.3809 1.31977C75.3809 2.04866 75.9788 2.63954 76.7164 2.63954Z" fill="#0DC46E"/>
<path d="M90.6163 1.31977C90.6163 2.0493 90.0178 2.63954 89.2807 2.63954C88.5436 2.63954 87.9451 2.0493 87.9451 1.31977C87.9451 0.590237 88.5436 0 89.2807 0C90.0178 0 90.6163 0.590237 90.6163 1.31977Z" fill="#0DC46E"/>
<path d="M103.181 1.31977C103.181 2.0493 102.582 2.63954 101.845 2.63954C101.108 2.63954 100.51 2.0493 100.51 1.31977C100.51 0.590237 101.107 0 101.845 0C102.584 0 103.181 0.590237 103.181 1.31977Z" fill="#0DC46E"/>
<path d="M115.745 1.31977C115.745 2.0493 115.148 2.63954 114.41 2.63954C113.672 2.63954 113.074 2.0493 113.074 1.31977C113.074 0.590237 113.673 0 114.41 0C115.147 0 115.745 0.590237 115.745 1.31977Z" fill="#0DC46E"/>
<path d="M126.974 2.63954C127.712 2.63954 128.31 2.04866 128.31 1.31977C128.31 0.590881 127.712 0 126.974 0C126.237 0 125.639 0.590881 125.639 1.31977C125.639 2.04866 126.237 2.63954 126.974 2.63954Z" fill="#0DC46E"/>
<path d="M139.537 2.63954C140.274 2.63954 140.872 2.04866 140.872 1.31977C140.872 0.590881 140.274 0 139.537 0C138.799 0 138.201 0.590881 138.201 1.31977C138.201 2.04866 138.799 2.63954 139.537 2.63954Z" fill="#0DC46E"/>
<path d="M153.435 1.31977C153.435 2.0493 152.836 2.63954 152.099 2.63954C151.362 2.63954 150.764 2.0493 150.764 1.31977C150.764 0.590237 151.362 0 152.099 0C152.837 0 153.435 0.590237 153.435 1.31977Z" fill="#0DC46E"/>
<path d="M165.999 1.31977C165.999 2.0493 165.401 2.63954 164.664 2.63954C163.925 2.63954 163.328 2.0493 163.328 1.31977C163.328 0.590237 163.927 0 164.664 0C165.402 0 165.999 0.590237 165.999 1.31977Z" fill="#0DC46E"/>
<path d="M1.33556 13.1215C2.07317 13.1215 2.67113 12.5306 2.67113 11.8017C2.67113 11.0728 2.07317 10.4819 1.33556 10.4819C0.597952 10.4819 0 11.0728 0 11.8017C0 12.5306 0.597952 13.1215 1.33556 13.1215Z" fill="#0DC46E"/>
<path d="M13.9 13.1215C14.6376 13.1215 15.2356 12.5306 15.2356 11.8017C15.2356 11.0728 14.6376 10.4819 13.9 10.4819C13.1624 10.4819 12.5645 11.0728 12.5645 11.8017C12.5645 12.5306 13.1624 13.1215 13.9 13.1215Z" fill="#0DC46E"/>
<path d="M27.7981 11.8017C27.7981 12.5312 27.1996 13.1215 26.4625 13.1215C25.7254 13.1215 25.127 12.5312 25.127 11.8017C25.127 11.0722 25.7254 10.4819 26.4625 10.4819C27.1996 10.4808 27.7981 11.0722 27.7981 11.8017Z" fill="#0DC46E"/>
<path d="M39.025 13.1215C39.7626 13.1215 40.3606 12.5306 40.3606 11.8017C40.3606 11.0728 39.7626 10.4819 39.025 10.4819C38.2874 10.4819 37.6895 11.0728 37.6895 11.8017C37.6895 12.5306 38.2874 13.1215 39.025 13.1215Z" fill="#0DC46E"/>
<path d="M52.927 11.8017C52.927 12.5312 52.3285 13.1215 51.5914 13.1215C50.8532 13.1215 50.2559 12.5312 50.2559 11.8017C50.2559 11.0722 50.8544 10.4819 51.5914 10.4819C52.3297 10.4808 52.927 11.0722 52.927 11.8017Z" fill="#0DC46E"/>
<path d="M64.1539 13.1215C64.8915 13.1215 65.4895 12.5306 65.4895 11.8017C65.4895 11.0728 64.8915 10.4819 64.1539 10.4819C63.4163 10.4819 62.8184 11.0728 62.8184 11.8017C62.8184 12.5306 63.4163 13.1215 64.1539 13.1215Z" fill="#0DC46E"/>
<path d="M76.7164 13.1215C77.454 13.1215 78.052 12.5306 78.052 11.8017C78.052 11.0728 77.454 10.4819 76.7164 10.4819C75.9788 10.4819 75.3809 11.0728 75.3809 11.8017C75.3809 12.5306 75.9788 13.1215 76.7164 13.1215Z" fill="#0DC46E"/>
<path d="M90.6164 11.8017C90.6164 12.5312 90.0179 13.1215 89.2809 13.1215C88.5438 13.1215 87.9453 12.5312 87.9453 11.8017C87.9453 11.0722 88.5438 10.4819 89.2809 10.4819C90.0179 10.4808 90.6164 11.0722 90.6164 11.8017Z" fill="#0DC46E"/>
<path d="M103.181 11.8017C103.181 12.5312 102.582 13.1215 101.845 13.1215C101.108 13.1215 100.51 12.5312 100.51 11.8017C100.51 11.0722 101.107 10.4819 101.845 10.4819C102.584 10.4819 103.181 11.0722 103.181 11.8017Z" fill="#0DC46E"/>
<path d="M115.745 11.8017C115.745 12.5312 115.148 13.1215 114.41 13.1215C113.672 13.1215 113.074 12.5312 113.074 11.8017C113.074 11.0722 113.673 10.4819 114.41 10.4819C115.147 10.4819 115.745 11.0722 115.745 11.8017Z" fill="#0DC46E"/>
<path d="M126.974 13.1215C127.712 13.1215 128.31 12.5306 128.31 11.8017C128.31 11.0728 127.712 10.4819 126.974 10.4819C126.237 10.4819 125.639 11.0728 125.639 11.8017C125.639 12.5306 126.237 13.1215 126.974 13.1215Z" fill="#0DC46E"/>
<path d="M139.537 13.1215C140.274 13.1215 140.872 12.5306 140.872 11.8017C140.872 11.0728 140.274 10.4819 139.537 10.4819C138.799 10.4819 138.201 11.0728 138.201 11.8017C138.201 12.5306 138.799 13.1215 139.537 13.1215Z" fill="#0DC46E"/>
<path d="M153.435 11.8017C153.435 12.5312 152.836 13.1215 152.099 13.1215C151.362 13.1215 150.764 12.5312 150.764 11.8017C150.764 11.0722 151.362 10.4819 152.099 10.4819C152.837 10.4808 153.435 11.0722 153.435 11.8017Z" fill="#0DC46E"/>
<path d="M165.999 11.8017C165.999 12.5312 165.401 13.1215 164.664 13.1215C163.925 13.1215 163.328 12.5312 163.328 11.8017C163.328 11.0722 163.927 10.4819 164.664 10.4819C165.402 10.4808 165.999 11.0722 165.999 11.8017Z" fill="#0DC46E"/>
<path d="M2.67113 22.2797C2.67113 23.0093 2.07263 23.5995 1.33556 23.5995C0.598495 23.5995 0 23.0081 0 22.2797C0 21.5502 0.5973 20.96 1.33556 20.96C2.07263 20.96 2.67113 21.5514 2.67113 22.2797Z" fill="#0DC46E"/>
<path d="M15.2356 22.2797C15.2356 23.0081 14.6383 23.5995 13.9 23.5995C13.1629 23.5995 12.5645 23.0081 12.5645 22.2797C12.5645 21.5502 13.1629 20.96 13.9 20.96C14.6371 20.96 15.2356 21.5514 15.2356 22.2797Z" fill="#0DC46E"/>
<path d="M27.7981 22.2797C27.7981 23.0081 27.1996 23.5995 26.4625 23.5995C25.7254 23.5995 25.127 23.0081 25.127 22.2797C25.127 21.5502 25.7254 20.96 26.4625 20.96C27.1996 20.96 27.7981 21.5514 27.7981 22.2797Z" fill="#0DC46E"/>
<path d="M40.3606 22.2797C40.3606 23.0081 39.7633 23.5995 39.025 23.5995C38.2868 23.5995 37.6895 23.0081 37.6895 22.2797C37.6895 21.5502 38.2868 20.96 39.025 20.96C39.7633 20.96 40.3606 21.5514 40.3606 22.2797Z" fill="#0DC46E"/>
<path d="M52.927 22.2797C52.927 23.0081 52.3285 23.5995 51.5914 23.5995C50.8532 23.5995 50.2559 23.0081 50.2559 22.2797C50.2559 21.5502 50.8544 20.96 51.5914 20.96C52.3297 20.96 52.927 21.5514 52.927 22.2797Z" fill="#0DC46E"/>
<path d="M65.4895 22.2797C65.4895 23.0081 64.8922 23.5995 64.1539 23.5995C63.4157 23.5995 62.8184 23.0081 62.8184 22.2797C62.8184 21.5502 63.4157 20.96 64.1539 20.96C64.8922 20.96 65.4895 21.5514 65.4895 22.2797Z" fill="#0DC46E"/>
<path d="M78.052 22.2797C78.052 23.0093 77.4547 23.5995 76.7164 23.5995C75.9793 23.5995 75.3809 23.0081 75.3809 22.2797C75.3809 21.5502 75.9793 20.96 76.7164 20.96C77.4547 20.96 78.052 21.5514 78.052 22.2797Z" fill="#0DC46E"/>
<path d="M90.6164 22.2797C90.6164 23.0093 90.0179 23.5995 89.2809 23.5995C88.5438 23.5995 87.9453 23.0081 87.9453 22.2797C87.9453 21.5502 88.5438 20.96 89.2809 20.96C90.0179 20.96 90.6164 21.5514 90.6164 22.2797Z" fill="#0DC46E"/>
<path d="M103.181 22.2797C103.181 23.0081 102.582 23.5995 101.845 23.5995C101.108 23.5995 100.51 23.0081 100.51 22.2797C100.51 21.5502 101.107 20.96 101.845 20.96C102.584 20.96 103.181 21.5514 103.181 22.2797Z" fill="#0DC46E"/>
<path d="M115.745 22.2797C115.745 23.0081 115.148 23.5995 114.41 23.5995C113.672 23.5995 113.074 23.0081 113.074 22.2797C113.074 21.5502 113.673 20.96 114.41 20.96C115.147 20.96 115.745 21.5514 115.745 22.2797Z" fill="#0DC46E"/>
<path d="M128.31 22.2797C128.31 23.0081 127.711 23.5995 126.974 23.5995C126.237 23.5995 125.639 23.0081 125.639 22.2797C125.639 21.5502 126.237 20.96 126.974 20.96C127.712 20.96 128.31 21.5514 128.31 22.2797Z" fill="#0DC46E"/>
<path d="M140.872 22.2797C140.872 23.0081 140.274 23.5995 139.537 23.5995C138.8 23.5995 138.201 23.0081 138.201 22.2797C138.201 21.5502 138.8 20.96 139.537 20.96C140.274 20.96 140.872 21.5514 140.872 22.2797Z" fill="#0DC46E"/>
<path d="M153.435 22.2797C153.435 23.0081 152.836 23.5995 152.099 23.5995C151.362 23.5995 150.764 23.0081 150.764 22.2797C150.764 21.5502 151.362 20.96 152.099 20.96C152.837 20.96 153.435 21.5514 153.435 22.2797Z" fill="#0DC46E"/>
<path d="M165.999 22.2797C165.999 23.0093 165.402 23.5995 164.664 23.5995C163.925 23.5995 163.328 23.0081 163.328 22.2797C163.328 21.5502 163.927 20.96 164.664 20.96C165.402 20.96 165.999 21.5514 165.999 22.2797Z" fill="#0DC46E"/>
<path d="M2.67113 32.7583C2.67113 33.4866 2.07263 34.078 1.33556 34.078C0.598495 34.078 0 33.4878 0 32.7583C0 32.0287 0.5973 31.4385 1.33556 31.4385C2.07263 31.4385 2.67113 32.0299 2.67113 32.7583Z" fill="#0DC46E"/>
<path d="M15.2356 32.7583C15.2356 33.4866 14.6383 34.078 13.9 34.078C13.1629 34.078 12.5645 33.4878 12.5645 32.7583C12.5645 32.0287 13.1629 31.4385 13.9 31.4385C14.6371 31.4385 15.2356 32.0299 15.2356 32.7583Z" fill="#0DC46E"/>
<path d="M27.7981 32.7583C27.7981 33.4866 27.1996 34.078 26.4625 34.078C25.7254 34.078 25.127 33.4878 25.127 32.7583C25.127 32.0287 25.7254 31.4385 26.4625 31.4385C27.1996 31.4385 27.7981 32.0299 27.7981 32.7583Z" fill="#0DC46E"/>
<path d="M40.3606 32.7583C40.3606 33.4866 39.7633 34.078 39.025 34.078C38.2868 34.078 37.6895 33.4878 37.6895 32.7583C37.6895 32.0287 38.2868 31.4385 39.025 31.4385C39.7633 31.4385 40.3606 32.0299 40.3606 32.7583Z" fill="#0DC46E"/>
<path d="M52.927 32.7583C52.927 33.4866 52.3285 34.078 51.5914 34.078C50.8532 34.078 50.2559 33.4878 50.2559 32.7583C50.2559 32.0287 50.8544 31.4385 51.5914 31.4385C52.3297 31.4385 52.927 32.0299 52.927 32.7583Z" fill="#0DC46E"/>
<path d="M65.4895 32.7583C65.4895 33.4866 64.8922 34.078 64.1539 34.078C63.4157 34.078 62.8184 33.4878 62.8184 32.7583C62.8184 32.0287 63.4157 31.4385 64.1539 31.4385C64.8922 31.4385 65.4895 32.0299 65.4895 32.7583Z" fill="#0DC46E"/>
<path d="M78.052 32.7583C78.052 33.4866 77.4535 34.078 76.7164 34.078C75.9793 34.078 75.3809 33.4878 75.3809 32.7583C75.3809 32.0287 75.9793 31.4385 76.7164 31.4385C77.4547 31.4385 78.052 32.0299 78.052 32.7583Z" fill="#0DC46E"/>
<path d="M90.6164 32.7583C90.6164 33.4866 90.0179 34.078 89.2809 34.078C88.5438 34.078 87.9453 33.4878 87.9453 32.7583C87.9453 32.0287 88.5438 31.4385 89.2809 31.4385C90.0179 31.4385 90.6164 32.0299 90.6164 32.7583Z" fill="#0DC46E"/>
<path d="M103.181 32.7583C103.181 33.4866 102.582 34.078 101.845 34.078C101.108 34.078 100.51 33.4878 100.51 32.7583C100.51 32.0287 101.107 31.4385 101.845 31.4385C102.584 31.4385 103.181 32.0299 103.181 32.7583Z" fill="#0DC46E"/>
<path d="M115.745 32.7583C115.745 33.4866 115.148 34.078 114.41 34.078C113.672 34.078 113.074 33.4878 113.074 32.7583C113.074 32.0287 113.673 31.4385 114.41 31.4385C115.147 31.4385 115.745 32.0299 115.745 32.7583Z" fill="#0DC46E"/>
<path d="M128.31 32.7583C128.31 33.4866 127.711 34.078 126.974 34.078C126.237 34.078 125.639 33.4878 125.639 32.7583C125.639 32.0287 126.237 31.4385 126.974 31.4385C127.712 31.4385 128.31 32.0299 128.31 32.7583Z" fill="#0DC46E"/>
<path d="M140.872 32.7583C140.872 33.4866 140.274 34.078 139.537 34.078C138.8 34.078 138.201 33.4878 138.201 32.7583C138.201 32.0287 138.8 31.4385 139.537 31.4385C140.274 31.4385 140.872 32.0299 140.872 32.7583Z" fill="#0DC46E"/>
<path d="M153.435 32.7583C153.435 33.4866 152.836 34.078 152.099 34.078C151.362 34.078 150.764 33.4878 150.764 32.7583C150.764 32.0287 151.362 31.4385 152.099 31.4385C152.837 31.4385 153.435 32.0299 153.435 32.7583Z" fill="#0DC46E"/>
<path d="M165.999 32.7583C165.999 33.4866 165.401 34.078 164.664 34.078C163.925 34.078 163.328 33.4878 163.328 32.7583C163.328 32.0287 163.927 31.4385 164.664 31.4385C165.402 31.4385 165.999 32.0299 165.999 32.7583Z" fill="#0DC46E"/>
<path d="M2.67113 43.2402C2.67113 43.9697 2.07263 44.5599 1.33556 44.5599C0.598495 44.5599 0 43.9685 0 43.2402C0 42.5118 0.5973 41.9204 1.33556 41.9204C2.07263 41.9204 2.67113 42.5107 2.67113 43.2402Z" fill="#0DC46E"/>
<path d="M15.2356 43.2402C15.2356 43.9697 14.6383 44.5599 13.9 44.5599C13.1629 44.5599 12.5645 43.9685 12.5645 43.2402C12.5645 42.5118 13.1629 41.9204 13.9 41.9204C14.6371 41.9204 15.2356 42.5107 15.2356 43.2402Z" fill="#0DC46E"/>
<path d="M27.7981 43.2402C27.7981 43.9697 27.1996 44.5599 26.4625 44.5599C25.7254 44.5599 25.127 43.9685 25.127 43.2402C25.127 42.5118 25.7254 41.9204 26.4625 41.9204C27.1996 41.9204 27.7981 42.5107 27.7981 43.2402Z" fill="#0DC46E"/>
<path d="M40.3606 43.2402C40.3606 43.9697 39.7633 44.5599 39.025 44.5599C38.2868 44.5599 37.6895 43.9685 37.6895 43.2402C37.6895 42.5118 38.2868 41.9204 39.025 41.9204C39.7633 41.9204 40.3606 42.5107 40.3606 43.2402Z" fill="#0DC46E"/>
<path d="M52.927 43.2402C52.927 43.9697 52.3285 44.5599 51.5914 44.5599C50.8532 44.5599 50.2559 43.9685 50.2559 43.2402C50.2559 42.5118 50.8544 41.9204 51.5914 41.9204C52.3297 41.9204 52.927 42.5107 52.927 43.2402Z" fill="#0DC46E"/>
<path d="M65.4895 43.2402C65.4895 43.9697 64.8922 44.5599 64.1539 44.5599C63.4157 44.5599 62.8184 43.9685 62.8184 43.2402C62.8184 42.5118 63.4157 41.9204 64.1539 41.9204C64.8922 41.9204 65.4895 42.5107 65.4895 43.2402Z" fill="#0DC46E"/>
<path d="M78.052 43.2402C78.052 43.9697 77.4535 44.5599 76.7164 44.5599C75.9793 44.5599 75.3809 43.9685 75.3809 43.2402C75.3809 42.5118 75.9793 41.9204 76.7164 41.9204C77.4547 41.9204 78.052 42.5107 78.052 43.2402Z" fill="#0DC46E"/>
<path d="M90.6164 43.2402C90.6164 43.9697 90.0179 44.5599 89.2809 44.5599C88.5438 44.5599 87.9453 43.9685 87.9453 43.2402C87.9453 42.5118 88.5438 41.9204 89.2809 41.9204C90.0179 41.9204 90.6164 42.5107 90.6164 43.2402Z" fill="#0DC46E"/>
<path d="M103.181 43.2402C103.181 43.9697 102.582 44.5599 101.845 44.5599C101.108 44.5599 100.51 43.9685 100.51 43.2402C100.51 42.5118 101.107 41.9204 101.845 41.9204C102.584 41.9204 103.181 42.5107 103.181 43.2402Z" fill="#0DC46E"/>
<path d="M115.745 43.2402C115.745 43.9697 115.148 44.5599 114.41 44.5599C113.672 44.5599 113.074 43.9685 113.074 43.2402C113.074 42.5118 113.673 41.9204 114.41 41.9204C115.147 41.9204 115.745 42.5107 115.745 43.2402Z" fill="#0DC46E"/>
<path d="M128.31 43.2402C128.31 43.9697 127.711 44.5599 126.974 44.5599C126.237 44.5599 125.639 43.9685 125.639 43.2402C125.639 42.5118 126.237 41.9204 126.974 41.9204C127.712 41.9204 128.31 42.5107 128.31 43.2402Z" fill="#0DC46E"/>
<path d="M140.872 43.2402C140.872 43.9697 140.274 44.5599 139.537 44.5599C138.8 44.5599 138.201 43.9685 138.201 43.2402C138.201 42.5118 138.8 41.9204 139.537 41.9204C140.274 41.9204 140.872 42.5107 140.872 43.2402Z" fill="#0DC46E"/>
<path d="M153.435 43.2402C153.435 43.9697 152.836 44.5599 152.099 44.5599C151.362 44.5599 150.764 43.9685 150.764 43.2402C150.764 42.5118 151.362 41.9204 152.099 41.9204C152.837 41.9204 153.435 42.5107 153.435 43.2402Z" fill="#0DC46E"/>
<path d="M165.999 43.2402C165.999 43.9697 165.401 44.5599 164.664 44.5599C163.925 44.5599 163.328 43.9685 163.328 43.2402C163.328 42.5118 163.927 41.9204 164.664 41.9204C165.402 41.9204 165.999 42.5107 165.999 43.2402Z" fill="#0DC46E"/>
<path d="M1.33556 55.0399C2.07317 55.0399 2.67113 54.449 2.67113 53.7202C2.67113 52.9913 2.07317 52.4004 1.33556 52.4004C0.597952 52.4004 0 52.9913 0 53.7202C0 54.449 0.597952 55.0399 1.33556 55.0399Z" fill="#0DC46E"/>
<path d="M13.9 55.0399C14.6376 55.0399 15.2356 54.449 15.2356 53.7202C15.2356 52.9913 14.6376 52.4004 13.9 52.4004C13.1624 52.4004 12.5645 52.9913 12.5645 53.7202C12.5645 54.449 13.1624 55.0399 13.9 55.0399Z" fill="#0DC46E"/>
<path d="M27.7981 53.7202C27.7981 54.4485 27.1996 55.0399 26.4625 55.0399C25.7254 55.0399 25.127 54.4485 25.127 53.7202C25.127 52.9906 25.7254 52.4004 26.4625 52.4004C27.1996 52.4004 27.7981 52.9906 27.7981 53.7202Z" fill="#0DC46E"/>
<path d="M39.025 55.0399C39.7626 55.0399 40.3606 54.449 40.3606 53.7202C40.3606 52.9913 39.7626 52.4004 39.025 52.4004C38.2874 52.4004 37.6895 52.9913 37.6895 53.7202C37.6895 54.449 38.2874 55.0399 39.025 55.0399Z" fill="#0DC46E"/>
<path d="M52.927 53.7202C52.927 54.4485 52.3285 55.0399 51.5914 55.0399C50.8532 55.0399 50.2559 54.4485 50.2559 53.7202C50.2559 52.9906 50.8544 52.4004 51.5914 52.4004C52.3297 52.4004 52.927 52.9906 52.927 53.7202Z" fill="#0DC46E"/>
<path d="M64.1539 55.0399C64.8915 55.0399 65.4895 54.449 65.4895 53.7202C65.4895 52.9913 64.8915 52.4004 64.1539 52.4004C63.4163 52.4004 62.8184 52.9913 62.8184 53.7202C62.8184 54.449 63.4163 55.0399 64.1539 55.0399Z" fill="#0DC46E"/>
<path d="M76.7164 55.0399C77.454 55.0399 78.052 54.449 78.052 53.7202C78.052 52.9913 77.454 52.4004 76.7164 52.4004C75.9788 52.4004 75.3809 52.9913 75.3809 53.7202C75.3809 54.449 75.9788 55.0399 76.7164 55.0399Z" fill="#0DC46E"/>
<path d="M90.6164 53.7202C90.6164 54.4485 90.0179 55.0399 89.2809 55.0399C88.5438 55.0399 87.9453 54.4485 87.9453 53.7202C87.9453 52.9906 88.5438 52.4004 89.2809 52.4004C90.0179 52.4004 90.6164 52.9906 90.6164 53.7202Z" fill="#0DC46E"/>
<path d="M103.181 53.7202C103.181 54.4485 102.582 55.0399 101.845 55.0399C101.108 55.0399 100.51 54.4485 100.51 53.7202C100.51 52.9906 101.107 52.4004 101.845 52.4004C102.584 52.4004 103.181 52.9906 103.181 53.7202Z" fill="#0DC46E"/>
<path d="M115.745 53.7202C115.745 54.4485 115.148 55.0399 114.41 55.0399C113.672 55.0399 113.074 54.4485 113.074 53.7202C113.074 52.9906 113.673 52.4004 114.41 52.4004C115.147 52.4004 115.745 52.9906 115.745 53.7202Z" fill="#0DC46E"/>
<path d="M126.974 55.0399C127.712 55.0399 128.31 54.449 128.31 53.7202C128.31 52.9913 127.712 52.4004 126.974 52.4004C126.237 52.4004 125.639 52.9913 125.639 53.7202C125.639 54.449 126.237 55.0399 126.974 55.0399Z" fill="#0DC46E"/>
<path d="M139.537 55.0399C140.274 55.0399 140.872 54.449 140.872 53.7202C140.872 52.9913 140.274 52.4004 139.537 52.4004C138.799 52.4004 138.201 52.9913 138.201 53.7202C138.201 54.449 138.799 55.0399 139.537 55.0399Z" fill="#0DC46E"/>
<path d="M153.435 53.7202C153.435 54.4485 152.836 55.0399 152.099 55.0399C151.362 55.0399 150.764 54.4485 150.764 53.7202C150.764 52.9906 151.362 52.4004 152.099 52.4004C152.837 52.4004 153.435 52.9906 153.435 53.7202Z" fill="#0DC46E"/>
<path d="M165.999 53.7202C165.999 54.4485 165.401 55.0399 164.664 55.0399C163.925 55.0399 163.328 54.4485 163.328 53.7202C163.328 52.9906 163.927 52.4004 164.664 52.4004C165.402 52.4004 165.999 52.9906 165.999 53.7202Z" fill="#0DC46E"/>
<path d="M1.33556 65.518C2.07317 65.518 2.67113 64.9271 2.67113 64.1982C2.67113 63.4693 2.07317 62.8784 1.33556 62.8784C0.597952 62.8784 0 63.4693 0 64.1982C0 64.9271 0.597952 65.518 1.33556 65.518Z" fill="#0DC46E"/>
<path d="M13.9 65.518C14.6376 65.518 15.2356 64.9271 15.2356 64.1982C15.2356 63.4693 14.6376 62.8784 13.9 62.8784C13.1624 62.8784 12.5645 63.4693 12.5645 64.1982C12.5645 64.9271 13.1624 65.518 13.9 65.518Z" fill="#0DC46E"/>
<path d="M27.7981 64.1982C27.7981 64.9277 27.1996 65.518 26.4625 65.518C25.7254 65.518 25.127 64.9277 25.127 64.1982C25.127 63.4687 25.7254 62.8784 26.4625 62.8784C27.1996 62.8784 27.7981 63.4698 27.7981 64.1982Z" fill="#0DC46E"/>
<path d="M39.025 65.518C39.7626 65.518 40.3606 64.9271 40.3606 64.1982C40.3606 63.4693 39.7626 62.8784 39.025 62.8784C38.2874 62.8784 37.6895 63.4693 37.6895 64.1982C37.6895 64.9271 38.2874 65.518 39.025 65.518Z" fill="#0DC46E"/>
<path d="M52.927 64.1982C52.927 64.9277 52.3285 65.518 51.5914 65.518C50.8532 65.518 50.2559 64.9277 50.2559 64.1982C50.2559 63.4687 50.8544 62.8784 51.5914 62.8784C52.3297 62.8784 52.927 63.4698 52.927 64.1982Z" fill="#0DC46E"/>
<path d="M64.1539 65.518C64.8915 65.518 65.4895 64.9271 65.4895 64.1982C65.4895 63.4693 64.8915 62.8784 64.1539 62.8784C63.4163 62.8784 62.8184 63.4693 62.8184 64.1982C62.8184 64.9271 63.4163 65.518 64.1539 65.518Z" fill="#0DC46E"/>
<path d="M76.7164 65.518C77.454 65.518 78.052 64.9271 78.052 64.1982C78.052 63.4693 77.454 62.8784 76.7164 62.8784C75.9788 62.8784 75.3809 63.4693 75.3809 64.1982C75.3809 64.9271 75.9788 65.518 76.7164 65.518Z" fill="#0DC46E"/>
<path d="M90.6164 64.1982C90.6164 64.9277 90.0179 65.518 89.2809 65.518C88.5438 65.518 87.9453 64.9277 87.9453 64.1982C87.9453 63.4687 88.5438 62.8784 89.2809 62.8784C90.0179 62.8784 90.6164 63.4698 90.6164 64.1982Z" fill="#0DC46E"/>
<path d="M103.181 64.1982C103.181 64.9277 102.582 65.518 101.845 65.518C101.108 65.518 100.51 64.9277 100.51 64.1982C100.51 63.4687 101.107 62.8784 101.845 62.8784C102.584 62.8784 103.181 63.4698 103.181 64.1982Z" fill="#0DC46E"/>
<path d="M115.745 64.1982C115.745 64.9277 115.148 65.518 114.41 65.518C113.672 65.518 113.074 64.9277 113.074 64.1982C113.074 63.4687 113.673 62.8784 114.41 62.8784C115.147 62.8784 115.745 63.4698 115.745 64.1982Z" fill="#0DC46E"/>
<path d="M126.974 65.518C127.712 65.518 128.31 64.9271 128.31 64.1982C128.31 63.4693 127.712 62.8784 126.974 62.8784C126.237 62.8784 125.639 63.4693 125.639 64.1982C125.639 64.9271 126.237 65.518 126.974 65.518Z" fill="#0DC46E"/>
<path d="M139.537 65.518C140.274 65.518 140.872 64.9271 140.872 64.1982C140.872 63.4693 140.274 62.8784 139.537 62.8784C138.799 62.8784 138.201 63.4693 138.201 64.1982C138.201 64.9271 138.799 65.518 139.537 65.518Z" fill="#0DC46E"/>
<path d="M153.435 64.1982C153.435 64.9277 152.836 65.518 152.099 65.518C151.362 65.518 150.764 64.9277 150.764 64.1982C150.764 63.4687 151.362 62.8784 152.099 62.8784C152.837 62.8784 153.435 63.4698 153.435 64.1982Z" fill="#0DC46E"/>
<path d="M165.999 64.1982C165.999 64.9277 165.401 65.518 164.664 65.518C163.925 65.518 163.328 64.9277 163.328 64.1982C163.328 63.4687 163.927 62.8784 164.664 62.8784C165.402 62.8784 165.999 63.4698 165.999 64.1982Z" fill="#0DC46E"/>
<path d="M2.67113 74.6801C2.67113 75.4097 2.07263 75.9999 1.33556 75.9999C0.598495 75.9999 0 75.4085 0 74.6801C0 73.9518 0.5973 73.3604 1.33556 73.3604C2.07263 73.3604 2.67113 73.9518 2.67113 74.6801Z" fill="#0DC46E"/>
<path d="M15.2356 74.6801C15.2356 75.4097 14.6383 75.9999 13.9 75.9999C13.1629 75.9999 12.5645 75.4085 12.5645 74.6801C12.5645 73.9518 13.1629 73.3604 13.9 73.3604C14.6371 73.3604 15.2356 73.9518 15.2356 74.6801Z" fill="#0DC46E"/>
<path d="M27.7981 74.6801C27.7981 75.4097 27.1996 75.9999 26.4625 75.9999C25.7254 75.9999 25.127 75.4085 25.127 74.6801C25.127 73.9518 25.7254 73.3604 26.4625 73.3604C27.1996 73.3604 27.7981 73.9518 27.7981 74.6801Z" fill="#0DC46E"/>
<path d="M40.3606 74.6801C40.3606 75.4097 39.7633 75.9999 39.025 75.9999C38.2868 75.9999 37.6895 75.4085 37.6895 74.6801C37.6895 73.9518 38.2868 73.3604 39.025 73.3604C39.7633 73.3604 40.3606 73.9518 40.3606 74.6801Z" fill="#0DC46E"/>
<path d="M52.927 74.6801C52.927 75.4097 52.3285 75.9999 51.5914 75.9999C50.8532 75.9999 50.2559 75.4085 50.2559 74.6801C50.2559 73.9518 50.8544 73.3604 51.5914 73.3604C52.3297 73.3604 52.927 73.9518 52.927 74.6801Z" fill="#0DC46E"/>
<path d="M65.4895 74.6801C65.4895 75.4097 64.8922 75.9999 64.1539 75.9999C63.4157 75.9999 62.8184 75.4085 62.8184 74.6801C62.8184 73.9518 63.4157 73.3604 64.1539 73.3604C64.8922 73.3604 65.4895 73.9518 65.4895 74.6801Z" fill="#0DC46E"/>
<path d="M78.052 74.6801C78.052 75.4097 77.4535 75.9999 76.7164 75.9999C75.9793 75.9999 75.3809 75.4085 75.3809 74.6801C75.3809 73.9518 75.9793 73.3604 76.7164 73.3604C77.4547 73.3604 78.052 73.9518 78.052 74.6801Z" fill="#0DC46E"/>
<path d="M90.6164 74.6801C90.6164 75.4097 90.0179 75.9999 89.2809 75.9999C88.5438 75.9999 87.9453 75.4085 87.9453 74.6801C87.9453 73.9518 88.5438 73.3604 89.2809 73.3604C90.0179 73.3604 90.6164 73.9518 90.6164 74.6801Z" fill="#0DC46E"/>
<path d="M103.181 74.6801C103.181 75.4097 102.582 75.9999 101.845 75.9999C101.108 75.9999 100.51 75.4085 100.51 74.6801C100.51 73.9518 101.107 73.3604 101.845 73.3604C102.584 73.3604 103.181 73.9518 103.181 74.6801Z" fill="#0DC46E"/>
<path d="M115.745 74.6801C115.745 75.4097 115.148 75.9999 114.41 75.9999C113.672 75.9999 113.074 75.4085 113.074 74.6801C113.074 73.9518 113.673 73.3604 114.41 73.3604C115.147 73.3604 115.745 73.9518 115.745 74.6801Z" fill="#0DC46E"/>
<path d="M128.31 74.6801C128.31 75.4097 127.711 75.9999 126.974 75.9999C126.237 75.9999 125.639 75.4085 125.639 74.6801C125.639 73.9518 126.237 73.3604 126.974 73.3604C127.712 73.3604 128.31 73.9518 128.31 74.6801Z" fill="#0DC46E"/>
<path d="M140.872 74.6801C140.872 75.4097 140.274 75.9999 139.537 75.9999C138.8 75.9999 138.201 75.4085 138.201 74.6801C138.201 73.9518 138.8 73.3604 139.537 73.3604C140.274 73.3604 140.872 73.9518 140.872 74.6801Z" fill="#0DC46E"/>
<path d="M153.435 74.6801C153.435 75.4097 152.836 75.9999 152.099 75.9999C151.362 75.9999 150.764 75.4085 150.764 74.6801C150.764 73.9518 151.362 73.3604 152.099 73.3604C152.837 73.3604 153.435 73.9518 153.435 74.6801Z" fill="#0DC46E"/>
<path d="M165.999 74.6801C165.999 75.4097 165.401 75.9999 164.664 75.9999C163.925 75.9999 163.328 75.4085 163.328 74.6801C163.328 73.9518 163.927 73.3604 164.664 73.3604C165.402 73.3604 165.999 73.9518 165.999 74.6801Z" fill="#0DC46E"/>
</svg>
