<svg width="41" height="76" viewBox="0 0 41 76" fill="none" xmlns="http://www.w3.org/2000/svg">
<path d="M1.33556 2.63954C2.07317 2.63954 2.67113 2.04866 2.67113 1.31977C2.67113 0.590881 2.07317 0 1.33556 0C0.597952 0 0 0.590881 0 1.31977C0 2.04866 0.597952 2.63954 1.33556 2.63954Z" fill="#1D9993"/>
<path d="M13.9 2.63954C14.6376 2.63954 15.2356 2.04866 15.2356 1.31977C15.2356 0.590881 14.6376 0 13.9 0C13.1624 0 12.5645 0.590881 12.5645 1.31977C12.5645 2.04866 13.1624 2.63954 13.9 2.63954Z" fill="#1D9993"/>
<path d="M27.7981 1.31977C27.7981 2.0493 27.1996 2.63954 26.4625 2.63954C25.7254 2.63954 25.127 2.0493 25.127 1.31977C25.127 0.590237 25.7254 0 26.4625 0C27.1996 0 27.7981 0.590237 27.7981 1.31977Z" fill="#1D9993"/>
<path d="M39.025 2.63954C39.7626 2.63954 40.3606 2.04866 40.3606 1.31977C40.3606 0.590881 39.7626 0 39.025 0C38.2874 0 37.6895 0.590881 37.6895 1.31977C37.6895 2.04866 38.2874 2.63954 39.025 2.63954Z" fill="#1D9993"/>
<path d="M1.33556 13.1215C2.07317 13.1215 2.67113 12.5306 2.67113 11.8017C2.67113 11.0728 2.07317 10.4819 1.33556 10.4819C0.597952 10.4819 0 11.0728 0 11.8017C0 12.5306 0.597952 13.1215 1.33556 13.1215Z" fill="#1D9993"/>
<path d="M13.9 13.1215C14.6376 13.1215 15.2356 12.5306 15.2356 11.8017C15.2356 11.0728 14.6376 10.4819 13.9 10.4819C13.1624 10.4819 12.5645 11.0728 12.5645 11.8017C12.5645 12.5306 13.1624 13.1215 13.9 13.1215Z" fill="#1D9993"/>
<path d="M27.7981 11.8017C27.7981 12.5312 27.1996 13.1215 26.4625 13.1215C25.7254 13.1215 25.127 12.5312 25.127 11.8017C25.127 11.0722 25.7254 10.4819 26.4625 10.4819C27.1996 10.4808 27.7981 11.0722 27.7981 11.8017Z" fill="#1D9993"/>
<path d="M39.025 13.1215C39.7626 13.1215 40.3606 12.5306 40.3606 11.8017C40.3606 11.0728 39.7626 10.4819 39.025 10.4819C38.2874 10.4819 37.6895 11.0728 37.6895 11.8017C37.6895 12.5306 38.2874 13.1215 39.025 13.1215Z" fill="#1D9993"/>
<path d="M2.67113 22.2797C2.67113 23.0093 2.07263 23.5995 1.33556 23.5995C0.598495 23.5995 0 23.0081 0 22.2797C0 21.5502 0.5973 20.96 1.33556 20.96C2.07263 20.96 2.67113 21.5514 2.67113 22.2797Z" fill="#1D9993"/>
<path d="M15.2356 22.2797C15.2356 23.0081 14.6383 23.5995 13.9 23.5995C13.1629 23.5995 12.5645 23.0081 12.5645 22.2797C12.5645 21.5502 13.1629 20.96 13.9 20.96C14.6371 20.96 15.2356 21.5514 15.2356 22.2797Z" fill="#1D9993"/>
<path d="M27.7981 22.2797C27.7981 23.0081 27.1996 23.5995 26.4625 23.5995C25.7254 23.5995 25.127 23.0081 25.127 22.2797C25.127 21.5502 25.7254 20.96 26.4625 20.96C27.1996 20.96 27.7981 21.5514 27.7981 22.2797Z" fill="#1D9993"/>
<path d="M40.3606 22.2797C40.3606 23.0081 39.7633 23.5995 39.025 23.5995C38.2868 23.5995 37.6895 23.0081 37.6895 22.2797C37.6895 21.5502 38.2868 20.96 39.025 20.96C39.7633 20.96 40.3606 21.5514 40.3606 22.2797Z" fill="#1D9993"/>
<path d="M2.67113 32.7583C2.67113 33.4866 2.07263 34.078 1.33556 34.078C0.598495 34.078 0 33.4878 0 32.7583C0 32.0287 0.5973 31.4385 1.33556 31.4385C2.07263 31.4385 2.67113 32.0299 2.67113 32.7583Z" fill="#1D9993"/>
<path d="M15.2356 32.7583C15.2356 33.4866 14.6383 34.078 13.9 34.078C13.1629 34.078 12.5645 33.4878 12.5645 32.7583C12.5645 32.0287 13.1629 31.4385 13.9 31.4385C14.6371 31.4385 15.2356 32.0299 15.2356 32.7583Z" fill="#1D9993"/>
<path d="M27.7981 32.7583C27.7981 33.4866 27.1996 34.078 26.4625 34.078C25.7254 34.078 25.127 33.4878 25.127 32.7583C25.127 32.0287 25.7254 31.4385 26.4625 31.4385C27.1996 31.4385 27.7981 32.0299 27.7981 32.7583Z" fill="#1D9993"/>
<path d="M40.3606 32.7583C40.3606 33.4866 39.7633 34.078 39.025 34.078C38.2868 34.078 37.6895 33.4878 37.6895 32.7583C37.6895 32.0287 38.2868 31.4385 39.025 31.4385C39.7633 31.4385 40.3606 32.0299 40.3606 32.7583Z" fill="#1D9993"/>
<path d="M2.67113 43.2402C2.67113 43.9697 2.07263 44.5599 1.33556 44.5599C0.598495 44.5599 0 43.9685 0 43.2402C0 42.5118 0.5973 41.9204 1.33556 41.9204C2.07263 41.9204 2.67113 42.5107 2.67113 43.2402Z" fill="#1D9993"/>
<path d="M15.2356 43.2402C15.2356 43.9697 14.6383 44.5599 13.9 44.5599C13.1629 44.5599 12.5645 43.9685 12.5645 43.2402C12.5645 42.5118 13.1629 41.9204 13.9 41.9204C14.6371 41.9204 15.2356 42.5107 15.2356 43.2402Z" fill="#1D9993"/>
<path d="M27.7981 43.2402C27.7981 43.9697 27.1996 44.5599 26.4625 44.5599C25.7254 44.5599 25.127 43.9685 25.127 43.2402C25.127 42.5118 25.7254 41.9204 26.4625 41.9204C27.1996 41.9204 27.7981 42.5107 27.7981 43.2402Z" fill="#1D9993"/>
<path d="M40.3606 43.2402C40.3606 43.9697 39.7633 44.5599 39.025 44.5599C38.2868 44.5599 37.6895 43.9685 37.6895 43.2402C37.6895 42.5118 38.2868 41.9204 39.025 41.9204C39.7633 41.9204 40.3606 42.5107 40.3606 43.2402Z" fill="#1D9993"/>
<path d="M1.33556 55.0399C2.07317 55.0399 2.67113 54.449 2.67113 53.7202C2.67113 52.9913 2.07317 52.4004 1.33556 52.4004C0.597952 52.4004 0 52.9913 0 53.7202C0 54.449 0.597952 55.0399 1.33556 55.0399Z" fill="#1D9993"/>
<path d="M13.9 55.0399C14.6376 55.0399 15.2356 54.449 15.2356 53.7202C15.2356 52.9913 14.6376 52.4004 13.9 52.4004C13.1624 52.4004 12.5645 52.9913 12.5645 53.7202C12.5645 54.449 13.1624 55.0399 13.9 55.0399Z" fill="#1D9993"/>
<path d="M27.7981 53.7202C27.7981 54.4485 27.1996 55.0399 26.4625 55.0399C25.7254 55.0399 25.127 54.4485 25.127 53.7202C25.127 52.9906 25.7254 52.4004 26.4625 52.4004C27.1996 52.4004 27.7981 52.9906 27.7981 53.7202Z" fill="#1D9993"/>
<path d="M39.025 55.0399C39.7626 55.0399 40.3606 54.449 40.3606 53.7202C40.3606 52.9913 39.7626 52.4004 39.025 52.4004C38.2874 52.4004 37.6895 52.9913 37.6895 53.7202C37.6895 54.449 38.2874 55.0399 39.025 55.0399Z" fill="#1D9993"/>
<path d="M1.33556 65.518C2.07317 65.518 2.67113 64.9271 2.67113 64.1982C2.67113 63.4693 2.07317 62.8784 1.33556 62.8784C0.597952 62.8784 0 63.4693 0 64.1982C0 64.9271 0.597952 65.518 1.33556 65.518Z" fill="#1D9993"/>
<path d="M13.9 65.518C14.6376 65.518 15.2356 64.9271 15.2356 64.1982C15.2356 63.4693 14.6376 62.8784 13.9 62.8784C13.1624 62.8784 12.5645 63.4693 12.5645 64.1982C12.5645 64.9271 13.1624 65.518 13.9 65.518Z" fill="#1D9993"/>
<path d="M27.7981 64.1982C27.7981 64.9277 27.1996 65.518 26.4625 65.518C25.7254 65.518 25.127 64.9277 25.127 64.1982C25.127 63.4687 25.7254 62.8784 26.4625 62.8784C27.1996 62.8784 27.7981 63.4698 27.7981 64.1982Z" fill="#1D9993"/>
<path d="M39.025 65.518C39.7626 65.518 40.3606 64.9271 40.3606 64.1982C40.3606 63.4693 39.7626 62.8784 39.025 62.8784C38.2874 62.8784 37.6895 63.4693 37.6895 64.1982C37.6895 64.9271 38.2874 65.518 39.025 65.518Z" fill="#1D9993"/>
<path d="M2.67113 74.6801C2.67113 75.4097 2.07263 75.9999 1.33556 75.9999C0.598495 75.9999 0 75.4085 0 74.6801C0 73.9518 0.5973 73.3604 1.33556 73.3604C2.07263 73.3604 2.67113 73.9518 2.67113 74.6801Z" fill="#1D9993"/>
<path d="M15.2356 74.6801C15.2356 75.4097 14.6383 75.9999 13.9 75.9999C13.1629 75.9999 12.5645 75.4085 12.5645 74.6801C12.5645 73.9518 13.1629 73.3604 13.9 73.3604C14.6371 73.3604 15.2356 73.9518 15.2356 74.6801Z" fill="#1D9993"/>
<path d="M27.7981 74.6801C27.7981 75.4097 27.1996 75.9999 26.4625 75.9999C25.7254 75.9999 25.127 75.4085 25.127 74.6801C25.127 73.9518 25.7254 73.3604 26.4625 73.3604C27.1996 73.3604 27.7981 73.9518 27.7981 74.6801Z" fill="#1D9993"/>
<path d="M40.3606 74.6801C40.3606 75.4097 39.7633 75.9999 39.025 75.9999C38.2868 75.9999 37.6895 75.4085 37.6895 74.6801C37.6895 73.9518 38.2868 73.3604 39.025 73.3604C39.7633 73.3604 40.3606 73.9518 40.3606 74.6801Z" fill="#1D9993"/>
</svg>
