<svg width="166" height="76" viewBox="0 0 166 76" fill="none" xmlns="http://www.w3.org/2000/svg">
<g opacity="0.2">
<path d="M1.33556 2.63954C2.07317 2.63954 2.67113 2.04866 2.67113 1.31977C2.67113 0.590881 2.07317 0 1.33556 0C0.597952 0 0 0.590881 0 1.31977C0 2.04866 0.597952 2.63954 1.33556 2.63954Z" fill="white"/>
<path d="M13.9 2.63954C14.6376 2.63954 15.2356 2.04866 15.2356 1.31977C15.2356 0.590881 14.6376 0 13.9 0C13.1624 0 12.5645 0.590881 12.5645 1.31977C12.5645 2.04866 13.1624 2.63954 13.9 2.63954Z" fill="white"/>
<path d="M27.7981 1.31977C27.7981 2.0493 27.1996 2.63954 26.4625 2.63954C25.7254 2.63954 25.127 2.0493 25.127 1.31977C25.127 0.590237 25.7254 0 26.4625 0C27.1996 0 27.7981 0.590237 27.7981 1.31977Z" fill="white"/>
<path d="M39.025 2.63954C39.7626 2.63954 40.3606 2.04866 40.3606 1.31977C40.3606 0.590881 39.7626 0 39.025 0C38.2874 0 37.6895 0.590881 37.6895 1.31977C37.6895 2.04866 38.2874 2.63954 39.025 2.63954Z" fill="white"/>
<path d="M52.927 1.31977C52.927 2.0493 52.3285 2.63954 51.5914 2.63954C50.8532 2.63954 50.2559 2.0493 50.2559 1.31977C50.2559 0.590237 50.8544 0 51.5914 0C52.3297 0 52.927 0.590237 52.927 1.31977Z" fill="white"/>
<path d="M64.1541 2.63954C64.8917 2.63954 65.4896 2.04866 65.4896 1.31977C65.4896 0.590881 64.8917 0 64.1541 0C63.4164 0 62.8185 0.590881 62.8185 1.31977C62.8185 2.04866 63.4164 2.63954 64.1541 2.63954Z" fill="white"/>
<path d="M76.7164 2.63954C77.454 2.63954 78.052 2.04866 78.052 1.31977C78.052 0.590881 77.454 0 76.7164 0C75.9788 0 75.3809 0.590881 75.3809 1.31977C75.3809 2.04866 75.9788 2.63954 76.7164 2.63954Z" fill="white"/>
<path d="M90.6163 1.31977C90.6163 2.0493 90.0178 2.63954 89.2807 2.63954C88.5436 2.63954 87.9451 2.0493 87.9451 1.31977C87.9451 0.590237 88.5436 0 89.2807 0C90.0178 0 90.6163 0.590237 90.6163 1.31977Z" fill="white"/>
<path d="M103.181 1.31977C103.181 2.0493 102.582 2.63954 101.845 2.63954C101.108 2.63954 100.51 2.0493 100.51 1.31977C100.51 0.590237 101.107 0 101.845 0C102.584 0 103.181 0.590237 103.181 1.31977Z" fill="white"/>
<path d="M115.745 1.31977C115.745 2.0493 115.148 2.63954 114.41 2.63954C113.672 2.63954 113.074 2.0493 113.074 1.31977C113.074 0.590237 113.673 0 114.41 0C115.147 0 115.745 0.590237 115.745 1.31977Z" fill="white"/>
<path d="M126.974 2.63954C127.712 2.63954 128.31 2.04866 128.31 1.31977C128.31 0.590881 127.712 0 126.974 0C126.237 0 125.639 0.590881 125.639 1.31977C125.639 2.04866 126.237 2.63954 126.974 2.63954Z" fill="white"/>
<path d="M139.537 2.63954C140.274 2.63954 140.872 2.04866 140.872 1.31977C140.872 0.590881 140.274 0 139.537 0C138.799 0 138.201 0.590881 138.201 1.31977C138.201 2.04866 138.799 2.63954 139.537 2.63954Z" fill="white"/>
<path d="M153.435 1.31977C153.435 2.0493 152.836 2.63954 152.099 2.63954C151.362 2.63954 150.764 2.0493 150.764 1.31977C150.764 0.590237 151.362 0 152.099 0C152.837 0 153.435 0.590237 153.435 1.31977Z" fill="white"/>
<path d="M165.999 1.31977C165.999 2.0493 165.401 2.63954 164.664 2.63954C163.925 2.63954 163.328 2.0493 163.328 1.31977C163.328 0.590237 163.927 0 164.664 0C165.402 0 165.999 0.590237 165.999 1.31977Z" fill="white"/>
<path d="M1.33556 13.1215C2.07317 13.1215 2.67113 12.5306 2.67113 11.8018C2.67113 11.0729 2.07317 10.482 1.33556 10.482C0.597952 10.482 0 11.0729 0 11.8018C0 12.5306 0.597952 13.1215 1.33556 13.1215Z" fill="white"/>
<path d="M13.9 13.1215C14.6376 13.1215 15.2356 12.5306 15.2356 11.8018C15.2356 11.0729 14.6376 10.482 13.9 10.482C13.1624 10.482 12.5645 11.0729 12.5645 11.8018C12.5645 12.5306 13.1624 13.1215 13.9 13.1215Z" fill="white"/>
<path d="M27.7981 11.8018C27.7981 12.5313 27.1996 13.1215 26.4625 13.1215C25.7254 13.1215 25.127 12.5313 25.127 11.8018C25.127 11.0722 25.7254 10.482 26.4625 10.482C27.1996 10.4808 27.7981 11.0722 27.7981 11.8018Z" fill="white"/>
<path d="M39.025 13.1215C39.7626 13.1215 40.3606 12.5306 40.3606 11.8018C40.3606 11.0729 39.7626 10.482 39.025 10.482C38.2874 10.482 37.6895 11.0729 37.6895 11.8018C37.6895 12.5306 38.2874 13.1215 39.025 13.1215Z" fill="white"/>
<path d="M52.927 11.8018C52.927 12.5313 52.3285 13.1215 51.5914 13.1215C50.8532 13.1215 50.2559 12.5313 50.2559 11.8018C50.2559 11.0722 50.8544 10.482 51.5914 10.482C52.3297 10.4808 52.927 11.0722 52.927 11.8018Z" fill="white"/>
<path d="M64.1539 13.1215C64.8915 13.1215 65.4895 12.5306 65.4895 11.8018C65.4895 11.0729 64.8915 10.482 64.1539 10.482C63.4163 10.482 62.8184 11.0729 62.8184 11.8018C62.8184 12.5306 63.4163 13.1215 64.1539 13.1215Z" fill="white"/>
<path d="M76.7164 13.1215C77.454 13.1215 78.052 12.5306 78.052 11.8018C78.052 11.0729 77.454 10.482 76.7164 10.482C75.9788 10.482 75.3809 11.0729 75.3809 11.8018C75.3809 12.5306 75.9788 13.1215 76.7164 13.1215Z" fill="white"/>
<path d="M90.6164 11.8018C90.6164 12.5313 90.0179 13.1215 89.2809 13.1215C88.5438 13.1215 87.9453 12.5313 87.9453 11.8018C87.9453 11.0722 88.5438 10.482 89.2809 10.482C90.0179 10.4808 90.6164 11.0722 90.6164 11.8018Z" fill="white"/>
<path d="M103.181 11.8018C103.181 12.5313 102.582 13.1215 101.845 13.1215C101.108 13.1215 100.51 12.5313 100.51 11.8018C100.51 11.0722 101.107 10.482 101.845 10.482C102.584 10.482 103.181 11.0722 103.181 11.8018Z" fill="white"/>
<path d="M115.745 11.8018C115.745 12.5313 115.148 13.1215 114.41 13.1215C113.672 13.1215 113.074 12.5313 113.074 11.8018C113.074 11.0722 113.673 10.482 114.41 10.482C115.147 10.482 115.745 11.0722 115.745 11.8018Z" fill="white"/>
<path d="M126.974 13.1215C127.712 13.1215 128.31 12.5306 128.31 11.8018C128.31 11.0729 127.712 10.482 126.974 10.482C126.237 10.482 125.639 11.0729 125.639 11.8018C125.639 12.5306 126.237 13.1215 126.974 13.1215Z" fill="white"/>
<path d="M139.537 13.1215C140.274 13.1215 140.872 12.5306 140.872 11.8018C140.872 11.0729 140.274 10.482 139.537 10.482C138.799 10.482 138.201 11.0729 138.201 11.8018C138.201 12.5306 138.799 13.1215 139.537 13.1215Z" fill="white"/>
<path d="M153.435 11.8018C153.435 12.5313 152.836 13.1215 152.099 13.1215C151.362 13.1215 150.764 12.5313 150.764 11.8018C150.764 11.0722 151.362 10.482 152.099 10.482C152.837 10.4808 153.435 11.0722 153.435 11.8018Z" fill="white"/>
<path d="M165.999 11.8018C165.999 12.5313 165.401 13.1215 164.664 13.1215C163.925 13.1215 163.328 12.5313 163.328 11.8018C163.328 11.0722 163.927 10.482 164.664 10.482C165.402 10.4808 165.999 11.0722 165.999 11.8018Z" fill="white"/>
<path d="M2.67113 22.2799C2.67113 23.0095 2.07263 23.5997 1.33556 23.5997C0.598495 23.5997 0 23.0083 0 22.2799C0 21.5504 0.5973 20.9601 1.33556 20.9601C2.07263 20.9601 2.67113 21.5516 2.67113 22.2799Z" fill="white"/>
<path d="M15.2356 22.2799C15.2356 23.0083 14.6383 23.5997 13.9 23.5997C13.1629 23.5997 12.5645 23.0083 12.5645 22.2799C12.5645 21.5504 13.1629 20.9601 13.9 20.9601C14.6371 20.9601 15.2356 21.5516 15.2356 22.2799Z" fill="white"/>
<path d="M27.7981 22.2799C27.7981 23.0083 27.1996 23.5997 26.4625 23.5997C25.7254 23.5997 25.127 23.0083 25.127 22.2799C25.127 21.5504 25.7254 20.9601 26.4625 20.9601C27.1996 20.9601 27.7981 21.5516 27.7981 22.2799Z" fill="white"/>
<path d="M40.3606 22.2799C40.3606 23.0083 39.7633 23.5997 39.025 23.5997C38.2868 23.5997 37.6895 23.0083 37.6895 22.2799C37.6895 21.5504 38.2868 20.9601 39.025 20.9601C39.7633 20.9601 40.3606 21.5516 40.3606 22.2799Z" fill="white"/>
<path d="M52.927 22.2799C52.927 23.0083 52.3285 23.5997 51.5914 23.5997C50.8532 23.5997 50.2559 23.0083 50.2559 22.2799C50.2559 21.5504 50.8544 20.9601 51.5914 20.9601C52.3297 20.9601 52.927 21.5516 52.927 22.2799Z" fill="white"/>
<path d="M65.4895 22.2799C65.4895 23.0083 64.8922 23.5997 64.1539 23.5997C63.4157 23.5997 62.8184 23.0083 62.8184 22.2799C62.8184 21.5504 63.4157 20.9601 64.1539 20.9601C64.8922 20.9601 65.4895 21.5516 65.4895 22.2799Z" fill="white"/>
<path d="M78.052 22.2799C78.052 23.0095 77.4547 23.5997 76.7164 23.5997C75.9793 23.5997 75.3809 23.0083 75.3809 22.2799C75.3809 21.5504 75.9793 20.9601 76.7164 20.9601C77.4547 20.9601 78.052 21.5516 78.052 22.2799Z" fill="white"/>
<path d="M90.6164 22.2799C90.6164 23.0095 90.0179 23.5997 89.2809 23.5997C88.5438 23.5997 87.9453 23.0083 87.9453 22.2799C87.9453 21.5504 88.5438 20.9601 89.2809 20.9601C90.0179 20.9601 90.6164 21.5516 90.6164 22.2799Z" fill="white"/>
<path d="M103.181 22.2799C103.181 23.0083 102.582 23.5997 101.845 23.5997C101.108 23.5997 100.51 23.0083 100.51 22.2799C100.51 21.5504 101.107 20.9601 101.845 20.9601C102.584 20.9601 103.181 21.5516 103.181 22.2799Z" fill="white"/>
<path d="M115.745 22.2799C115.745 23.0083 115.148 23.5997 114.41 23.5997C113.672 23.5997 113.074 23.0083 113.074 22.2799C113.074 21.5504 113.673 20.9601 114.41 20.9601C115.147 20.9601 115.745 21.5516 115.745 22.2799Z" fill="white"/>
<path d="M128.31 22.2799C128.31 23.0083 127.711 23.5997 126.974 23.5997C126.237 23.5997 125.639 23.0083 125.639 22.2799C125.639 21.5504 126.237 20.9601 126.974 20.9601C127.712 20.9601 128.31 21.5516 128.31 22.2799Z" fill="white"/>
<path d="M140.872 22.2799C140.872 23.0083 140.274 23.5997 139.537 23.5997C138.8 23.5997 138.201 23.0083 138.201 22.2799C138.201 21.5504 138.8 20.9601 139.537 20.9601C140.274 20.9601 140.872 21.5516 140.872 22.2799Z" fill="white"/>
<path d="M153.435 22.2799C153.435 23.0083 152.836 23.5997 152.099 23.5997C151.362 23.5997 150.764 23.0083 150.764 22.2799C150.764 21.5504 151.362 20.9601 152.099 20.9601C152.837 20.9601 153.435 21.5516 153.435 22.2799Z" fill="white"/>
<path d="M165.999 22.2799C165.999 23.0095 165.402 23.5997 164.664 23.5997C163.925 23.5997 163.328 23.0083 163.328 22.2799C163.328 21.5504 163.927 20.9601 164.664 20.9601C165.402 20.9601 165.999 21.5516 165.999 22.2799Z" fill="white"/>
<path d="M2.67113 32.758C2.67113 33.4864 2.07263 34.0778 1.33556 34.0778C0.598495 34.0778 0 33.4875 0 32.758C0 32.0285 0.5973 31.4382 1.33556 31.4382C2.07263 31.4382 2.67113 32.0297 2.67113 32.758Z" fill="white"/>
<path d="M15.2356 32.758C15.2356 33.4864 14.6383 34.0778 13.9 34.0778C13.1629 34.0778 12.5645 33.4875 12.5645 32.758C12.5645 32.0285 13.1629 31.4382 13.9 31.4382C14.6371 31.4382 15.2356 32.0297 15.2356 32.758Z" fill="white"/>
<path d="M27.7981 32.758C27.7981 33.4864 27.1996 34.0778 26.4625 34.0778C25.7254 34.0778 25.127 33.4875 25.127 32.758C25.127 32.0285 25.7254 31.4382 26.4625 31.4382C27.1996 31.4382 27.7981 32.0297 27.7981 32.758Z" fill="white"/>
<path d="M40.3606 32.758C40.3606 33.4864 39.7633 34.0778 39.025 34.0778C38.2868 34.0778 37.6895 33.4875 37.6895 32.758C37.6895 32.0285 38.2868 31.4382 39.025 31.4382C39.7633 31.4382 40.3606 32.0297 40.3606 32.758Z" fill="white"/>
<path d="M52.927 32.758C52.927 33.4864 52.3285 34.0778 51.5914 34.0778C50.8532 34.0778 50.2559 33.4875 50.2559 32.758C50.2559 32.0285 50.8544 31.4382 51.5914 31.4382C52.3297 31.4382 52.927 32.0297 52.927 32.758Z" fill="white"/>
<path d="M65.4895 32.758C65.4895 33.4864 64.8922 34.0778 64.1539 34.0778C63.4157 34.0778 62.8184 33.4875 62.8184 32.758C62.8184 32.0285 63.4157 31.4382 64.1539 31.4382C64.8922 31.4382 65.4895 32.0297 65.4895 32.758Z" fill="white"/>
<path d="M78.052 32.758C78.052 33.4864 77.4535 34.0778 76.7164 34.0778C75.9793 34.0778 75.3809 33.4875 75.3809 32.758C75.3809 32.0285 75.9793 31.4382 76.7164 31.4382C77.4547 31.4382 78.052 32.0297 78.052 32.758Z" fill="white"/>
<path d="M90.6164 32.758C90.6164 33.4864 90.0179 34.0778 89.2809 34.0778C88.5438 34.0778 87.9453 33.4875 87.9453 32.758C87.9453 32.0285 88.5438 31.4382 89.2809 31.4382C90.0179 31.4382 90.6164 32.0297 90.6164 32.758Z" fill="white"/>
<path d="M103.181 32.758C103.181 33.4864 102.582 34.0778 101.845 34.0778C101.108 34.0778 100.51 33.4875 100.51 32.758C100.51 32.0285 101.107 31.4382 101.845 31.4382C102.584 31.4382 103.181 32.0297 103.181 32.758Z" fill="white"/>
<path d="M115.745 32.758C115.745 33.4864 115.148 34.0778 114.41 34.0778C113.672 34.0778 113.074 33.4875 113.074 32.758C113.074 32.0285 113.673 31.4382 114.41 31.4382C115.147 31.4382 115.745 32.0297 115.745 32.758Z" fill="white"/>
<path d="M128.31 32.758C128.31 33.4864 127.711 34.0778 126.974 34.0778C126.237 34.0778 125.639 33.4875 125.639 32.758C125.639 32.0285 126.237 31.4382 126.974 31.4382C127.712 31.4382 128.31 32.0297 128.31 32.758Z" fill="white"/>
<path d="M140.872 32.758C140.872 33.4864 140.274 34.0778 139.537 34.0778C138.8 34.0778 138.201 33.4875 138.201 32.758C138.201 32.0285 138.8 31.4382 139.537 31.4382C140.274 31.4382 140.872 32.0297 140.872 32.758Z" fill="white"/>
<path d="M153.435 32.758C153.435 33.4864 152.836 34.0778 152.099 34.0778C151.362 34.0778 150.764 33.4875 150.764 32.758C150.764 32.0285 151.362 31.4382 152.099 31.4382C152.837 31.4382 153.435 32.0297 153.435 32.758Z" fill="white"/>
<path d="M165.999 32.758C165.999 33.4864 165.401 34.0778 164.664 34.0778C163.925 34.0778 163.328 33.4875 163.328 32.758C163.328 32.0285 163.927 31.4382 164.664 31.4382C165.402 31.4382 165.999 32.0297 165.999 32.758Z" fill="white"/>
<path d="M2.67113 43.24C2.67113 43.9695 2.07263 44.5598 1.33556 44.5598C0.598495 44.5598 0 43.9684 0 43.24C0 42.5116 0.5973 41.9202 1.33556 41.9202C2.07263 41.9202 2.67113 42.5105 2.67113 43.24Z" fill="white"/>
<path d="M15.2356 43.24C15.2356 43.9695 14.6383 44.5598 13.9 44.5598C13.1629 44.5598 12.5645 43.9684 12.5645 43.24C12.5645 42.5116 13.1629 41.9202 13.9 41.9202C14.6371 41.9202 15.2356 42.5105 15.2356 43.24Z" fill="white"/>
<path d="M27.7981 43.24C27.7981 43.9695 27.1996 44.5598 26.4625 44.5598C25.7254 44.5598 25.127 43.9684 25.127 43.24C25.127 42.5116 25.7254 41.9202 26.4625 41.9202C27.1996 41.9202 27.7981 42.5105 27.7981 43.24Z" fill="white"/>
<path d="M40.3606 43.24C40.3606 43.9695 39.7633 44.5598 39.025 44.5598C38.2868 44.5598 37.6895 43.9684 37.6895 43.24C37.6895 42.5116 38.2868 41.9202 39.025 41.9202C39.7633 41.9202 40.3606 42.5105 40.3606 43.24Z" fill="white"/>
<path d="M52.927 43.24C52.927 43.9695 52.3285 44.5598 51.5914 44.5598C50.8532 44.5598 50.2559 43.9684 50.2559 43.24C50.2559 42.5116 50.8544 41.9202 51.5914 41.9202C52.3297 41.9202 52.927 42.5105 52.927 43.24Z" fill="white"/>
<path d="M65.4895 43.24C65.4895 43.9695 64.8922 44.5598 64.1539 44.5598C63.4157 44.5598 62.8184 43.9684 62.8184 43.24C62.8184 42.5116 63.4157 41.9202 64.1539 41.9202C64.8922 41.9202 65.4895 42.5105 65.4895 43.24Z" fill="white"/>
<path d="M78.052 43.24C78.052 43.9695 77.4535 44.5598 76.7164 44.5598C75.9793 44.5598 75.3809 43.9684 75.3809 43.24C75.3809 42.5116 75.9793 41.9202 76.7164 41.9202C77.4547 41.9202 78.052 42.5105 78.052 43.24Z" fill="white"/>
<path d="M90.6164 43.24C90.6164 43.9695 90.0179 44.5598 89.2809 44.5598C88.5438 44.5598 87.9453 43.9684 87.9453 43.24C87.9453 42.5116 88.5438 41.9202 89.2809 41.9202C90.0179 41.9202 90.6164 42.5105 90.6164 43.24Z" fill="white"/>
<path d="M103.181 43.24C103.181 43.9695 102.582 44.5598 101.845 44.5598C101.108 44.5598 100.51 43.9684 100.51 43.24C100.51 42.5116 101.107 41.9202 101.845 41.9202C102.584 41.9202 103.181 42.5105 103.181 43.24Z" fill="white"/>
<path d="M115.745 43.24C115.745 43.9695 115.148 44.5598 114.41 44.5598C113.672 44.5598 113.074 43.9684 113.074 43.24C113.074 42.5116 113.673 41.9202 114.41 41.9202C115.147 41.9202 115.745 42.5105 115.745 43.24Z" fill="white"/>
<path d="M128.31 43.24C128.31 43.9695 127.711 44.5598 126.974 44.5598C126.237 44.5598 125.639 43.9684 125.639 43.24C125.639 42.5116 126.237 41.9202 126.974 41.9202C127.712 41.9202 128.31 42.5105 128.31 43.24Z" fill="white"/>
<path d="M140.872 43.24C140.872 43.9695 140.274 44.5598 139.537 44.5598C138.8 44.5598 138.201 43.9684 138.201 43.24C138.201 42.5116 138.8 41.9202 139.537 41.9202C140.274 41.9202 140.872 42.5105 140.872 43.24Z" fill="white"/>
<path d="M153.435 43.24C153.435 43.9695 152.836 44.5598 152.099 44.5598C151.362 44.5598 150.764 43.9684 150.764 43.24C150.764 42.5116 151.362 41.9202 152.099 41.9202C152.837 41.9202 153.435 42.5105 153.435 43.24Z" fill="white"/>
<path d="M165.999 43.24C165.999 43.9695 165.401 44.5598 164.664 44.5598C163.925 44.5598 163.328 43.9684 163.328 43.24C163.328 42.5116 163.927 41.9202 164.664 41.9202C165.402 41.9202 165.999 42.5105 165.999 43.24Z" fill="white"/>
<path d="M1.33556 55.0398C2.07317 55.0398 2.67113 54.4489 2.67113 53.72C2.67113 52.9911 2.07317 52.4003 1.33556 52.4003C0.597952 52.4003 0 52.9911 0 53.72C0 54.4489 0.597952 55.0398 1.33556 55.0398Z" fill="white"/>
<path d="M13.9 55.0398C14.6376 55.0398 15.2356 54.4489 15.2356 53.72C15.2356 52.9911 14.6376 52.4003 13.9 52.4003C13.1624 52.4003 12.5645 52.9911 12.5645 53.72C12.5645 54.4489 13.1624 55.0398 13.9 55.0398Z" fill="white"/>
<path d="M27.7981 53.72C27.7981 54.4484 27.1996 55.0398 26.4625 55.0398C25.7254 55.0398 25.127 54.4484 25.127 53.72C25.127 52.9905 25.7254 52.4003 26.4625 52.4003C27.1996 52.4003 27.7981 52.9905 27.7981 53.72Z" fill="white"/>
<path d="M39.025 55.0398C39.7626 55.0398 40.3606 54.4489 40.3606 53.72C40.3606 52.9911 39.7626 52.4003 39.025 52.4003C38.2874 52.4003 37.6895 52.9911 37.6895 53.72C37.6895 54.4489 38.2874 55.0398 39.025 55.0398Z" fill="white"/>
<path d="M52.927 53.72C52.927 54.4484 52.3285 55.0398 51.5914 55.0398C50.8532 55.0398 50.2559 54.4484 50.2559 53.72C50.2559 52.9905 50.8544 52.4003 51.5914 52.4003C52.3297 52.4003 52.927 52.9905 52.927 53.72Z" fill="white"/>
<path d="M64.1539 55.0398C64.8915 55.0398 65.4895 54.4489 65.4895 53.72C65.4895 52.9911 64.8915 52.4003 64.1539 52.4003C63.4163 52.4003 62.8184 52.9911 62.8184 53.72C62.8184 54.4489 63.4163 55.0398 64.1539 55.0398Z" fill="white"/>
<path d="M76.7164 55.0398C77.454 55.0398 78.052 54.4489 78.052 53.72C78.052 52.9911 77.454 52.4003 76.7164 52.4003C75.9788 52.4003 75.3809 52.9911 75.3809 53.72C75.3809 54.4489 75.9788 55.0398 76.7164 55.0398Z" fill="white"/>
<path d="M90.6164 53.72C90.6164 54.4484 90.0179 55.0398 89.2809 55.0398C88.5438 55.0398 87.9453 54.4484 87.9453 53.72C87.9453 52.9905 88.5438 52.4003 89.2809 52.4003C90.0179 52.4003 90.6164 52.9905 90.6164 53.72Z" fill="white"/>
<path d="M103.181 53.72C103.181 54.4484 102.582 55.0398 101.845 55.0398C101.108 55.0398 100.51 54.4484 100.51 53.72C100.51 52.9905 101.107 52.4003 101.845 52.4003C102.584 52.4003 103.181 52.9905 103.181 53.72Z" fill="white"/>
<path d="M115.745 53.72C115.745 54.4484 115.148 55.0398 114.41 55.0398C113.672 55.0398 113.074 54.4484 113.074 53.72C113.074 52.9905 113.673 52.4003 114.41 52.4003C115.147 52.4003 115.745 52.9905 115.745 53.72Z" fill="white"/>
<path d="M126.974 55.0398C127.712 55.0398 128.31 54.4489 128.31 53.72C128.31 52.9911 127.712 52.4003 126.974 52.4003C126.237 52.4003 125.639 52.9911 125.639 53.72C125.639 54.4489 126.237 55.0398 126.974 55.0398Z" fill="white"/>
<path d="M139.537 55.0398C140.274 55.0398 140.872 54.4489 140.872 53.72C140.872 52.9911 140.274 52.4003 139.537 52.4003C138.799 52.4003 138.201 52.9911 138.201 53.72C138.201 54.4489 138.799 55.0398 139.537 55.0398Z" fill="white"/>
<path d="M153.435 53.72C153.435 54.4484 152.836 55.0398 152.099 55.0398C151.362 55.0398 150.764 54.4484 150.764 53.72C150.764 52.9905 151.362 52.4003 152.099 52.4003C152.837 52.4003 153.435 52.9905 153.435 53.72Z" fill="white"/>
<path d="M165.999 53.72C165.999 54.4484 165.401 55.0398 164.664 55.0398C163.925 55.0398 163.328 54.4484 163.328 53.72C163.328 52.9905 163.927 52.4003 164.664 52.4003C165.402 52.4003 165.999 52.9905 165.999 53.72Z" fill="white"/>
<path d="M1.33556 65.518C2.07317 65.518 2.67113 64.9271 2.67113 64.1982C2.67113 63.4693 2.07317 62.8784 1.33556 62.8784C0.597952 62.8784 0 63.4693 0 64.1982C0 64.9271 0.597952 65.518 1.33556 65.518Z" fill="white"/>
<path d="M13.9 65.518C14.6376 65.518 15.2356 64.9271 15.2356 64.1982C15.2356 63.4693 14.6376 62.8784 13.9 62.8784C13.1624 62.8784 12.5645 63.4693 12.5645 64.1982C12.5645 64.9271 13.1624 65.518 13.9 65.518Z" fill="white"/>
<path d="M27.7981 64.1982C27.7981 64.9277 27.1996 65.518 26.4625 65.518C25.7254 65.518 25.127 64.9277 25.127 64.1982C25.127 63.4687 25.7254 62.8784 26.4625 62.8784C27.1996 62.8784 27.7981 63.4698 27.7981 64.1982Z" fill="white"/>
<path d="M39.025 65.518C39.7626 65.518 40.3606 64.9271 40.3606 64.1982C40.3606 63.4693 39.7626 62.8784 39.025 62.8784C38.2874 62.8784 37.6895 63.4693 37.6895 64.1982C37.6895 64.9271 38.2874 65.518 39.025 65.518Z" fill="white"/>
<path d="M52.927 64.1982C52.927 64.9277 52.3285 65.518 51.5914 65.518C50.8532 65.518 50.2559 64.9277 50.2559 64.1982C50.2559 63.4687 50.8544 62.8784 51.5914 62.8784C52.3297 62.8784 52.927 63.4698 52.927 64.1982Z" fill="white"/>
<path d="M64.1539 65.518C64.8915 65.518 65.4895 64.9271 65.4895 64.1982C65.4895 63.4693 64.8915 62.8784 64.1539 62.8784C63.4163 62.8784 62.8184 63.4693 62.8184 64.1982C62.8184 64.9271 63.4163 65.518 64.1539 65.518Z" fill="white"/>
<path d="M76.7164 65.518C77.454 65.518 78.052 64.9271 78.052 64.1982C78.052 63.4693 77.454 62.8784 76.7164 62.8784C75.9788 62.8784 75.3809 63.4693 75.3809 64.1982C75.3809 64.9271 75.9788 65.518 76.7164 65.518Z" fill="white"/>
<path d="M90.6164 64.1982C90.6164 64.9277 90.0179 65.518 89.2809 65.518C88.5438 65.518 87.9453 64.9277 87.9453 64.1982C87.9453 63.4687 88.5438 62.8784 89.2809 62.8784C90.0179 62.8784 90.6164 63.4698 90.6164 64.1982Z" fill="white"/>
<path d="M103.181 64.1982C103.181 64.9277 102.582 65.518 101.845 65.518C101.108 65.518 100.51 64.9277 100.51 64.1982C100.51 63.4687 101.107 62.8784 101.845 62.8784C102.584 62.8784 103.181 63.4698 103.181 64.1982Z" fill="white"/>
<path d="M115.745 64.1982C115.745 64.9277 115.148 65.518 114.41 65.518C113.672 65.518 113.074 64.9277 113.074 64.1982C113.074 63.4687 113.673 62.8784 114.41 62.8784C115.147 62.8784 115.745 63.4698 115.745 64.1982Z" fill="white"/>
<path d="M126.974 65.518C127.712 65.518 128.31 64.9271 128.31 64.1982C128.31 63.4693 127.712 62.8784 126.974 62.8784C126.237 62.8784 125.639 63.4693 125.639 64.1982C125.639 64.9271 126.237 65.518 126.974 65.518Z" fill="white"/>
<path d="M139.537 65.518C140.274 65.518 140.872 64.9271 140.872 64.1982C140.872 63.4693 140.274 62.8784 139.537 62.8784C138.799 62.8784 138.201 63.4693 138.201 64.1982C138.201 64.9271 138.799 65.518 139.537 65.518Z" fill="white"/>
<path d="M153.435 64.1982C153.435 64.9277 152.836 65.518 152.099 65.518C151.362 65.518 150.764 64.9277 150.764 64.1982C150.764 63.4687 151.362 62.8784 152.099 62.8784C152.837 62.8784 153.435 63.4698 153.435 64.1982Z" fill="white"/>
<path d="M165.999 64.1982C165.999 64.9277 165.401 65.518 164.664 65.518C163.925 65.518 163.328 64.9277 163.328 64.1982C163.328 63.4687 163.927 62.8784 164.664 62.8784C165.402 62.8784 165.999 63.4698 165.999 64.1982Z" fill="white"/>
<path d="M2.67113 74.6802C2.67113 75.4097 2.07263 76 1.33556 76C0.598495 76 0 75.4085 0 74.6802C0 73.9518 0.5973 73.3604 1.33556 73.3604C2.07263 73.3604 2.67113 73.9518 2.67113 74.6802Z" fill="white"/>
<path d="M15.2356 74.6802C15.2356 75.4097 14.6383 76 13.9 76C13.1629 76 12.5645 75.4085 12.5645 74.6802C12.5645 73.9518 13.1629 73.3604 13.9 73.3604C14.6371 73.3604 15.2356 73.9518 15.2356 74.6802Z" fill="white"/>
<path d="M27.7981 74.6802C27.7981 75.4097 27.1996 76 26.4625 76C25.7254 76 25.127 75.4085 25.127 74.6802C25.127 73.9518 25.7254 73.3604 26.4625 73.3604C27.1996 73.3604 27.7981 73.9518 27.7981 74.6802Z" fill="white"/>
<path d="M40.3606 74.6802C40.3606 75.4097 39.7633 76 39.025 76C38.2868 76 37.6895 75.4085 37.6895 74.6802C37.6895 73.9518 38.2868 73.3604 39.025 73.3604C39.7633 73.3604 40.3606 73.9518 40.3606 74.6802Z" fill="white"/>
<path d="M52.927 74.6802C52.927 75.4097 52.3285 76 51.5914 76C50.8532 76 50.2559 75.4085 50.2559 74.6802C50.2559 73.9518 50.8544 73.3604 51.5914 73.3604C52.3297 73.3604 52.927 73.9518 52.927 74.6802Z" fill="white"/>
<path d="M65.4895 74.6802C65.4895 75.4097 64.8922 76 64.1539 76C63.4157 76 62.8184 75.4085 62.8184 74.6802C62.8184 73.9518 63.4157 73.3604 64.1539 73.3604C64.8922 73.3604 65.4895 73.9518 65.4895 74.6802Z" fill="white"/>
<path d="M78.052 74.6802C78.052 75.4097 77.4535 76 76.7164 76C75.9793 76 75.3809 75.4085 75.3809 74.6802C75.3809 73.9518 75.9793 73.3604 76.7164 73.3604C77.4547 73.3604 78.052 73.9518 78.052 74.6802Z" fill="white"/>
<path d="M90.6164 74.6802C90.6164 75.4097 90.0179 76 89.2809 76C88.5438 76 87.9453 75.4085 87.9453 74.6802C87.9453 73.9518 88.5438 73.3604 89.2809 73.3604C90.0179 73.3604 90.6164 73.9518 90.6164 74.6802Z" fill="white"/>
<path d="M103.181 74.6802C103.181 75.4097 102.582 76 101.845 76C101.108 76 100.51 75.4085 100.51 74.6802C100.51 73.9518 101.107 73.3604 101.845 73.3604C102.584 73.3604 103.181 73.9518 103.181 74.6802Z" fill="white"/>
<path d="M115.745 74.6802C115.745 75.4097 115.148 76 114.41 76C113.672 76 113.074 75.4085 113.074 74.6802C113.074 73.9518 113.673 73.3604 114.41 73.3604C115.147 73.3604 115.745 73.9518 115.745 74.6802Z" fill="white"/>
<path d="M128.31 74.6802C128.31 75.4097 127.711 76 126.974 76C126.237 76 125.639 75.4085 125.639 74.6802C125.639 73.9518 126.237 73.3604 126.974 73.3604C127.712 73.3604 128.31 73.9518 128.31 74.6802Z" fill="white"/>
<path d="M140.872 74.6802C140.872 75.4097 140.274 76 139.537 76C138.8 76 138.201 75.4085 138.201 74.6802C138.201 73.9518 138.8 73.3604 139.537 73.3604C140.274 73.3604 140.872 73.9518 140.872 74.6802Z" fill="white"/>
<path d="M153.435 74.6802C153.435 75.4097 152.836 76 152.099 76C151.362 76 150.764 75.4085 150.764 74.6802C150.764 73.9518 151.362 73.3604 152.099 73.3604C152.837 73.3604 153.435 73.9518 153.435 74.6802Z" fill="white"/>
<path d="M165.999 74.6802C165.999 75.4097 165.401 76 164.664 76C163.925 76 163.328 75.4085 163.328 74.6802C163.328 73.9518 163.927 73.3604 164.664 73.3604C165.402 73.3604 165.999 73.9518 165.999 74.6802Z" fill="white"/>
</g>
</svg>
