<svg width="104" height="56" viewBox="0 0 104 56" fill="none" xmlns="http://www.w3.org/2000/svg">
<path d="M2.15406 2.63954C2.89167 2.63954 3.48962 2.04866 3.48962 1.31977C3.48962 0.590881 2.89167 0 2.15406 0C1.41645 0 0.818497 0.590881 0.818497 1.31977C0.818497 2.04866 1.41645 2.63954 2.15406 2.63954Z" fill="#FDCB02"/>
<path d="M14.7164 2.63954C15.454 2.63954 16.052 2.04866 16.052 1.31977C16.052 0.590881 15.454 0 14.7164 0C13.9788 0 13.3809 0.590881 13.3809 1.31977C13.3809 2.04866 13.9788 2.63954 14.7164 2.63954Z" fill="#FDCB02"/>
<path d="M28.6163 1.31977C28.6163 2.0493 28.0178 2.63954 27.2807 2.63954C26.5436 2.63954 25.9451 2.0493 25.9451 1.31977C25.9451 0.590237 26.5436 0 27.2807 0C28.0178 0 28.6163 0.590237 28.6163 1.31977Z" fill="#FDCB02"/>
<path d="M41.1809 1.31977C41.1809 2.0493 40.5824 2.63954 39.8453 2.63954C39.1083 2.63954 38.5098 2.0493 38.5098 1.31977C38.5098 0.590237 39.1071 0 39.8453 0C40.5836 0 41.1809 0.590237 41.1809 1.31977Z" fill="#FDCB02"/>
<path d="M53.7453 1.31977C53.7453 2.0493 53.148 2.63954 52.4098 2.63954C51.6715 2.63954 51.0742 2.0493 51.0742 1.31977C51.0742 0.590237 51.6727 0 52.4098 0C53.1469 0 53.7453 0.590237 53.7453 1.31977Z" fill="#FDCB02"/>
<path d="M64.9744 2.63954C65.712 2.63954 66.31 2.04866 66.31 1.31977C66.31 0.590881 65.712 0 64.9744 0C64.2368 0 63.6389 0.590881 63.6389 1.31977C63.6389 2.04866 64.2368 2.63954 64.9744 2.63954Z" fill="#FDCB02"/>
<path d="M77.5367 2.63954C78.2743 2.63954 78.8723 2.04866 78.8723 1.31977C78.8723 0.590881 78.2743 0 77.5367 0C76.7991 0 76.2012 0.590881 76.2012 1.31977C76.2012 2.04866 76.7991 2.63954 77.5367 2.63954Z" fill="#FDCB02"/>
<path d="M91.4347 1.31977C91.4347 2.0493 90.8363 2.63954 90.0992 2.63954C89.3621 2.63954 88.7636 2.0493 88.7636 1.31977C88.7636 0.590237 89.3621 0 90.0992 0C90.8374 0 91.4347 0.590237 91.4347 1.31977Z" fill="#FDCB02"/>
<path d="M103.999 1.31977C103.999 2.0493 103.401 2.63954 102.664 2.63954C101.925 2.63954 101.328 2.0493 101.328 1.31977C101.328 0.590237 101.927 0 102.664 0C103.402 0 103.999 0.590237 103.999 1.31977Z" fill="#FDCB02"/>
<path d="M2.15392 13.1215C2.89153 13.1215 3.48948 12.5306 3.48948 11.8017C3.48948 11.0728 2.89153 10.4819 2.15392 10.4819C1.41631 10.4819 0.818359 11.0728 0.818359 11.8017C0.818359 12.5306 1.41631 13.1215 2.15392 13.1215Z" fill="#FDCB02"/>
<path d="M14.7164 13.1215C15.454 13.1215 16.052 12.5306 16.052 11.8017C16.052 11.0728 15.454 10.4819 14.7164 10.4819C13.9788 10.4819 13.3809 11.0728 13.3809 11.8017C13.3809 12.5306 13.9788 13.1215 14.7164 13.1215Z" fill="#FDCB02"/>
<path d="M28.6164 11.8017C28.6164 12.5312 28.0179 13.1215 27.2809 13.1215C26.5438 13.1215 25.9453 12.5312 25.9453 11.8017C25.9453 11.0722 26.5438 10.4819 27.2809 10.4819C28.0179 10.4808 28.6164 11.0722 28.6164 11.8017Z" fill="#FDCB02"/>
<path d="M41.1809 11.8017C41.1809 12.5312 40.5824 13.1215 39.8453 13.1215C39.1083 13.1215 38.5098 12.5312 38.5098 11.8017C38.5098 11.0722 39.1071 10.4819 39.8453 10.4819C40.5836 10.4819 41.1809 11.0722 41.1809 11.8017Z" fill="#FDCB02"/>
<path d="M53.7453 11.8017C53.7453 12.5312 53.148 13.1215 52.4098 13.1215C51.6715 13.1215 51.0742 12.5312 51.0742 11.8017C51.0742 11.0722 51.6727 10.4819 52.4098 10.4819C53.1469 10.4819 53.7453 11.0722 53.7453 11.8017Z" fill="#FDCB02"/>
<path d="M64.9742 13.1215C65.7118 13.1215 66.3098 12.5306 66.3098 11.8017C66.3098 11.0728 65.7118 10.4819 64.9742 10.4819C64.2366 10.4819 63.6387 11.0728 63.6387 11.8017C63.6387 12.5306 64.2366 13.1215 64.9742 13.1215Z" fill="#FDCB02"/>
<path d="M77.5367 13.1215C78.2743 13.1215 78.8723 12.5306 78.8723 11.8017C78.8723 11.0728 78.2743 10.4819 77.5367 10.4819C76.7991 10.4819 76.2012 11.0728 76.2012 11.8017C76.2012 12.5306 76.7991 13.1215 77.5367 13.1215Z" fill="#FDCB02"/>
<path d="M91.4348 11.8017C91.4348 12.5312 90.8363 13.1215 90.0992 13.1215C89.3622 13.1215 88.7637 12.5312 88.7637 11.8017C88.7637 11.0722 89.3622 10.4819 90.0992 10.4819C90.8375 10.4808 91.4348 11.0722 91.4348 11.8017Z" fill="#FDCB02"/>
<path d="M103.999 11.8017C103.999 12.5312 103.401 13.1215 102.664 13.1215C101.925 13.1215 101.328 12.5312 101.328 11.8017C101.328 11.0722 101.927 10.4819 102.664 10.4819C103.402 10.4808 103.999 11.0722 103.999 11.8017Z" fill="#FDCB02"/>
<path d="M3.48948 22.2797C3.48948 23.0081 2.89218 23.5995 2.15392 23.5995C1.41566 23.5995 0.818359 23.0081 0.818359 22.2797C0.818359 21.5502 1.41566 20.96 2.15392 20.96C2.89218 20.96 3.48948 21.5514 3.48948 22.2797Z" fill="#FDCB02"/>
<path d="M16.052 22.2797C16.052 23.0093 15.4547 23.5995 14.7164 23.5995C13.9793 23.5995 13.3809 23.0081 13.3809 22.2797C13.3809 21.5502 13.9793 20.96 14.7164 20.96C15.4547 20.96 16.052 21.5514 16.052 22.2797Z" fill="#FDCB02"/>
<path d="M28.6164 22.2797C28.6164 23.0093 28.0179 23.5995 27.2809 23.5995C26.5438 23.5995 25.9453 23.0081 25.9453 22.2797C25.9453 21.5502 26.5438 20.96 27.2809 20.96C28.0179 20.96 28.6164 21.5514 28.6164 22.2797Z" fill="#FDCB02"/>
<path d="M41.1809 22.2797C41.1809 23.0081 40.5824 23.5995 39.8453 23.5995C39.1083 23.5995 38.5098 23.0081 38.5098 22.2797C38.5098 21.5502 39.1071 20.96 39.8453 20.96C40.5836 20.96 41.1809 21.5514 41.1809 22.2797Z" fill="#FDCB02"/>
<path d="M53.7453 22.2797C53.7453 23.0081 53.148 23.5995 52.4098 23.5995C51.6715 23.5995 51.0742 23.0081 51.0742 22.2797C51.0742 21.5502 51.6727 20.96 52.4098 20.96C53.1469 20.96 53.7453 21.5514 53.7453 22.2797Z" fill="#FDCB02"/>
<path d="M66.3098 22.2797C66.3098 23.0081 65.7113 23.5995 64.9742 23.5995C64.2372 23.5995 63.6387 23.0081 63.6387 22.2797C63.6387 21.5502 64.2372 20.96 64.9742 20.96C65.7125 20.96 66.3098 21.5514 66.3098 22.2797Z" fill="#FDCB02"/>
<path d="M78.8723 22.2797C78.8723 23.0081 78.2738 23.5995 77.5367 23.5995C76.7997 23.5995 76.2012 23.0081 76.2012 22.2797C76.2012 21.5502 76.7997 20.96 77.5367 20.96C78.2738 20.96 78.8723 21.5514 78.8723 22.2797Z" fill="#FDCB02"/>
<path d="M91.4348 22.2797C91.4348 23.0081 90.8363 23.5995 90.0992 23.5995C89.3622 23.5995 88.7637 23.0081 88.7637 22.2797C88.7637 21.5502 89.3622 20.96 90.0992 20.96C90.8375 20.96 91.4348 21.5514 91.4348 22.2797Z" fill="#FDCB02"/>
<path d="M103.999 22.2797C103.999 23.0093 103.402 23.5995 102.664 23.5995C101.925 23.5995 101.328 23.0081 101.328 22.2797C101.328 21.5502 101.927 20.96 102.664 20.96C103.402 20.96 103.999 21.5514 103.999 22.2797Z" fill="#FDCB02"/>
<path d="M3.48948 32.7583C3.48948 33.4866 2.89218 34.078 2.15392 34.078C1.41566 34.078 0.818359 33.4878 0.818359 32.7583C0.818359 32.0287 1.41566 31.4385 2.15392 31.4385C2.89218 31.4385 3.48948 32.0299 3.48948 32.7583Z" fill="#FDCB02"/>
<path d="M16.052 32.7583C16.052 33.4866 15.4535 34.078 14.7164 34.078C13.9793 34.078 13.3809 33.4878 13.3809 32.7583C13.3809 32.0287 13.9793 31.4385 14.7164 31.4385C15.4547 31.4385 16.052 32.0299 16.052 32.7583Z" fill="#FDCB02"/>
<path d="M28.6164 32.7583C28.6164 33.4866 28.0179 34.078 27.2809 34.078C26.5438 34.078 25.9453 33.4878 25.9453 32.7583C25.9453 32.0287 26.5438 31.4385 27.2809 31.4385C28.0179 31.4385 28.6164 32.0299 28.6164 32.7583Z" fill="#FDCB02"/>
<path d="M41.1809 32.7583C41.1809 33.4866 40.5824 34.078 39.8453 34.078C39.1083 34.078 38.5098 33.4878 38.5098 32.7583C38.5098 32.0287 39.1071 31.4385 39.8453 31.4385C40.5836 31.4385 41.1809 32.0299 41.1809 32.7583Z" fill="#FDCB02"/>
<path d="M53.7453 32.7583C53.7453 33.4866 53.148 34.078 52.4098 34.078C51.6715 34.078 51.0742 33.4878 51.0742 32.7583C51.0742 32.0287 51.6727 31.4385 52.4098 31.4385C53.1469 31.4385 53.7453 32.0299 53.7453 32.7583Z" fill="#FDCB02"/>
<path d="M66.3098 32.7583C66.3098 33.4866 65.7113 34.078 64.9742 34.078C64.2372 34.078 63.6387 33.4878 63.6387 32.7583C63.6387 32.0287 64.2372 31.4385 64.9742 31.4385C65.7125 31.4385 66.3098 32.0299 66.3098 32.7583Z" fill="#FDCB02"/>
<path d="M78.8723 32.7583C78.8723 33.4866 78.2738 34.078 77.5367 34.078C76.7997 34.078 76.2012 33.4878 76.2012 32.7583C76.2012 32.0287 76.7997 31.4385 77.5367 31.4385C78.2738 31.4385 78.8723 32.0299 78.8723 32.7583Z" fill="#FDCB02"/>
<path d="M91.4348 32.7583C91.4348 33.4866 90.8363 34.078 90.0992 34.078C89.3622 34.078 88.7637 33.4878 88.7637 32.7583C88.7637 32.0287 89.3622 31.4385 90.0992 31.4385C90.8375 31.4385 91.4348 32.0299 91.4348 32.7583Z" fill="#FDCB02"/>
<path d="M103.999 32.7583C103.999 33.4866 103.401 34.078 102.664 34.078C101.925 34.078 101.328 33.4878 101.328 32.7583C101.328 32.0287 101.927 31.4385 102.664 31.4385C103.402 31.4385 103.999 32.0299 103.999 32.7583Z" fill="#FDCB02"/>
<path d="M3.48948 43.2402C3.48948 43.9697 2.89218 44.5599 2.15392 44.5599C1.41566 44.5599 0.818359 43.9685 0.818359 43.2402C0.818359 42.5118 1.41566 41.9204 2.15392 41.9204C2.89218 41.9204 3.48948 42.5107 3.48948 43.2402Z" fill="#FDCB02"/>
<path d="M16.052 43.2402C16.052 43.9697 15.4535 44.5599 14.7164 44.5599C13.9793 44.5599 13.3809 43.9685 13.3809 43.2402C13.3809 42.5118 13.9793 41.9204 14.7164 41.9204C15.4547 41.9204 16.052 42.5107 16.052 43.2402Z" fill="#FDCB02"/>
<path d="M28.6164 43.2402C28.6164 43.9697 28.0179 44.5599 27.2809 44.5599C26.5438 44.5599 25.9453 43.9685 25.9453 43.2402C25.9453 42.5118 26.5438 41.9204 27.2809 41.9204C28.0179 41.9204 28.6164 42.5107 28.6164 43.2402Z" fill="#FDCB02"/>
<path d="M41.1809 43.2402C41.1809 43.9697 40.5824 44.5599 39.8453 44.5599C39.1083 44.5599 38.5098 43.9685 38.5098 43.2402C38.5098 42.5118 39.1071 41.9204 39.8453 41.9204C40.5836 41.9204 41.1809 42.5107 41.1809 43.2402Z" fill="#FDCB02"/>
<path d="M53.7453 43.2402C53.7453 43.9697 53.148 44.5599 52.4098 44.5599C51.6715 44.5599 51.0742 43.9685 51.0742 43.2402C51.0742 42.5118 51.6727 41.9204 52.4098 41.9204C53.1469 41.9204 53.7453 42.5107 53.7453 43.2402Z" fill="#FDCB02"/>
<path d="M66.3098 43.2402C66.3098 43.9697 65.7113 44.5599 64.9742 44.5599C64.2372 44.5599 63.6387 43.9685 63.6387 43.2402C63.6387 42.5118 64.2372 41.9204 64.9742 41.9204C65.7125 41.9204 66.3098 42.5107 66.3098 43.2402Z" fill="#FDCB02"/>
<path d="M78.8723 43.2402C78.8723 43.9697 78.2738 44.5599 77.5367 44.5599C76.7997 44.5599 76.2012 43.9685 76.2012 43.2402C76.2012 42.5118 76.7997 41.9204 77.5367 41.9204C78.2738 41.9204 78.8723 42.5107 78.8723 43.2402Z" fill="#FDCB02"/>
<path d="M91.4348 43.2402C91.4348 43.9697 90.8363 44.5599 90.0992 44.5599C89.3622 44.5599 88.7637 43.9685 88.7637 43.2402C88.7637 42.5118 89.3622 41.9204 90.0992 41.9204C90.8375 41.9204 91.4348 42.5107 91.4348 43.2402Z" fill="#FDCB02"/>
<path d="M103.999 43.2402C103.999 43.9697 103.401 44.5599 102.664 44.5599C101.925 44.5599 101.328 43.9685 101.328 43.2402C101.328 42.5118 101.927 41.9204 102.664 41.9204C103.402 41.9204 103.999 42.5107 103.999 43.2402Z" fill="#FDCB02"/>
<path d="M2.15392 55.0399C2.89153 55.0399 3.48948 54.449 3.48948 53.7202C3.48948 52.9913 2.89153 52.4004 2.15392 52.4004C1.41631 52.4004 0.818359 52.9913 0.818359 53.7202C0.818359 54.449 1.41631 55.0399 2.15392 55.0399Z" fill="#FDCB02"/>
<path d="M14.7164 55.0399C15.454 55.0399 16.052 54.449 16.052 53.7202C16.052 52.9913 15.454 52.4004 14.7164 52.4004C13.9788 52.4004 13.3809 52.9913 13.3809 53.7202C13.3809 54.449 13.9788 55.0399 14.7164 55.0399Z" fill="#FDCB02"/>
<path d="M28.6164 53.7202C28.6164 54.4485 28.0179 55.0399 27.2809 55.0399C26.5438 55.0399 25.9453 54.4485 25.9453 53.7202C25.9453 52.9906 26.5438 52.4004 27.2809 52.4004C28.0179 52.4004 28.6164 52.9906 28.6164 53.7202Z" fill="#FDCB02"/>
<path d="M41.1809 53.7202C41.1809 54.4485 40.5824 55.0399 39.8453 55.0399C39.1083 55.0399 38.5098 54.4485 38.5098 53.7202C38.5098 52.9906 39.1071 52.4004 39.8453 52.4004C40.5836 52.4004 41.1809 52.9906 41.1809 53.7202Z" fill="#FDCB02"/>
<path d="M53.7453 53.7202C53.7453 54.4485 53.148 55.0399 52.4098 55.0399C51.6715 55.0399 51.0742 54.4485 51.0742 53.7202C51.0742 52.9906 51.6727 52.4004 52.4098 52.4004C53.1469 52.4004 53.7453 52.9906 53.7453 53.7202Z" fill="#FDCB02"/>
<path d="M64.9742 55.0399C65.7118 55.0399 66.3098 54.449 66.3098 53.7202C66.3098 52.9913 65.7118 52.4004 64.9742 52.4004C64.2366 52.4004 63.6387 52.9913 63.6387 53.7202C63.6387 54.449 64.2366 55.0399 64.9742 55.0399Z" fill="#FDCB02"/>
<path d="M77.5367 55.0399C78.2743 55.0399 78.8723 54.449 78.8723 53.7202C78.8723 52.9913 78.2743 52.4004 77.5367 52.4004C76.7991 52.4004 76.2012 52.9913 76.2012 53.7202C76.2012 54.449 76.7991 55.0399 77.5367 55.0399Z" fill="#FDCB02"/>
<path d="M91.4348 53.7202C91.4348 54.4485 90.8363 55.0399 90.0992 55.0399C89.3622 55.0399 88.7637 54.4485 88.7637 53.7202C88.7637 52.9906 89.3622 52.4004 90.0992 52.4004C90.8375 52.4004 91.4348 52.9906 91.4348 53.7202Z" fill="#FDCB02"/>
<path d="M103.999 53.7202C103.999 54.4485 103.401 55.0399 102.664 55.0399C101.925 55.0399 101.328 54.4485 101.328 53.7202C101.328 52.9906 101.927 52.4004 102.664 52.4004C103.402 52.4004 103.999 52.9906 103.999 53.7202Z" fill="#FDCB02"/>
</svg>
