<svg width="25" height="24" viewBox="0 0 25 24" fill="none" xmlns="http://www.w3.org/2000/svg">
<path d="M19.7042 7.26408C19.3525 7.36126 19.0756 7.34801 19.0756 7.34801L19.0888 7.28174C19.4141 7.01669 20.2406 6.21273 20.3505 5.83283C20.3988 5.66938 20.3417 5.61195 20.3417 5.60754L19.2866 6.0581L18.403 6.4601C17.7919 5.81074 16.8731 5.3999 15.8444 5.3999C14.0112 5.3999 12.5252 6.70306 12.5252 8.31543C12.5252 8.6114 12.5692 9.14591 12.6615 9.41537C12.6615 9.33144 12.6615 9.4993 12.6615 9.41537C11.479 9.38445 9.96666 8.89409 8.62142 8.20939C5.96172 6.85765 5.79467 5.92116 5.79467 5.92116C5.37703 6.36732 5.16161 7.84276 5.58365 9.00013C5.85621 9.74226 6.78821 10.4049 6.78821 10.4049C6.78821 10.4049 6.37057 10.4137 5.93535 10.2635C5.50012 10.1133 5.33306 9.96755 5.33306 9.96755C5.07369 10.6037 5.59244 11.7389 6.49366 12.5517C7.01681 13.0288 7.97518 13.3248 7.97518 13.3248L6.48047 13.369C6.39695 14.8312 9.53144 15.697 9.53144 15.697C8.61263 16.4082 7.54875 16.8411 6.40574 16.8411C5.81225 16.8411 5.24074 16.7527 4.70001 16.5893C6.20791 17.8394 8.15103 18.7008 10.2568 18.5904C15.8532 18.2944 19.0096 13.4617 19.1591 8.71741L19.1679 8.72625C19.1679 8.72625 19.4317 8.59372 19.99 8.03271C20.5483 7.46728 20.9 6.80907 20.9 6.80907C20.9 6.80907 20.0603 7.17571 19.7086 7.27289L19.7042 7.26408Z" fill="#FDCB02"/>
</svg>
