<svg width="24" height="25" viewBox="0 0 24 25" fill="none" xmlns="http://www.w3.org/2000/svg">
<path d="M19.2042 7.46415C18.8525 7.56133 18.5756 7.54808 18.5756 7.54808L18.5888 7.48181C18.9141 7.21676 19.7406 6.4128 19.8505 6.0329C19.8988 5.86946 19.8417 5.81203 19.8417 5.80761L18.7866 6.25817L17.903 6.66017C17.2919 6.01081 16.3731 5.59998 15.3444 5.59998C13.5112 5.59998 12.0252 6.90314 12.0252 8.5155C12.0252 8.81147 12.0692 9.34598 12.1615 9.61544C12.1615 9.53151 12.1615 9.69937 12.1615 9.61544C10.9789 9.58452 9.46665 9.09417 8.12141 8.40946C5.46171 7.05773 5.29465 6.12123 5.29465 6.12123C4.87701 6.56739 4.6616 8.04283 5.08364 9.2002C5.3562 9.94233 6.28819 10.6049 6.28819 10.6049C6.28819 10.6049 5.87056 10.6138 5.43533 10.4636C5.00011 10.3134 4.83305 10.1676 4.83305 10.1676C4.57368 10.8037 5.09243 11.939 5.99365 12.7518C6.5168 13.2289 7.47517 13.5249 7.47517 13.5249L5.98046 13.5691C5.89693 15.0312 9.03143 15.897 9.03143 15.897C8.11262 16.6082 7.04874 17.0412 5.90573 17.0412C5.31224 17.0412 4.74073 16.9528 4.2 16.7894C5.7079 18.0395 7.65102 18.9009 9.7568 18.7905C15.3532 18.4945 18.5096 13.6618 18.6591 8.91748L18.6679 8.92632C18.6679 8.92632 18.9317 8.7938 19.49 8.23278C20.0483 7.66735 20.4 7.00914 20.4 7.00914C20.4 7.00914 19.5603 7.37578 19.2086 7.47297L19.2042 7.46415Z" fill="#FDCB02"/>
</svg>
