<svg width="18" height="15" viewBox="0 0 18 15" fill="none" xmlns="http://www.w3.org/2000/svg">
<path d="M16.65 4.72509C16.65 3.58985 16.2736 2.67875 15.6475 2.05262C15.0213 1.4265 14.1102 1.05009 12.975 1.05009H4.725C3.58976 1.05009 2.67866 1.4265 2.05254 2.05262C1.42642 2.67875 1.05 3.58985 1.05 4.72509V9.67509C1.05 10.8103 1.42642 11.7214 2.05254 12.3475C2.67866 12.9737 3.58976 13.3501 4.725 13.3501H12.975C14.1102 13.3501 15.0213 12.9737 15.6475 12.3475C16.2736 11.7214 16.65 10.8103 16.65 9.67509V4.72509ZM17.55 9.67509C17.55 11.0148 17.1014 12.1662 16.2838 12.9839C15.4662 13.8015 14.3148 14.2501 12.975 14.2501H4.725C3.38524 14.2501 2.23384 13.8015 1.41621 12.9839C0.598587 12.1662 0.150002 11.0148 0.150002 9.67509V4.72509C0.150002 3.38532 0.598587 2.23392 1.41621 1.4163C2.23384 0.598671 3.38524 0.150085 4.725 0.150085H12.975C14.3148 0.150085 15.4662 0.598671 16.2838 1.4163C17.1014 2.23392 17.55 3.38532 17.55 4.72509V9.67509Z" fill="#FDCB02"/>
<path d="M7.07842 4.61391C7.55004 4.34182 8.10906 4.46472 8.58721 4.75161L10.6497 5.98911L10.6673 6.00083L10.7505 6.05884C11.1572 6.35709 11.4248 6.76743 11.4249 7.24126C11.4249 7.71521 11.1573 8.12596 10.7505 8.42427L10.6673 8.48227C10.6615 8.48612 10.6557 8.48983 10.6497 8.49341L8.58721 9.73091C8.08916 10.0297 7.53578 10.1125 7.07842 9.84868C6.62484 9.58694 6.42043 9.07318 6.42041 8.52036V6.04536C6.42041 5.43826 6.60771 4.88559 7.07842 4.61391ZM7.32041 8.52036C7.32043 8.87483 7.44585 9.02113 7.52842 9.0688C7.60731 9.11431 7.79681 9.15537 8.12373 8.95923L10.1739 7.72876C10.4583 7.53722 10.5249 7.35377 10.5249 7.24126C10.5248 7.12869 10.4583 6.94521 10.1739 6.75376L8.12373 5.52387C7.77711 5.31591 7.59316 5.35595 7.52842 5.39321C7.46301 5.43095 7.32041 5.58004 7.32041 6.04536V8.52036Z" fill="#FDCB02"/>
</svg>
