<svg width="17" height="16" viewBox="0 0 17 16" fill="none" xmlns="http://www.w3.org/2000/svg">
<path d="M11.5577 15.8001H5.44402C2.72966 15.8001 0.525391 13.5922 0.525391 10.8815V5.49651C0.525391 2.78215 2.73331 0.577881 5.44402 0.577881H11.5577C14.2684 0.577881 16.4763 2.7858 16.4763 5.49651V10.8815C16.4763 13.5959 14.2684 15.8001 11.5577 15.8001ZM5.44766 1.66728C3.33812 1.66728 1.62206 3.38334 1.62206 5.49288V10.8779C1.62206 12.9874 3.33812 14.7035 5.44766 14.7035H11.5613C13.6709 14.7035 15.3869 12.9874 15.3869 10.8779V5.49288C15.3869 3.38334 13.6709 1.66728 11.5613 1.66728H5.44766Z" fill="#FDCB02"/>
<path d="M8.50049 12.5647C6.0849 12.5647 4.12109 10.6009 4.12109 8.18529C4.12109 5.7697 6.0849 3.80591 8.50049 3.80591C10.9161 3.80591 12.8799 5.7697 12.8799 8.18529C12.8799 10.6009 10.9161 12.5647 8.50049 12.5647ZM8.50049 4.90256C6.68971 4.90256 5.21412 6.37816 5.21412 8.18894C5.21412 9.99972 6.68971 11.4753 8.50049 11.4753C10.3113 11.4753 11.7869 9.99972 11.7869 8.18894C11.7869 6.37816 10.3113 4.90256 8.50049 4.90256Z" fill="#FDCB02"/>
<path d="M13.7226 3.94446C13.7226 4.44726 13.3146 4.85167 12.8154 4.85167C12.3163 4.85167 11.9082 4.44361 11.9082 3.94446C11.9082 3.44531 12.3163 3.03723 12.8154 3.03723C13.3146 3.03723 13.7226 3.44531 13.7226 3.94446Z" fill="#FDCB02"/>
</svg>
