<svg width="32" height="32" viewBox="0 0 32 32" fill="none" xmlns="http://www.w3.org/2000/svg">
<path d="M8.13371 20.8L15.6004 8.00001C15.867 7.60001 16.4004 7.60001 16.667 8.00001L18.667 10.6667C19.2004 11.4667 19.3337 12.5333 18.8004 13.3333L14.4004 20.4C14.0004 21.0667 13.2004 21.6 12.4004 21.6H8.53371C8.13371 21.7333 7.86704 21.2 8.13371 20.8ZM20.267 16.5333L17.7337 20.8C17.467 21.2 17.7337 21.7333 18.267 21.7333H23.3337C23.867 21.7333 24.1337 21.2 23.867 20.8L21.3337 16.5333C21.067 16.1333 20.5337 16.1333 20.267 16.5333Z" stroke="#0A97B0" stroke-width="2" stroke-miterlimit="10" stroke-linecap="round" stroke-linejoin="round"/>
<path d="M16.0003 29.3334C23.3643 29.3334 29.3337 23.364 29.3337 16C29.3337 8.63602 23.3643 2.66669 16.0003 2.66669C8.63633 2.66669 2.66699 8.63602 2.66699 16C2.66699 23.364 8.63633 29.3334 16.0003 29.3334Z" stroke="#0A97B0" stroke-width="2" stroke-miterlimit="10"/>
</svg>
