<svg width="32" height="32" viewBox="0 0 32 32" fill="none" xmlns="http://www.w3.org/2000/svg">
<path d="M12.0003 29.3334H20.0003C26.667 29.3334 29.3337 26.6667 29.3337 20V12C29.3337 5.33335 26.667 2.66669 20.0003 2.66669H12.0003C5.33366 2.66669 2.66699 5.33335 2.66699 12V20C2.66699 26.6667 5.33366 29.3334 12.0003 29.3334Z" stroke="#0A97B0" stroke-width="2" stroke-linecap="round" stroke-linejoin="round"/>
<path d="M20.7601 24.6666V19.4666M20.7601 9.93331V7.33331M20.7601 9.93331C21.2154 9.93331 21.6661 10.023 22.0867 10.1972C22.5073 10.3714 22.8895 10.6268 23.2114 10.9487C23.5333 11.2706 23.7887 11.6527 23.9629 12.0733C24.1371 12.4939 24.2268 12.9447 24.2268 13.4C24.2268 13.8552 24.1371 14.306 23.9629 14.7266C23.7887 15.1472 23.5333 15.5294 23.2114 15.8513C22.8895 16.1732 22.5073 16.4285 22.0867 16.6028C21.6661 16.777 21.2154 16.8666 20.7601 16.8666C19.8407 16.8666 18.9589 16.5014 18.3088 15.8513C17.6587 15.2012 17.2934 14.3194 17.2934 13.4C17.2934 12.4806 17.6587 11.5988 18.3088 10.9487C18.9589 10.2985 19.8407 9.93331 20.7601 9.93331ZM11.2401 24.6666V22.0666M11.2401 22.0666C11.6954 22.0666 12.1461 21.977 12.5667 21.8028C12.9873 21.6285 13.3695 21.3732 13.6914 21.0513C14.0133 20.7294 14.2687 20.3472 14.4429 19.9266C14.6171 19.506 14.7068 19.0552 14.7068 18.6C14.7068 18.1447 14.6171 17.6939 14.4429 17.2733C14.2687 16.8527 14.0133 16.4706 13.6914 16.1487C13.3695 15.8268 12.9873 15.5714 12.5667 15.3972C12.1461 15.223 11.6954 15.1333 11.2401 15.1333C10.3207 15.1333 9.43893 15.4986 8.7888 16.1487C8.13867 16.7988 7.77344 17.6806 7.77344 18.6C7.77344 19.5194 8.13867 20.4012 8.7888 21.0513C9.43893 21.7014 10.3207 22.0666 11.2401 22.0666ZM11.2401 12.5333V7.33331" stroke="#0A97B0" stroke-width="2" stroke-miterlimit="10" stroke-linecap="round" stroke-linejoin="round"/>
</svg>
