<svg width="21" height="20" viewBox="0 0 21 20" fill="none" xmlns="http://www.w3.org/2000/svg">
<path d="M21.0008 0L17.7955 5.07176H6.41152C5.17792 5.07176 4.06089 5.56558 3.25276 6.36174C2.98466 6.62587 2.7496 6.92444 2.55727 7.24981C2.16685 7.90244 1.94339 8.66227 1.94339 9.47372C1.94339 9.59045 1.94731 9.70718 1.95891 9.82014C1.44608 9.23828 1.04589 8.55696 0.793311 7.80864C0.595136 7.21914 0.486328 6.58945 0.486328 5.93304C0.486328 4.29476 1.16045 2.81152 2.25028 1.73783C3.34011 0.664141 4.84565 8.65033e-05 6.50856 8.65033e-05H21.0008V0Z" fill="#0A97B0"/>
<path d="M3.35203 9.30823C3.32483 10.7272 4.48502 11.892 5.9256 11.892H14.6864C15.92 11.892 17.0371 12.3858 17.8452 13.1819C18.1133 13.4461 18.3484 13.7446 18.5407 14.07C18.9311 14.7226 19.1546 15.4825 19.1546 16.2939C19.1546 16.4106 19.1506 16.5274 19.1391 16.6403C19.6519 16.0585 20.0521 15.3772 20.3046 14.6288C20.5028 14.0393 20.6116 13.4096 20.6116 12.7532C20.6116 11.115 19.9375 9.63171 18.8477 8.55802C17.7578 7.48433 16.2523 6.82019 14.5894 6.82019H5.92569C4.52294 6.8201 3.37854 7.92652 3.35203 9.30823Z" fill="#FDCB02"/>
<path d="M14.3756 19.7647H0L3.49679 13.6403H14.3756C16.0922 13.6403 17.4838 15.0112 17.4838 16.7024C17.4838 18.3936 16.0922 19.7647 14.3756 19.7647Z" fill="#0A97B0"/>
</svg>
