<svg width="25" height="24" viewBox="0 0 25 24" fill="none" xmlns="http://www.w3.org/2000/svg">
<path d="M19.7035 7.26408C19.3518 7.36126 19.0748 7.34801 19.0748 7.34801L19.088 7.28174C19.4133 7.01669 20.2398 6.21273 20.3497 5.83283C20.3981 5.66938 20.3409 5.61195 20.3409 5.60754L19.2858 6.0581L18.4022 6.4601C17.7911 5.81074 16.8723 5.3999 15.8436 5.3999C14.0104 5.3999 12.5245 6.70306 12.5245 8.31543C12.5245 8.6114 12.5684 9.14591 12.6607 9.41537C12.6607 9.33144 12.6607 9.4993 12.6607 9.41537C11.4782 9.38445 9.96587 8.89409 8.62063 8.20939C5.96093 6.85765 5.79387 5.92116 5.79387 5.92116C5.37623 6.36732 5.16082 7.84276 5.58285 9.00013C5.85542 9.74226 6.78741 10.4049 6.78741 10.4049C6.78741 10.4049 6.36978 10.4137 5.93455 10.2635C5.49933 10.1133 5.33227 9.96755 5.33227 9.96755C5.0729 10.6037 5.59165 11.7389 6.49287 12.5517C7.01602 13.0288 7.97439 13.3248 7.97439 13.3248L6.47968 13.369C6.39615 14.8312 9.53064 15.697 9.53064 15.697C8.61184 16.4082 7.54796 16.8411 6.40495 16.8411C5.81146 16.8411 5.23995 16.7527 4.69922 16.5893C6.20712 17.8394 8.15024 18.7008 10.256 18.5904C15.8524 18.2944 19.0089 13.4617 19.1583 8.71741L19.1671 8.72625C19.1671 8.72625 19.4309 8.59372 19.9892 8.03271C20.5475 7.46728 20.8992 6.80907 20.8992 6.80907C20.8992 6.80907 20.0595 7.17571 19.7078 7.27289L19.7035 7.26408Z" fill="#FDCB02"/>
</svg>
