<svg width="104" height="76" viewBox="0 0 104 76" fill="none" xmlns="http://www.w3.org/2000/svg">
<g opacity="0.2">
<path d="M2.15417 2.63954C2.89178 2.63954 3.48973 2.04866 3.48973 1.31977C3.48973 0.590881 2.89178 0 2.15417 0C1.41656 0 0.818604 0.590881 0.818604 1.31977C0.818604 2.04866 1.41656 2.63954 2.15417 2.63954Z" fill="white"/>
<path d="M14.7164 2.63954C15.454 2.63954 16.052 2.04866 16.052 1.31977C16.052 0.590881 15.454 0 14.7164 0C13.9788 0 13.3809 0.590881 13.3809 1.31977C13.3809 2.04866 13.9788 2.63954 14.7164 2.63954Z" fill="white"/>
<path d="M28.6162 1.31977C28.6162 2.0493 28.0177 2.63954 27.2806 2.63954C26.5436 2.63954 25.9451 2.0493 25.9451 1.31977C25.9451 0.590237 26.5436 0 27.2806 0C28.0177 0 28.6162 0.590237 28.6162 1.31977Z" fill="white"/>
<path d="M41.1809 1.31977C41.1809 2.0493 40.5824 2.63954 39.8453 2.63954C39.1083 2.63954 38.5098 2.0493 38.5098 1.31977C38.5098 0.590237 39.1071 0 39.8453 0C40.5836 0 41.1809 0.590237 41.1809 1.31977Z" fill="white"/>
<path d="M53.7453 1.31977C53.7453 2.0493 53.148 2.63954 52.4098 2.63954C51.6715 2.63954 51.0742 2.0493 51.0742 1.31977C51.0742 0.590237 51.6727 0 52.4098 0C53.1469 0 53.7453 0.590237 53.7453 1.31977Z" fill="white"/>
<path d="M64.9745 2.63954C65.7121 2.63954 66.31 2.04866 66.31 1.31977C66.31 0.590881 65.7121 0 64.9745 0C64.2369 0 63.6389 0.590881 63.6389 1.31977C63.6389 2.04866 64.2369 2.63954 64.9745 2.63954Z" fill="white"/>
<path d="M77.5367 2.63954C78.2743 2.63954 78.8723 2.04866 78.8723 1.31977C78.8723 0.590881 78.2743 0 77.5367 0C76.7991 0 76.2012 0.590881 76.2012 1.31977C76.2012 2.04866 76.7991 2.63954 77.5367 2.63954Z" fill="white"/>
<path d="M91.4348 1.31977C91.4348 2.0493 90.8363 2.63954 90.0992 2.63954C89.3622 2.63954 88.7637 2.0493 88.7637 1.31977C88.7637 0.590237 89.3622 0 90.0992 0C90.8375 0 91.4348 0.590237 91.4348 1.31977Z" fill="white"/>
<path d="M103.999 1.31977C103.999 2.0493 103.401 2.63954 102.664 2.63954C101.925 2.63954 101.328 2.0493 101.328 1.31977C101.328 0.590237 101.927 0 102.664 0C103.402 0 103.999 0.590237 103.999 1.31977Z" fill="white"/>
<path d="M2.15392 13.122C2.89153 13.122 3.48948 12.5311 3.48948 11.8022C3.48948 11.0733 2.89153 10.4824 2.15392 10.4824C1.41631 10.4824 0.818359 11.0733 0.818359 11.8022C0.818359 12.5311 1.41631 13.122 2.15392 13.122Z" fill="white"/>
<path d="M14.7164 13.122C15.454 13.122 16.052 12.5311 16.052 11.8022C16.052 11.0733 15.454 10.4824 14.7164 10.4824C13.9788 10.4824 13.3809 11.0733 13.3809 11.8022C13.3809 12.5311 13.9788 13.122 14.7164 13.122Z" fill="white"/>
<path d="M28.6164 11.8022C28.6164 12.5317 28.0179 13.122 27.2809 13.122C26.5438 13.122 25.9453 12.5317 25.9453 11.8022C25.9453 11.0727 26.5438 10.4824 27.2809 10.4824C28.0179 10.4812 28.6164 11.0727 28.6164 11.8022Z" fill="white"/>
<path d="M41.1809 11.8022C41.1809 12.5317 40.5824 13.122 39.8453 13.122C39.1083 13.122 38.5098 12.5317 38.5098 11.8022C38.5098 11.0727 39.1071 10.4824 39.8453 10.4824C40.5836 10.4824 41.1809 11.0727 41.1809 11.8022Z" fill="white"/>
<path d="M53.7453 11.8022C53.7453 12.5317 53.148 13.122 52.4098 13.122C51.6715 13.122 51.0742 12.5317 51.0742 11.8022C51.0742 11.0727 51.6727 10.4824 52.4098 10.4824C53.1469 10.4824 53.7453 11.0727 53.7453 11.8022Z" fill="white"/>
<path d="M64.9742 13.122C65.7118 13.122 66.3098 12.5311 66.3098 11.8022C66.3098 11.0733 65.7118 10.4824 64.9742 10.4824C64.2366 10.4824 63.6387 11.0733 63.6387 11.8022C63.6387 12.5311 64.2366 13.122 64.9742 13.122Z" fill="white"/>
<path d="M77.5367 13.122C78.2743 13.122 78.8723 12.5311 78.8723 11.8022C78.8723 11.0733 78.2743 10.4824 77.5367 10.4824C76.7991 10.4824 76.2012 11.0733 76.2012 11.8022C76.2012 12.5311 76.7991 13.122 77.5367 13.122Z" fill="white"/>
<path d="M91.4348 11.8022C91.4348 12.5317 90.8363 13.122 90.0992 13.122C89.3622 13.122 88.7637 12.5317 88.7637 11.8022C88.7637 11.0727 89.3622 10.4824 90.0992 10.4824C90.8375 10.4812 91.4348 11.0727 91.4348 11.8022Z" fill="white"/>
<path d="M103.999 11.8022C103.999 12.5317 103.401 13.122 102.664 13.122C101.925 13.122 101.328 12.5317 101.328 11.8022C101.328 11.0727 101.927 10.4824 102.664 10.4824C103.402 10.4812 103.999 11.0727 103.999 11.8022Z" fill="white"/>
<path d="M3.48948 22.2799C3.48948 23.0082 2.89218 23.5996 2.15392 23.5996C1.41566 23.5996 0.818359 23.0082 0.818359 22.2799C0.818359 21.5503 1.41566 20.9601 2.15392 20.9601C2.89218 20.9601 3.48948 21.5515 3.48948 22.2799Z" fill="white"/>
<path d="M16.052 22.2799C16.052 23.0094 15.4547 23.5996 14.7164 23.5996C13.9793 23.5996 13.3809 23.0082 13.3809 22.2799C13.3809 21.5503 13.9793 20.9601 14.7164 20.9601C15.4547 20.9601 16.052 21.5515 16.052 22.2799Z" fill="white"/>
<path d="M28.6164 22.2799C28.6164 23.0094 28.0179 23.5996 27.2809 23.5996C26.5438 23.5996 25.9453 23.0082 25.9453 22.2799C25.9453 21.5503 26.5438 20.9601 27.2809 20.9601C28.0179 20.9601 28.6164 21.5515 28.6164 22.2799Z" fill="white"/>
<path d="M41.1809 22.2799C41.1809 23.0082 40.5824 23.5996 39.8453 23.5996C39.1083 23.5996 38.5098 23.0082 38.5098 22.2799C38.5098 21.5503 39.1071 20.9601 39.8453 20.9601C40.5836 20.9601 41.1809 21.5515 41.1809 22.2799Z" fill="white"/>
<path d="M53.7453 22.2799C53.7453 23.0082 53.148 23.5996 52.4098 23.5996C51.6715 23.5996 51.0742 23.0082 51.0742 22.2799C51.0742 21.5503 51.6727 20.9601 52.4098 20.9601C53.1469 20.9601 53.7453 21.5515 53.7453 22.2799Z" fill="white"/>
<path d="M66.3098 22.2799C66.3098 23.0082 65.7113 23.5996 64.9742 23.5996C64.2372 23.5996 63.6387 23.0082 63.6387 22.2799C63.6387 21.5503 64.2372 20.9601 64.9742 20.9601C65.7125 20.9601 66.3098 21.5515 66.3098 22.2799Z" fill="white"/>
<path d="M78.8723 22.2799C78.8723 23.0082 78.2738 23.5996 77.5367 23.5996C76.7997 23.5996 76.2012 23.0082 76.2012 22.2799C76.2012 21.5503 76.7997 20.9601 77.5367 20.9601C78.2738 20.9601 78.8723 21.5515 78.8723 22.2799Z" fill="white"/>
<path d="M91.4348 22.2799C91.4348 23.0082 90.8363 23.5996 90.0992 23.5996C89.3622 23.5996 88.7637 23.0082 88.7637 22.2799C88.7637 21.5503 89.3622 20.9601 90.0992 20.9601C90.8375 20.9601 91.4348 21.5515 91.4348 22.2799Z" fill="white"/>
<path d="M103.999 22.2799C103.999 23.0094 103.402 23.5996 102.664 23.5996C101.925 23.5996 101.328 23.0082 101.328 22.2799C101.328 21.5503 101.927 20.9601 102.664 20.9601C103.402 20.9601 103.999 21.5515 103.999 22.2799Z" fill="white"/>
<path d="M3.48948 32.758C3.48948 33.4864 2.89218 34.0778 2.15392 34.0778C1.41566 34.0778 0.818359 33.4875 0.818359 32.758C0.818359 32.0285 1.41566 31.4382 2.15392 31.4382C2.89218 31.4382 3.48948 32.0297 3.48948 32.758Z" fill="white"/>
<path d="M16.052 32.758C16.052 33.4864 15.4535 34.0778 14.7164 34.0778C13.9793 34.0778 13.3809 33.4875 13.3809 32.758C13.3809 32.0285 13.9793 31.4382 14.7164 31.4382C15.4547 31.4382 16.052 32.0297 16.052 32.758Z" fill="white"/>
<path d="M28.6164 32.758C28.6164 33.4864 28.0179 34.0778 27.2809 34.0778C26.5438 34.0778 25.9453 33.4875 25.9453 32.758C25.9453 32.0285 26.5438 31.4382 27.2809 31.4382C28.0179 31.4382 28.6164 32.0297 28.6164 32.758Z" fill="white"/>
<path d="M41.1809 32.758C41.1809 33.4864 40.5824 34.0778 39.8453 34.0778C39.1083 34.0778 38.5098 33.4875 38.5098 32.758C38.5098 32.0285 39.1071 31.4382 39.8453 31.4382C40.5836 31.4382 41.1809 32.0297 41.1809 32.758Z" fill="white"/>
<path d="M53.7453 32.758C53.7453 33.4864 53.148 34.0778 52.4098 34.0778C51.6715 34.0778 51.0742 33.4875 51.0742 32.758C51.0742 32.0285 51.6727 31.4382 52.4098 31.4382C53.1469 31.4382 53.7453 32.0297 53.7453 32.758Z" fill="white"/>
<path d="M66.3098 32.758C66.3098 33.4864 65.7113 34.0778 64.9742 34.0778C64.2372 34.0778 63.6387 33.4875 63.6387 32.758C63.6387 32.0285 64.2372 31.4382 64.9742 31.4382C65.7125 31.4382 66.3098 32.0297 66.3098 32.758Z" fill="white"/>
<path d="M78.8723 32.758C78.8723 33.4864 78.2738 34.0778 77.5367 34.0778C76.7997 34.0778 76.2012 33.4875 76.2012 32.758C76.2012 32.0285 76.7997 31.4382 77.5367 31.4382C78.2738 31.4382 78.8723 32.0297 78.8723 32.758Z" fill="white"/>
<path d="M91.4348 32.758C91.4348 33.4864 90.8363 34.0778 90.0992 34.0778C89.3622 34.0778 88.7637 33.4875 88.7637 32.758C88.7637 32.0285 89.3622 31.4382 90.0992 31.4382C90.8375 31.4382 91.4348 32.0297 91.4348 32.758Z" fill="white"/>
<path d="M103.999 32.758C103.999 33.4864 103.401 34.0778 102.664 34.0778C101.925 34.0778 101.328 33.4875 101.328 32.758C101.328 32.0285 101.927 31.4382 102.664 31.4382C103.402 31.4382 103.999 32.0297 103.999 32.758Z" fill="white"/>
<path d="M3.48948 43.2397C3.48948 43.9692 2.89218 44.5595 2.15392 44.5595C1.41566 44.5595 0.818359 43.968 0.818359 43.2397C0.818359 42.5113 1.41566 41.9199 2.15392 41.9199C2.89218 41.9199 3.48948 42.5102 3.48948 43.2397Z" fill="white"/>
<path d="M16.052 43.2397C16.052 43.9692 15.4535 44.5595 14.7164 44.5595C13.9793 44.5595 13.3809 43.968 13.3809 43.2397C13.3809 42.5113 13.9793 41.9199 14.7164 41.9199C15.4547 41.9199 16.052 42.5102 16.052 43.2397Z" fill="white"/>
<path d="M28.6164 43.2397C28.6164 43.9692 28.0179 44.5595 27.2809 44.5595C26.5438 44.5595 25.9453 43.968 25.9453 43.2397C25.9453 42.5113 26.5438 41.9199 27.2809 41.9199C28.0179 41.9199 28.6164 42.5102 28.6164 43.2397Z" fill="white"/>
<path d="M41.1809 43.2397C41.1809 43.9692 40.5824 44.5595 39.8453 44.5595C39.1083 44.5595 38.5098 43.968 38.5098 43.2397C38.5098 42.5113 39.1071 41.9199 39.8453 41.9199C40.5836 41.9199 41.1809 42.5102 41.1809 43.2397Z" fill="white"/>
<path d="M53.7453 43.2397C53.7453 43.9692 53.148 44.5595 52.4098 44.5595C51.6715 44.5595 51.0742 43.968 51.0742 43.2397C51.0742 42.5113 51.6727 41.9199 52.4098 41.9199C53.1469 41.9199 53.7453 42.5102 53.7453 43.2397Z" fill="white"/>
<path d="M66.3098 43.2397C66.3098 43.9692 65.7113 44.5595 64.9742 44.5595C64.2372 44.5595 63.6387 43.968 63.6387 43.2397C63.6387 42.5113 64.2372 41.9199 64.9742 41.9199C65.7125 41.9199 66.3098 42.5102 66.3098 43.2397Z" fill="white"/>
<path d="M78.8723 43.2397C78.8723 43.9692 78.2738 44.5595 77.5367 44.5595C76.7997 44.5595 76.2012 43.968 76.2012 43.2397C76.2012 42.5113 76.7997 41.9199 77.5367 41.9199C78.2738 41.9199 78.8723 42.5102 78.8723 43.2397Z" fill="white"/>
<path d="M91.4348 43.2397C91.4348 43.9692 90.8363 44.5595 90.0992 44.5595C89.3622 44.5595 88.7637 43.968 88.7637 43.2397C88.7637 42.5113 89.3622 41.9199 90.0992 41.9199C90.8375 41.9199 91.4348 42.5102 91.4348 43.2397Z" fill="white"/>
<path d="M103.999 43.2397C103.999 43.9692 103.401 44.5595 102.664 44.5595C101.925 44.5595 101.328 43.968 101.328 43.2397C101.328 42.5113 101.927 41.9199 102.664 41.9199C103.402 41.9199 103.999 42.5102 103.999 43.2397Z" fill="white"/>
<path d="M2.15392 55.0398C2.89153 55.0398 3.48948 54.4489 3.48948 53.72C3.48948 52.9911 2.89153 52.4003 2.15392 52.4003C1.41631 52.4003 0.818359 52.9911 0.818359 53.72C0.818359 54.4489 1.41631 55.0398 2.15392 55.0398Z" fill="white"/>
<path d="M14.7164 55.0398C15.454 55.0398 16.052 54.4489 16.052 53.72C16.052 52.9911 15.454 52.4003 14.7164 52.4003C13.9788 52.4003 13.3809 52.9911 13.3809 53.72C13.3809 54.4489 13.9788 55.0398 14.7164 55.0398Z" fill="white"/>
<path d="M28.6164 53.72C28.6164 54.4484 28.0179 55.0398 27.2809 55.0398C26.5438 55.0398 25.9453 54.4484 25.9453 53.72C25.9453 52.9905 26.5438 52.4003 27.2809 52.4003C28.0179 52.4003 28.6164 52.9905 28.6164 53.72Z" fill="white"/>
<path d="M41.1809 53.72C41.1809 54.4484 40.5824 55.0398 39.8453 55.0398C39.1083 55.0398 38.5098 54.4484 38.5098 53.72C38.5098 52.9905 39.1071 52.4003 39.8453 52.4003C40.5836 52.4003 41.1809 52.9905 41.1809 53.72Z" fill="white"/>
<path d="M53.7453 53.72C53.7453 54.4484 53.148 55.0398 52.4098 55.0398C51.6715 55.0398 51.0742 54.4484 51.0742 53.72C51.0742 52.9905 51.6727 52.4003 52.4098 52.4003C53.1469 52.4003 53.7453 52.9905 53.7453 53.72Z" fill="white"/>
<path d="M64.9742 55.0398C65.7118 55.0398 66.3098 54.4489 66.3098 53.72C66.3098 52.9911 65.7118 52.4003 64.9742 52.4003C64.2366 52.4003 63.6387 52.9911 63.6387 53.72C63.6387 54.4489 64.2366 55.0398 64.9742 55.0398Z" fill="white"/>
<path d="M77.5367 55.0398C78.2743 55.0398 78.8723 54.4489 78.8723 53.72C78.8723 52.9911 78.2743 52.4003 77.5367 52.4003C76.7991 52.4003 76.2012 52.9911 76.2012 53.72C76.2012 54.4489 76.7991 55.0398 77.5367 55.0398Z" fill="white"/>
<path d="M91.4348 53.72C91.4348 54.4484 90.8363 55.0398 90.0992 55.0398C89.3622 55.0398 88.7637 54.4484 88.7637 53.72C88.7637 52.9905 89.3622 52.4003 90.0992 52.4003C90.8375 52.4003 91.4348 52.9905 91.4348 53.72Z" fill="white"/>
<path d="M103.999 53.72C103.999 54.4484 103.401 55.0398 102.664 55.0398C101.925 55.0398 101.328 54.4484 101.328 53.72C101.328 52.9905 101.927 52.4003 102.664 52.4003C103.402 52.4003 103.999 52.9905 103.999 53.72Z" fill="white"/>
<path d="M2.15392 65.5184C2.89153 65.5184 3.48948 64.9276 3.48948 64.1987C3.48948 63.4698 2.89153 62.8789 2.15392 62.8789C1.41631 62.8789 0.818359 63.4698 0.818359 64.1987C0.818359 64.9276 1.41631 65.5184 2.15392 65.5184Z" fill="white"/>
<path d="M14.7164 65.5184C15.454 65.5184 16.052 64.9276 16.052 64.1987C16.052 63.4698 15.454 62.8789 14.7164 62.8789C13.9788 62.8789 13.3809 63.4698 13.3809 64.1987C13.3809 64.9276 13.9788 65.5184 14.7164 65.5184Z" fill="white"/>
<path d="M28.6164 64.1987C28.6164 64.9282 28.0179 65.5184 27.2809 65.5184C26.5438 65.5184 25.9453 64.9282 25.9453 64.1987C25.9453 63.4691 26.5438 62.8789 27.2809 62.8789C28.0179 62.8789 28.6164 63.4703 28.6164 64.1987Z" fill="white"/>
<path d="M41.1809 64.1987C41.1809 64.9282 40.5824 65.5184 39.8453 65.5184C39.1083 65.5184 38.5098 64.9282 38.5098 64.1987C38.5098 63.4691 39.1071 62.8789 39.8453 62.8789C40.5836 62.8789 41.1809 63.4703 41.1809 64.1987Z" fill="white"/>
<path d="M53.7453 64.1987C53.7453 64.9282 53.148 65.5184 52.4098 65.5184C51.6715 65.5184 51.0742 64.9282 51.0742 64.1987C51.0742 63.4691 51.6727 62.8789 52.4098 62.8789C53.1469 62.8789 53.7453 63.4703 53.7453 64.1987Z" fill="white"/>
<path d="M64.9742 65.5184C65.7118 65.5184 66.3098 64.9276 66.3098 64.1987C66.3098 63.4698 65.7118 62.8789 64.9742 62.8789C64.2366 62.8789 63.6387 63.4698 63.6387 64.1987C63.6387 64.9276 64.2366 65.5184 64.9742 65.5184Z" fill="white"/>
<path d="M77.5367 65.5184C78.2743 65.5184 78.8723 64.9276 78.8723 64.1987C78.8723 63.4698 78.2743 62.8789 77.5367 62.8789C76.7991 62.8789 76.2012 63.4698 76.2012 64.1987C76.2012 64.9276 76.7991 65.5184 77.5367 65.5184Z" fill="white"/>
<path d="M91.4348 64.1987C91.4348 64.9282 90.8363 65.5184 90.0992 65.5184C89.3622 65.5184 88.7637 64.9282 88.7637 64.1987C88.7637 63.4691 89.3622 62.8789 90.0992 62.8789C90.8375 62.8789 91.4348 63.4703 91.4348 64.1987Z" fill="white"/>
<path d="M103.999 64.1987C103.999 64.9282 103.401 65.5184 102.664 65.5184C101.925 65.5184 101.328 64.9282 101.328 64.1987C101.328 63.4691 101.927 62.8789 102.664 62.8789C103.402 62.8789 103.999 63.4703 103.999 64.1987Z" fill="white"/>
<path d="M3.48948 74.6801C3.48948 75.4097 2.89218 75.9999 2.15392 75.9999C1.41566 75.9999 0.818359 75.4085 0.818359 74.6801C0.818359 73.9518 1.41566 73.3604 2.15392 73.3604C2.89218 73.3604 3.48948 73.9518 3.48948 74.6801Z" fill="white"/>
<path d="M16.052 74.6801C16.052 75.4097 15.4535 75.9999 14.7164 75.9999C13.9793 75.9999 13.3809 75.4085 13.3809 74.6801C13.3809 73.9518 13.9793 73.3604 14.7164 73.3604C15.4547 73.3604 16.052 73.9518 16.052 74.6801Z" fill="white"/>
<path d="M28.6164 74.6801C28.6164 75.4097 28.0179 75.9999 27.2809 75.9999C26.5438 75.9999 25.9453 75.4085 25.9453 74.6801C25.9453 73.9518 26.5438 73.3604 27.2809 73.3604C28.0179 73.3604 28.6164 73.9518 28.6164 74.6801Z" fill="white"/>
<path d="M41.1809 74.6801C41.1809 75.4097 40.5824 75.9999 39.8453 75.9999C39.1083 75.9999 38.5098 75.4085 38.5098 74.6801C38.5098 73.9518 39.1071 73.3604 39.8453 73.3604C40.5836 73.3604 41.1809 73.9518 41.1809 74.6801Z" fill="white"/>
<path d="M53.7453 74.6801C53.7453 75.4097 53.148 75.9999 52.4098 75.9999C51.6715 75.9999 51.0742 75.4085 51.0742 74.6801C51.0742 73.9518 51.6727 73.3604 52.4098 73.3604C53.1469 73.3604 53.7453 73.9518 53.7453 74.6801Z" fill="white"/>
<path d="M66.3098 74.6801C66.3098 75.4097 65.7113 75.9999 64.9742 75.9999C64.2372 75.9999 63.6387 75.4085 63.6387 74.6801C63.6387 73.9518 64.2372 73.3604 64.9742 73.3604C65.7125 73.3604 66.3098 73.9518 66.3098 74.6801Z" fill="white"/>
<path d="M78.8723 74.6801C78.8723 75.4097 78.2738 75.9999 77.5367 75.9999C76.7997 75.9999 76.2012 75.4085 76.2012 74.6801C76.2012 73.9518 76.7997 73.3604 77.5367 73.3604C78.2738 73.3604 78.8723 73.9518 78.8723 74.6801Z" fill="white"/>
<path d="M91.4348 74.6801C91.4348 75.4097 90.8363 75.9999 90.0992 75.9999C89.3622 75.9999 88.7637 75.4085 88.7637 74.6801C88.7637 73.9518 89.3622 73.3604 90.0992 73.3604C90.8375 73.3604 91.4348 73.9518 91.4348 74.6801Z" fill="white"/>
<path d="M103.999 74.6801C103.999 75.4097 103.401 75.9999 102.664 75.9999C101.925 75.9999 101.328 75.4085 101.328 74.6801C101.328 73.9518 101.927 73.3604 102.664 73.3604C103.402 73.3604 103.999 73.9518 103.999 74.6801Z" fill="white"/>
</g>
</svg>
