<svg width="32" height="32" viewBox="0 0 32 32" fill="none" xmlns="http://www.w3.org/2000/svg">
<path d="M12.4131 19.6L14.4131 21.6L19.7464 16.2667" stroke="#0A97B0" stroke-width="2" stroke-linecap="round" stroke-linejoin="round"/>
<path d="M13.3337 7.99999H18.667C21.3337 7.99999 21.3337 6.66666 21.3337 5.33332C21.3337 2.66666 20.0003 2.66666 18.667 2.66666H13.3337C12.0003 2.66666 10.667 2.66666 10.667 5.33332C10.667 7.99999 12.0003 7.99999 13.3337 7.99999Z" stroke="#0A97B0" stroke-width="2" stroke-miterlimit="10" stroke-linecap="round" stroke-linejoin="round"/>
<path d="M21.3333 5.35999C25.7733 5.59999 28 7.23999 28 13.3333V21.3333C28 26.6667 26.6667 29.3333 20 29.3333H12C5.33333 29.3333 4 26.6667 4 21.3333V13.3333C4 7.25332 6.22667 5.59999 10.6667 5.35999" stroke="#0A97B0" stroke-width="2" stroke-miterlimit="10" stroke-linecap="round" stroke-linejoin="round"/>
</svg>
