<svg width="32" height="32" viewBox="0 0 32 32" fill="none" xmlns="http://www.w3.org/2000/svg">
<path d="M12.0004 17.3333C11.1204 17.7733 10.387 18.4267 9.84035 19.24C9.53368 19.7067 9.53368 20.2933 9.84035 20.76C10.387 21.5733 11.1204 22.2267 12.0004 22.6667M20.2804 17.3333C21.1604 17.7733 21.8937 18.4267 22.4404 19.24C22.747 19.7067 22.747 20.2933 22.4404 20.76C21.8937 21.5733 21.1604 22.2267 20.2804 22.6667" stroke="#0A97B0" stroke-width="2" stroke-linecap="round" stroke-linejoin="round"/>
<path d="M2.97366 10.68L28.6003 10.6667M12.0003 29.3333H20.0003C26.667 29.3333 29.3337 26.6667 29.3337 20V12C29.3337 5.33332 26.667 2.66666 20.0003 2.66666H12.0003C5.33366 2.66666 2.66699 5.33332 2.66699 12V20C2.66699 26.6667 5.33366 29.3333 12.0003 29.3333Z" stroke="#0A97B0" stroke-width="2" stroke-linecap="round" stroke-linejoin="round"/>
</svg>
