<svg width="24" height="24" viewBox="0 0 24 24" fill="none" xmlns="http://www.w3.org/2000/svg">
<path d="M23.7643 20.2989L18.9881 15.5226L22.3955 13.5544C22.6618 13.4006 22.8167 13.1084 22.7946 12.8017C22.7724 12.4949 22.577 12.2279 22.2915 12.114L7.09703 6.05292C6.79918 5.93397 6.45905 6.00403 6.23223 6.23078C6.0054 6.45769 5.93534 6.79773 6.05421 7.09559L12.1143 22.2918C12.2283 22.5774 12.4953 22.7728 12.8021 22.795C13.1088 22.8173 13.4012 22.6623 13.5549 22.396L15.5229 18.9885L20.2987 23.7648C20.4492 23.9154 20.6535 24 20.8662 24C21.0792 24 21.2833 23.9154 21.4338 23.7648L23.7643 21.4339C24.0777 21.1205 24.0777 20.6124 23.7643 20.2989Z" fill="white"/>
<path d="M3.52444 2.38805C3.21098 2.07483 2.70294 2.07475 2.38933 2.38805C2.07595 2.7015 2.07595 3.2097 2.38933 3.52316L4.17268 5.30651C4.32937 5.4632 4.5347 5.54158 4.7402 5.54158C4.94553 5.54158 5.15094 5.4632 5.30763 5.30651C5.62108 4.99306 5.62108 4.48494 5.30763 4.17148L3.52444 2.38805Z" fill="white"/>
<path d="M4.12833 7.93656C4.12833 7.49341 3.76898 7.13397 3.32566 7.13397H0.803643C0.360411 7.13397 0.000976562 7.49333 0.000976562 7.93656C0.000976562 8.37979 0.36033 8.73923 0.803643 8.73923H3.32566C3.76898 8.73914 4.12833 8.37979 4.12833 7.93656Z" fill="white"/>
<path d="M3.80281 10.4137L2.01921 12.1972C1.70584 12.5106 1.70584 13.0188 2.01921 13.3322C2.17598 13.4889 2.38139 13.5673 2.58673 13.5673C2.79206 13.5673 2.99755 13.4889 3.15424 13.3322L4.93776 11.5488C5.25121 11.2353 5.25121 10.7271 4.93776 10.4137C4.62438 10.1004 4.11642 10.1004 3.80281 10.4137Z" fill="white"/>
<path d="M7.93735 4.12752C8.38058 4.12752 8.74002 3.76816 8.74002 3.32485V0.802586C8.74002 0.359354 8.38066 0 7.93735 0C7.4942 0 7.13477 0.359273 7.13477 0.802586V3.32493C7.13477 3.76816 7.49412 4.12752 7.93735 4.12752Z" fill="white"/>
<path d="M10.9813 5.1722C11.1868 5.1722 11.3921 5.09381 11.5488 4.93713L13.3321 3.15377C13.6456 2.84032 13.6456 2.33212 13.3321 2.01866C13.0187 1.70537 12.5104 1.70537 12.1971 2.01866L10.4138 3.8021C10.1003 4.11555 10.1003 4.62375 10.4138 4.93713C10.5706 5.09381 10.7759 5.1722 10.9813 5.1722Z" fill="white"/>
</svg>
