<svg width="25" height="24" viewBox="0 0 25 24" fill="none" xmlns="http://www.w3.org/2000/svg">
<path d="M9.62482 7.5194C9.62482 7.72988 9.58303 7.93807 9.50207 8.13081C9.42112 8.32354 9.30278 8.49664 9.15452 8.63913C9.00627 8.78163 8.83133 8.89043 8.64076 8.95866C8.4502 9.02689 8.24816 9.05307 8.04742 9.03553H8.02846C7.82994 9.04623 7.63142 9.01428 7.44518 8.94163C7.25895 8.86899 7.08895 8.7572 6.94571 8.61318C6.80246 8.46916 6.68901 8.29597 6.61237 8.10432C6.53573 7.91266 6.49753 7.70662 6.50012 7.49892C6.50272 7.29123 6.54607 7.0863 6.62748 6.8968C6.70888 6.7073 6.82663 6.53727 6.97343 6.39721C7.12023 6.25715 7.29296 6.15005 7.48095 6.08251C7.66894 6.01498 7.86819 5.98846 8.06638 6.00458C8.2657 5.98892 8.46597 6.0165 8.65461 6.08558C8.84324 6.15467 9.01617 6.26376 9.16252 6.40602C9.30887 6.54827 9.42549 6.72061 9.50505 6.91222C9.58461 7.10382 9.62538 7.31054 9.62482 7.5194ZM6.65077 10.2334H9.43902V18.9987H6.65077V10.2334ZM19.4987 13.9709V18.9987H16.7105V14.3103C16.7105 13.1309 16.3073 12.3266 15.2949 12.3266C14.9809 12.3296 14.6754 12.4335 14.4199 12.6242C14.1643 12.8148 13.9712 13.0831 13.8666 13.3924C13.7952 13.6215 13.7639 13.8622 13.7743 14.1029V19H10.9836C10.9836 19 11.0215 11.0535 10.9836 10.2321H13.7769V11.4735L13.7566 11.5039H13.7756V11.4708C14.0281 11.0127 14.396 10.6357 14.8392 10.3808C15.2825 10.1258 15.7841 10.0027 16.2896 10.0247C18.1236 10.0247 19.4987 11.278 19.4987 13.9709Z" fill="#FDCB02"/>
</svg>
