<svg width="17" height="16" viewBox="0 0 17 16" fill="none" xmlns="http://www.w3.org/2000/svg">
<path d="M11.557 15.8001H5.44328C2.72893 15.8001 0.524658 13.5922 0.524658 10.8815V5.49651C0.524658 2.78215 2.73257 0.577881 5.44328 0.577881H11.557C14.2677 0.577881 16.4756 2.7858 16.4756 5.49651V10.8815C16.4756 13.5959 14.2677 15.8001 11.557 15.8001ZM5.44693 1.66728C3.33738 1.66728 1.62133 3.38334 1.62133 5.49288V10.8779C1.62133 12.9874 3.33738 14.7035 5.44693 14.7035H11.5606C13.6701 14.7035 15.3862 12.9874 15.3862 10.8779V5.49288C15.3862 3.38334 13.6701 1.66728 11.5606 1.66728H5.44693Z" fill="#FDCB02"/>
<path d="M8.50074 12.5647C6.08514 12.5647 4.12134 10.6009 4.12134 8.18529C4.12134 5.7697 6.08514 3.80591 8.50074 3.80591C10.9163 3.80591 12.8801 5.7697 12.8801 8.18529C12.8801 10.6009 10.9163 12.5647 8.50074 12.5647ZM8.50074 4.90256C6.68995 4.90256 5.21437 6.37816 5.21437 8.18894C5.21437 9.99972 6.68995 11.4753 8.50074 11.4753C10.3115 11.4753 11.7871 9.99972 11.7871 8.18894C11.7871 6.37816 10.3115 4.90256 8.50074 4.90256Z" fill="#FDCB02"/>
<path d="M13.7214 3.94446C13.7214 4.44726 13.3133 4.85167 12.8142 4.85167C12.315 4.85167 11.907 4.44361 11.907 3.94446C11.907 3.44531 12.315 3.03723 12.8142 3.03723C13.3133 3.03723 13.7214 3.44531 13.7214 3.94446Z" fill="#FDCB02"/>
</svg>
