<svg width="21" height="20" viewBox="0 0 21 20" fill="none" xmlns="http://www.w3.org/2000/svg">
<path d="M21 0L17.7947 5.07176H6.41079C5.17719 5.07176 4.06016 5.56558 3.25203 6.36174C2.98393 6.62587 2.74887 6.92444 2.55653 7.24981C2.16611 7.90244 1.94266 8.66227 1.94266 9.47372C1.94266 9.59045 1.94658 9.70718 1.95818 9.82014C1.44535 9.23828 1.04516 8.55696 0.792579 7.80864C0.594404 7.21914 0.485596 6.58945 0.485596 5.93304C0.485596 4.29476 1.15972 2.81152 2.24955 1.73783C3.33938 0.664141 4.84492 8.65033e-05 6.50782 8.65033e-05H21V0Z" fill="#0A97B0"/>
<path d="M3.35203 9.30817C3.32483 10.7272 4.48502 11.8919 5.9256 11.8919H14.6864C15.92 11.8919 17.0371 12.3857 17.8452 13.1819C18.1133 13.446 18.3484 13.7446 18.5407 14.0699C18.9311 14.7226 19.1546 15.4824 19.1546 16.2939C19.1546 16.4106 19.1506 16.5273 19.1391 16.6403C19.6519 16.0584 20.0521 15.3771 20.3046 14.6288C20.5028 14.0393 20.6116 13.4096 20.6116 12.7532C20.6116 11.1149 19.9375 9.63166 18.8477 8.55797C17.7578 7.48428 16.2523 6.82013 14.5894 6.82013H5.92569C4.52294 6.82005 3.37854 7.92646 3.35203 9.30817Z" fill="#FDCB02"/>
<path d="M14.3756 19.7647H0L3.49679 13.6403H14.3756C16.0922 13.6403 17.4838 15.0112 17.4838 16.7024C17.4838 18.3936 16.0922 19.7647 14.3756 19.7647Z" fill="#0A97B0"/>
</svg>
