<svg width="25" height="24" viewBox="0 0 25 24" fill="none" xmlns="http://www.w3.org/2000/svg">
<path d="M19.7042 7.26408C19.3525 7.36126 19.0755 7.34801 19.0755 7.34801L19.0887 7.28174C19.414 7.01669 20.2405 6.21273 20.3504 5.83283C20.3988 5.66938 20.3416 5.61195 20.3416 5.60754L19.2865 6.0581L18.4029 6.4601C17.7918 5.81074 16.873 5.3999 15.8443 5.3999C14.0111 5.3999 12.5252 6.70306 12.5252 8.31543C12.5252 8.6114 12.5691 9.14591 12.6615 9.41537C12.6615 9.33144 12.6615 9.4993 12.6615 9.41537C11.4789 9.38445 9.9666 8.89409 8.62136 8.20939C5.96166 6.85765 5.7946 5.92116 5.7946 5.92116C5.37697 6.36732 5.16155 7.84276 5.58359 9.00013C5.85615 9.74226 6.78814 10.4049 6.78814 10.4049C6.78814 10.4049 6.37051 10.4137 5.93528 10.2635C5.50006 10.1133 5.333 9.96755 5.333 9.96755C5.07363 10.6037 5.59238 11.7389 6.4936 12.5517C7.01675 13.0288 7.97512 13.3248 7.97512 13.3248L6.48041 13.369C6.39688 14.8312 9.53138 15.697 9.53138 15.697C8.61257 16.4082 7.54869 16.8411 6.40568 16.8411C5.81219 16.8411 5.24068 16.7527 4.69995 16.5893C6.20785 17.8394 8.15097 18.7008 10.2568 18.5904C15.8531 18.2944 19.0096 13.4617 19.1591 8.71741L19.1678 8.72625C19.1678 8.72625 19.4316 8.59372 19.9899 8.03271C20.5483 7.46728 20.9 6.80907 20.9 6.80907C20.9 6.80907 20.0603 7.17571 19.7086 7.27289L19.7042 7.26408Z" fill="#FDCB02"/>
</svg>
