<svg width="16" height="16" viewBox="0 0 16 16" fill="none" xmlns="http://www.w3.org/2000/svg">
<path d="M11.0567 15.8H4.94304C2.22869 15.8 0.0244141 13.5921 0.0244141 10.8814V5.49638C0.0244141 2.78203 2.23233 0.577759 4.94304 0.577759H11.0567C13.7674 0.577759 15.9753 2.78568 15.9753 5.49638V10.8814C15.9753 13.5957 13.7674 15.8 11.0567 15.8ZM4.94668 1.66716C2.83714 1.66716 1.12108 3.38322 1.12108 5.49276V10.8777C1.12108 12.9873 2.83714 14.7033 4.94668 14.7033H11.0604C13.1699 14.7033 14.886 12.9873 14.886 10.8777V5.49276C14.886 3.38322 13.1699 1.66716 11.0604 1.66716H4.94668Z" fill="white"/>
<path d="M8.00049 12.5647C5.5849 12.5647 3.62109 10.6009 3.62109 8.18529C3.62109 5.7697 5.5849 3.80591 8.00049 3.80591C10.4161 3.80591 12.3799 5.7697 12.3799 8.18529C12.3799 10.6009 10.4161 12.5647 8.00049 12.5647ZM8.00049 4.90256C6.18971 4.90256 4.71412 6.37816 4.71412 8.18894C4.71412 9.99972 6.18971 11.4753 8.00049 11.4753C9.81127 11.4753 11.2869 9.99972 11.2869 8.18894C11.2869 6.37816 9.81127 4.90256 8.00049 4.90256Z" fill="white"/>
<path d="M13.2207 3.9444C13.2207 4.4472 12.8126 4.85161 12.3135 4.85161C11.8143 4.85161 11.4062 4.44355 11.4062 3.9444C11.4062 3.44525 11.8143 3.03717 12.3135 3.03717C12.8126 3.03717 13.2207 3.44525 13.2207 3.9444Z" fill="white"/>
</svg>
