<svg width="21" height="20" viewBox="0 0 21 20" fill="none" xmlns="http://www.w3.org/2000/svg">
<path d="M20.9998 0L17.7945 5.07176H6.41054C5.17694 5.07176 4.05991 5.56558 3.25178 6.36174C2.98368 6.62587 2.74862 6.92444 2.55629 7.24981C2.16587 7.90244 1.94241 8.66227 1.94241 9.47372C1.94241 9.59045 1.94634 9.70718 1.95793 9.82014C1.4451 9.23828 1.04491 8.55696 0.792335 7.80864C0.59416 7.21914 0.485352 6.58945 0.485352 5.93304C0.485352 4.29476 1.15948 2.81152 2.24931 1.73783C3.33914 0.664141 4.84467 8.65033e-05 6.50758 8.65033e-05H20.9998V0Z" fill="#0A97B0"/>
<path d="M3.35203 9.30811C3.32483 10.7271 4.48502 11.8918 5.9256 11.8918H14.6864C15.92 11.8918 17.0371 12.3856 17.8452 13.1818C18.1133 13.4459 18.3484 13.7445 18.5407 14.0699C18.9311 14.7225 19.1546 15.4823 19.1546 16.2938C19.1546 16.4105 19.1506 16.5273 19.1391 16.6402C19.6519 16.0584 20.0521 15.377 20.3046 14.6287C20.5028 14.0392 20.6116 13.4095 20.6116 12.7531C20.6116 11.1148 19.9375 9.63159 18.8477 8.5579C17.7578 7.48421 16.2523 6.82007 14.5894 6.82007H5.92569C4.52294 6.81998 3.37854 7.9264 3.35203 9.30811Z" fill="#FDCB02"/>
<path d="M14.3756 19.7648H0L3.49679 13.6404H14.3756C16.0922 13.6404 17.4838 15.0114 17.4838 16.7025C17.4838 18.3937 16.0922 19.7648 14.3756 19.7648Z" fill="#0A97B0"/>
</svg>
