<svg width="24" height="24" viewBox="0 0 24 24" fill="none" xmlns="http://www.w3.org/2000/svg">
<path d="M9.12482 7.5194C9.12482 7.72988 9.08303 7.93807 9.00207 8.13081C8.92112 8.32354 8.80278 8.49664 8.65452 8.63913C8.50627 8.78163 8.33133 8.89043 8.14076 8.95866C7.9502 9.02689 7.74816 9.05307 7.54742 9.03553H7.52846C7.32994 9.04623 7.13142 9.01428 6.94518 8.94163C6.75895 8.86899 6.58895 8.7572 6.44571 8.61318C6.30246 8.46916 6.18901 8.29597 6.11237 8.10432C6.03573 7.91266 5.99753 7.70662 6.00012 7.49892C6.00272 7.29123 6.04607 7.0863 6.12748 6.8968C6.20888 6.7073 6.32663 6.53727 6.47343 6.39721C6.62023 6.25715 6.79296 6.15005 6.98095 6.08251C7.16894 6.01498 7.36819 5.98846 7.56638 6.00458C7.7657 5.98892 7.96597 6.0165 8.15461 6.08558C8.34324 6.15467 8.51617 6.26376 8.66252 6.40602C8.80887 6.54827 8.92549 6.72061 9.00505 6.91222C9.08461 7.10382 9.12538 7.31054 9.12482 7.5194ZM6.15077 10.2334H8.93902V18.9987H6.15077V10.2334ZM18.9987 13.9709V18.9987H16.2105V14.3103C16.2105 13.1309 15.8073 12.3266 14.7949 12.3266C14.4809 12.3296 14.1754 12.4335 13.9199 12.6242C13.6643 12.8148 13.4712 13.0831 13.3666 13.3924C13.2952 13.6215 13.2639 13.8622 13.2743 14.1029V19H10.4836C10.4836 19 10.5215 11.0535 10.4836 10.2321H13.2769V11.4735L13.2566 11.5039H13.2756V11.4708C13.5281 11.0127 13.896 10.6357 14.3392 10.3808C14.7825 10.1258 15.2841 10.0027 15.7896 10.0247C17.6236 10.0247 18.9987 11.278 18.9987 13.9709Z" fill="white"/>
</svg>
