<svg width="24" height="24" viewBox="0 0 24 24" fill="none" xmlns="http://www.w3.org/2000/svg">
<path d="M19.2044 7.26414C18.8527 7.36132 18.5758 7.34807 18.5758 7.34807L18.589 7.2818C18.9143 7.01675 19.7408 6.21279 19.8507 5.83289C19.899 5.66945 19.8419 5.61201 19.8419 5.6076L18.7868 6.05816L17.9032 6.46016C17.2921 5.8108 16.3733 5.39996 15.3446 5.39996C13.5113 5.39996 12.0254 6.70313 12.0254 8.31549C12.0254 8.61146 12.0694 9.14597 12.1617 9.41543C12.1617 9.3315 12.1617 9.49936 12.1617 9.41543C10.9791 9.38451 9.46684 8.89415 8.12161 8.20945C5.46191 6.85771 5.29485 5.92122 5.29485 5.92122C4.87721 6.36738 4.6618 7.84282 5.08383 9.00019C5.3564 9.74232 6.28839 10.4049 6.28839 10.4049C6.28839 10.4049 5.87075 10.4138 5.43553 10.2636C5.0003 10.1134 4.83325 9.96761 4.83325 9.96761C4.57387 10.6037 5.09262 11.739 5.99384 12.5518C6.51699 13.0289 7.47537 13.3249 7.47537 13.3249L5.98066 13.369C5.89713 14.8312 9.03162 15.697 9.03162 15.697C8.11281 16.4082 7.04893 16.8412 5.90592 16.8412C5.31243 16.8412 4.74093 16.7528 4.2002 16.5894C5.70809 17.8395 7.65121 18.7009 9.75699 18.5904C15.3534 18.2945 18.5098 13.4618 18.6593 8.71747L18.6681 8.72631C18.6681 8.72631 18.9319 8.59378 19.4902 8.03277C20.0485 7.46734 20.4002 6.80913 20.4002 6.80913C20.4002 6.80913 19.5605 7.17577 19.2088 7.27295L19.2044 7.26414Z" fill="white"/>
</svg>
