<svg width="17" height="16" viewBox="0 0 17 16" fill="none" xmlns="http://www.w3.org/2000/svg">
<path d="M11.5567 15.8H5.44304C2.72869 15.8 0.524414 13.5921 0.524414 10.8814V5.49638C0.524414 2.78203 2.73233 0.577759 5.44304 0.577759H11.5567C14.2674 0.577759 16.4753 2.78568 16.4753 5.49638V10.8814C16.4753 13.5957 14.2674 15.8 11.5567 15.8ZM5.44668 1.66716C3.33714 1.66716 1.62108 3.38322 1.62108 5.49276V10.8777C1.62108 12.9873 3.33714 14.7033 5.44668 14.7033H11.5604C13.6699 14.7033 15.386 12.9873 15.386 10.8777V5.49276C15.386 3.38322 13.6699 1.66716 11.5604 1.66716H5.44668Z" fill="#FDCB02"/>
<path d="M8.50049 12.5647C6.0849 12.5647 4.12109 10.6009 4.12109 8.18529C4.12109 5.7697 6.0849 3.80591 8.50049 3.80591C10.9161 3.80591 12.8799 5.7697 12.8799 8.18529C12.8799 10.6009 10.9161 12.5647 8.50049 12.5647ZM8.50049 4.90256C6.68971 4.90256 5.21412 6.37816 5.21412 8.18894C5.21412 9.99972 6.68971 11.4753 8.50049 11.4753C10.3113 11.4753 11.7869 9.99972 11.7869 8.18894C11.7869 6.37816 10.3113 4.90256 8.50049 4.90256Z" fill="#FDCB02"/>
<path d="M13.7207 3.9444C13.7207 4.4472 13.3126 4.85161 12.8135 4.85161C12.3143 4.85161 11.9062 4.44355 11.9062 3.9444C11.9062 3.44525 12.3143 3.03717 12.8135 3.03717C13.3126 3.03717 13.7207 3.44525 13.7207 3.9444Z" fill="#FDCB02"/>
</svg>
