<svg width="25" height="24" viewBox="0 0 25 24" fill="none" xmlns="http://www.w3.org/2000/svg">
<path d="M19.7044 7.26414C19.3527 7.36132 19.0758 7.34807 19.0758 7.34807L19.089 7.2818C19.4143 7.01675 20.2408 6.21279 20.3507 5.83289C20.399 5.66945 20.3419 5.61201 20.3419 5.6076L19.2868 6.05816L18.4032 6.46016C17.7921 5.8108 16.8733 5.39996 15.8446 5.39996C14.0113 5.39996 12.5254 6.70313 12.5254 8.31549C12.5254 8.61146 12.5694 9.14597 12.6617 9.41543C12.6617 9.3315 12.6617 9.49936 12.6617 9.41543C11.4791 9.38451 9.96684 8.89415 8.62161 8.20945C5.96191 6.85771 5.79485 5.92122 5.79485 5.92122C5.37721 6.36738 5.1618 7.84282 5.58383 9.00019C5.8564 9.74232 6.78839 10.4049 6.78839 10.4049C6.78839 10.4049 6.37075 10.4138 5.93553 10.2636C5.5003 10.1134 5.33325 9.96761 5.33325 9.96761C5.07387 10.6037 5.59262 11.739 6.49384 12.5518C7.01699 13.0289 7.97537 13.3249 7.97537 13.3249L6.48066 13.369C6.39713 14.8312 9.53162 15.697 9.53162 15.697C8.61281 16.4082 7.54893 16.8412 6.40592 16.8412C5.81243 16.8412 5.24093 16.7528 4.7002 16.5894C6.20809 17.8395 8.15121 18.7009 10.257 18.5904C15.8534 18.2945 19.0098 13.4618 19.1593 8.71747L19.1681 8.72631C19.1681 8.72631 19.4319 8.59378 19.9902 8.03277C20.5485 7.46734 20.9002 6.80913 20.9002 6.80913C20.9002 6.80913 20.0605 7.17577 19.7088 7.27295L19.7044 7.26414Z" fill="#FDCB02"/>
</svg>
