<svg width="12" height="12" viewBox="0 0 12 12" fill="none" xmlns="http://www.w3.org/2000/svg">
<path fill-rule="evenodd" clip-rule="evenodd" d="M0 6C0 5.44772 0.482145 5 1.0769 5H10.9231C11.5179 5 12 5.44772 12 6C12 6.55228 11.5179 7 10.9231 7H1.0769C0.482145 7 0 6.55228 0 6Z" fill="#1E2533"/>
<path fill-rule="evenodd" clip-rule="evenodd" d="M6 -4.37114e-08C6.55228 -1.95702e-08 7 0.482145 7 1.0769L7 10.9231C7 11.5179 6.55228 12 6 12C5.44772 12 5 11.5179 5 10.9231L5 1.0769C5 0.482145 5.44772 -6.78525e-08 6 -4.37114e-08Z" fill="#1E2533"/>
</svg>
