<svg width="20" height="20" viewBox="0 0 20 20" fill="none" xmlns="http://www.w3.org/2000/svg">
<path d="M17.1585 18.3333C17.1585 15.1083 13.9501 12.5 10.0001 12.5C6.05013 12.5 2.8418 15.1083 2.8418 18.3333M10.0001 10C11.1052 10 12.165 9.56102 12.9464 8.77962C13.7278 7.99821 14.1668 6.93841 14.1668 5.83334C14.1668 4.72827 13.7278 3.66846 12.9464 2.88706C12.165 2.10566 11.1052 1.66667 10.0001 1.66667C8.89506 1.66667 7.83525 2.10566 7.05385 2.88706C6.27245 3.66846 5.83346 4.72827 5.83346 5.83334C5.83346 6.93841 6.27245 7.99821 7.05385 8.77962C7.83525 9.56102 8.89506 10 10.0001 10Z" stroke="#5A556E" stroke-width="1.2" stroke-linecap="round" stroke-linejoin="round"/>
</svg>
