<svg width="17" height="16" viewBox="0 0 17 16" fill="none" xmlns="http://www.w3.org/2000/svg">
<path d="M11.5567 15.8001H5.44304C2.72869 15.8001 0.524414 13.5922 0.524414 10.8815V5.49651C0.524414 2.78215 2.73233 0.577881 5.44304 0.577881H11.5567C14.2674 0.577881 16.4753 2.7858 16.4753 5.49651V10.8815C16.4753 13.5959 14.2674 15.8001 11.5567 15.8001ZM5.44668 1.66728C3.33714 1.66728 1.62108 3.38334 1.62108 5.49288V10.8779C1.62108 12.9874 3.33714 14.7035 5.44668 14.7035H11.5604C13.6699 14.7035 15.386 12.9874 15.386 10.8779V5.49288C15.386 3.38334 13.6699 1.66728 11.5604 1.66728H5.44668Z" fill="#FDCB02"/>
<path d="M8.50049 12.5647C6.0849 12.5647 4.12109 10.6009 4.12109 8.18529C4.12109 5.7697 6.0849 3.80591 8.50049 3.80591C10.9161 3.80591 12.8799 5.7697 12.8799 8.18529C12.8799 10.6009 10.9161 12.5647 8.50049 12.5647ZM8.50049 4.90256C6.68971 4.90256 5.21412 6.37816 5.21412 8.18894C5.21412 9.99972 6.68971 11.4753 8.50049 11.4753C10.3113 11.4753 11.7869 9.99972 11.7869 8.18894C11.7869 6.37816 10.3113 4.90256 8.50049 4.90256Z" fill="#FDCB02"/>
<path d="M13.7212 3.94434C13.7212 4.44713 13.3131 4.85155 12.814 4.85155C12.3148 4.85155 11.9067 4.44349 11.9067 3.94434C11.9067 3.44519 12.3148 3.03711 12.814 3.03711C13.3131 3.03711 13.7212 3.44519 13.7212 3.94434Z" fill="#FDCB02"/>
</svg>
