<svg width="25" height="24" viewBox="0 0 25 24" fill="none" xmlns="http://www.w3.org/2000/svg">
<path d="M19.7044 7.26408C19.3527 7.36126 19.0758 7.34801 19.0758 7.34801L19.089 7.28174C19.4143 7.01669 20.2408 6.21273 20.3507 5.83283C20.399 5.66938 20.3419 5.61195 20.3419 5.60754L19.2868 6.0581L18.4032 6.4601C17.7921 5.81074 16.8733 5.3999 15.8446 5.3999C14.0113 5.3999 12.5254 6.70306 12.5254 8.31543C12.5254 8.6114 12.5694 9.14591 12.6617 9.41537C12.6617 9.33144 12.6617 9.4993 12.6617 9.41537C11.4791 9.38445 9.96684 8.89409 8.62161 8.20939C5.96191 6.85765 5.79485 5.92116 5.79485 5.92116C5.37721 6.36732 5.1618 7.84276 5.58383 9.00013C5.8564 9.74226 6.78839 10.4049 6.78839 10.4049C6.78839 10.4049 6.37075 10.4137 5.93553 10.2635C5.5003 10.1133 5.33325 9.96755 5.33325 9.96755C5.07387 10.6037 5.59262 11.7389 6.49384 12.5517C7.01699 13.0288 7.97537 13.3248 7.97537 13.3248L6.48066 13.369C6.39713 14.8312 9.53162 15.697 9.53162 15.697C8.61281 16.4082 7.54893 16.8411 6.40592 16.8411C5.81243 16.8411 5.24093 16.7527 4.7002 16.5893C6.20809 17.8394 8.15121 18.7008 10.257 18.5904C15.8534 18.2944 19.0098 13.4617 19.1593 8.71741L19.1681 8.72625C19.1681 8.72625 19.4319 8.59372 19.9902 8.03271C20.5485 7.46728 20.9002 6.80907 20.9002 6.80907C20.9002 6.80907 20.0605 7.17571 19.7088 7.27289L19.7044 7.26408Z" fill="#FDCB02"/>
</svg>
